<mxfile host="app.diagrams.net" modified="2021-06-22T02:14:16.686Z" agent="5.0 (Windows NT 10.0; Win64; x64) AppleWebKit/537.36 (KHTML, like Gecko) Chrome/90.0.4430.212 Safari/537.36" etag="J3KOmoJYGjloBxBCCoKs" version="14.7.2" type="github">
  <diagram id="fNviInA1k4mV3UpUat50" name="Page-1">
    <mxGraphModel dx="1550" dy="780" grid="1" gridSize="10" guides="1" tooltips="1" connect="1" arrows="1" fold="1" page="1" pageScale="1" pageWidth="850" pageHeight="1100" math="0" shadow="0">
      <root>
        <mxCell id="0" />
        <mxCell id="1" parent="0" />
        <mxCell id="yOQESPadZOr60FF15kcj-32" value="" style="rounded=1;whiteSpace=wrap;html=1;" parent="1" vertex="1">
          <mxGeometry x="240" y="550" width="300" height="210" as="geometry" />
        </mxCell>
        <mxCell id="yOQESPadZOr60FF15kcj-1" value="" style="shape=image;verticalLabelPosition=bottom;labelBackgroundColor=#ffffff;verticalAlign=top;aspect=fixed;imageAspect=0;image=data:image/png,iVBORw0KGgoAAAANSUhEUgAAAjsAAADPCAYAAAATShB9AAAgAElEQVR4Ae29BdBcRfb+T4JDAQUFf6SAwgooWFJYoQUsLIUFftjCooW7JcGD+2aRQNDIElxDIARLcEJIsAgWIMEiSLAQQSL0vz7Nnvn2e3PvHXnnztyZeU7V+87Mlb7dz215+pzTpxdwEiEgBISAEBACQkAINDECCzRx2VQ0ISAEhIAQEAJCQAg4kR1VAiEgBISAEBACQqCpERDZaerXq8IJASEgBISAEBACIjuqA0JACAgBISAEhEBTIyCy09SvV4UTAkJACAgBISAERHZUB4SAEBACQkAICIGmRkBkp6lfrwonBISAEBACQkAIiOyoDggBISAEhIAQEAJNjYDITlO/XhVOCAgBISAEhIAQENlRHRACQkAICAEhIASaGgGRnaZ+vSqcEBACQkAICAEhILKjOiAEGhSB7t27uz322MO9++67hRLMnj3bH3vxxRcLx/RFCAgBIdDqCIjstHoNUPkbFoF//OMfboEFFnCbbbaZmzt3ri/H77//7o/dc889DVsuZVwICAEhUG0ERHaqjajSEwI1QgCys8EGG7gFF+zoevbs6Z8aR3amTp3qevXq5c4555w2WqAaZVOPEQJCQAjUHQGRnbq/AmVACFSGAGTnoIMOcl26dHFLLbWUmzhxoouSnddff90ttNBCbuutt3aHHnqoW3TRRV3Xrl0re6DuEgJCQAg0KAIiOw364pRtIWBkZ8aMGW611VZze++993xk54QTTnBrrLFGAaxu3bq5lVZaqWD2KpzQFyEgBIRAEyMgstPEL1dFa24EjOxQyieeeML76jzwwANtfHbWW289t88++xSAuPPOO/35Tz75pHBMX4SAEBACzY6AyE6zv2GVr2kRCMkOhYTUrLzyym3IzhlnnOFWXXVV9+eff3ocTjzxRLfmmms2LSYqmBAQAkIgDgGRnThUdEwINAACUbIzadIk77vDCi1bjcWy9IUXXtg7Mu+8886uQ4cO7sorr2yA0imLQkAICIHqISCyUz0slZIQqCkCAwYMcIMHD27zzCFDhrhrr73WffTRR4XjH3zwgbvqqqvcBRdc4J566qnCcX0RAkJACLQKAiI7rfKmVU4hIASEgBAQAi2KgMhOi754FVsICAEhIASEQKsg0FBkBydL4ojoTxioDqgOqA6oDtSiDrQKGWj2cjYU2Xn//ff9ShMcMPUnDFQHVAdUB1QHsq4Dffr0aXYe0BLla0iyQ4yQTz/9VH/CQHVAdUB1QHUgszpw8803t4lT1RKsoEkL2ZBkx2KGNOk7UbGEgBAQAkIgBwgMHDhQZCcH76EaWRDZqQaKSkMICAEhIASaDgEik7MNi6TxERDZafx3qBIIASEgBIRABgg8+eSTbs8998wgZSVZawREdmqNuJ7XMAh0797d7bHHHo4oxCazZ8/2x1588UU7lOvPZ555xuf3xhtvbJPPyy67zF166aVtjuX5B6brm266yZdl9OjRec6q8tZECBCEkz5A0vgIiOw0/jtUCTJCgO0YWOmx2WabFXYJZ6krx2w7howeXbVk77jjDp9ftowgkrLJXnvt5fjLg/To0cN9+OGHiVmBYG6//fZumWWW8WV57rnnEq/VCSFQTQSYLOy2227VTFJp1QkBkZ06Aa/H5h8ByM4GG2zgFlywo+vZs6fPcBzZQdNwzjnneM3DN998UygYWzS89NJLDsJx2mmnuWHDhhXOvffee65bt27uvPPOc2+//Xbh+IQJE9yFF17ozj77bJe0M/n999/vTj/99Pn+Ro4cWUjHvvDsjh07ug033NBtu+22hQ1Bo2Rn6tSprlevXr4coSYLNT4rUl577TV36qmnurvuusv99ttvlrx76KGH3AknnODL/u233/rj06dPd3379nVsOorPQzFZffXV3eOPP5542a+//uq6dOni3nrrLZGdRJR0IgsEINa77LJLFkkrzRojILJTY8D1uMZBwDbaZKBdaqml3MSJE31Ay1Czc9ZZZ7lFF13UHXzwwW6bbbbxxMhIzWqrreZWWmklt91223mywX1Tpkxxs2bNcksuuaTbYost/KyR799995179tln/f3HH3+822GHHdzyyy/v5syZMx9gd955pzv66KPn+3v11VfnuxayA1l7/fXX/SagvXv39teEZIdzCy20kNt6663doYce6svTtWtXfx2EbOmll3brrruu69y5s08DcxLy6KOP+rS5Z4011vDq/j/++MPnmzKfdNJJnmixX1dUuA6CxR87tUOi+P7zzz9HLy38Zr8vMJRmpwCJvmSMwNChQx0b6EoaHwGRncZ/hypBRggY2ZkxY4aDuLAqI9TsQERWXHFFr4WxLHAdgzyy5ppruk6dOvnvmJAYqO+9916HtoTvP/zwg5s2bZqDvHz55ZfuyCOP9JokNEV2TRyBsWeV8mlkh2uPO+44bwpCAxOSHTQzkBUTCA4kbe7cue7cc8/1eTUtE5ouM38ddthhbscdd/S3oQ267777CvnG14FyrLPOOl4jZGnbJ+YBMIj+pQ0sIjuGnj5rhcALL7zg6AckjY+AyE7jv0OVICMEjOyQPOYYBuYHHnjAf+KzgymKY5iVTHbfffcCwYHsoKVB0GRwLVoRHJ/RFEVlvfXW82Rkyy23dPbXv3//6GXu4Ycf9gQLU1f4F5rD7KaQ7Pz000+enB100EGeuBlp4bn77LOP3eLJF3mF4EB2ll122cI5CB9aGwQic8wxxxTO8eWiiy7y5URrZWU4/PDD21zDD/xwvv76a/+36qqrun79+vnv5DFJRHaSkNHxrBBgIYIR+qyeoXRrg4DITm1w1lMaEIGQ7JB9CAEmF4gAZGfevHmOgfqMM87wpeP3CiusUND0QHZOOeUUf47B3ciOaW0waaFlQZMybtw47/uCuQhh9RF+LJCkqEBgMJtF//APikpIdjgHMSMfyy23XGFJLfmnHBasE18b8o5AdtBemYCBkR1IDKY7BE3NxRdf7FD7k/6YMWP8cTRTkJo0KeazY/eK7BgS+qwVAi+//LI3KdfqeXpOdgiI7GSHrVJucASiZGfSpEleI2Nkh+KhyejQoYP3vUHTscgiizj2cEOSyA4+O/jjrL/++t5vB4I0c+ZMh8qctPDX2XXXXd1iiy3mTUHtgTFKdkgLUxFlsPghmKBYrYWJinPk4corr/SPTSM7gwYN8j47aLMwex1xxBFeY8N3CAxaH/yZLr/88tQiXH311Q4ikyRjx471+dpqq618vjENkk8clyVCIEsEIOtG7rN8jtLOHgGRnewx1hMaFIEBAwa4wYMHt8k9zrbXXnttm8EZE9f555/v/v3vf3sNjd3ABoIQGAStCfeNGjXK/2agxleHVV6ff/653eJXPaEhgSCkEYDCDUW+oGG57rrr2lyFfxB5CVdA4VPE6rELLrjA4W9jgvPyrbfeaj/9PZjyTL766isHWWFVFr5NyOTJkx3LyVlpBiFqr5Ae+Y3+xWm92vss3S8EQgRYbMAqRknjIyCy0/jvUCUQAkJACAiBDBAYPny4X6WYQdJKssYIiOzUGHA9TggIASEgBBoDgREjRnhH+8bIrXKZhoDITho6OicEhIAQKAEB/LAICInZD/MgZj2W4rOajgCL+E5h1sR0iXM7pkDiFGEWxSeJOEvmIF7C43RJjRB48803vV9djR6nx2SIgMhOhuAqaSEgBBofAeIN4XQOecE/iejVBx54oHdcxSmdMAI4fBO8kdV6nTpt7AdIVqqxzQWO7jic41T997//3d+Hs/Xmm2/ul+/b/QR2XGWVVdymm27qAzTi4I0P1S233OJ9v9KW5Tc+yvksAeEc2C5G0vgI5J7ssJyXcPU4ctL46VRuuOEG/5sAbRIh0AoIFFu+3QoY1KKMhAjAiZy4PyeffLI3YSy++OKOP+IG/etf//KhBnBGJ+oz0ZxxAieEAH1VpYJz9/jx4/2WImh86PMgOkTKZrUbwSrp+wj+uN9++3lnciJuE3Vakh0CrFTceOONs3uAUq4ZArknOyBBPA8aevSPDkciBJoZAeJ8sOsydZ8Z/4MPPljYlLSZy12rshERm9VnRL0GX0IHoGlhuTHbhGByYqUa2p16y/fff+/NXtdcc4375z//6dZaay0fJoAYSQR7ZEL4xRdf1DubTfN8W3aOxo6VheG+d01TyBYqSEOQHSK5UuFCskOcEmKT5FlQOzP7Y8ksHZT+4jGAtBJZmGil8ltwXkPAsnc0Cez0zSajtAE0mszwGeQwbSjOTGWtn/23MEkdcMABntgQE4hNTiGS4NxIdZCyEEySPmannXbye5yhibj00ksLgR0rQ6k170I799hjjznMjLQ9AmwSSJOdz4l7deyxxyZu0NuaiDVOqRuC7AAn+/CEZCfPWh1mAJjcUH1j791///29+hsVuP7iMSDAHQSWrQtw6GxFYTfx22+/3ftxMFtnAPvll1/aQMF+XGgbNtpoI4/XJZdc4pjxS9IRIFYPBBG/GQIogh8BIcMd3tNTaIyzP/74o7v77rvdvvvu65ZYYglv9iJCNhrCPGin8ooiGj42ySWCOW3vP//5z3xtj+1hsDIQKBMC9MYbb+S1OMpXDAINQ3ZC7U6etToQHQZs9h2yAHIxuOtQDAJ0OGjCiCjMQNQqggbwiiuu8NsybLjhhn4FD74jxQSfDfbtYVBjW4owOGGxe1vl/DvvvOM1OBAcTFMEWGTVVCsImj+COh511FGeGK+99to+QKQ0gv/39ml7RAsn6re1vWLBKidOnOi6du3qtYIEHATjRtIG/l/pW+tbw5AdXov57uRVq8MARch9tFDtcVZsrSo4f2nxkWA/pl69es1/somOEMmYlT1LLrmkX7WD70glnSYrRlgdhL8JnwzwrS4s6casIyL4V00wjeDf/vY3P5kgQjdaoFYVCAs+WeafRaT0ctseJkRW50GU6PcJK1CMKLUq3nkod0ORnU8//dRXrLz66mDzZz8kqYvbX7UHDhzo1cl00s0mrN455JBDPDlhZc3IkSOrUsTPPvvMryDCfMpAz0qhVhLaHfFrNtlkE6/JYNsNmfja1gAGdEg1S+IZ6DFxseVHqwgxjZiMYorC1EfQwPZKaAIjdACT8WnTprU3Wd1fZQRyR3bQiBDICd+FM88809tGmY1guqJxUkn5ZObP6glmsuxLBKv+8MMPqwxPecmh0sTPQtJ+BBi4WGb7yCOPtD+xnKTw/PPPe58RyMgJJ5zgIO9ZCAM8vjy0GWK+EKKhGUljiB3+E5iPqTM4u+d1QhTmud7fIdkM+PSprDZqZq0Eix9sc93jjz8+Eydjxi4maTg3L7300u6ss87y+8TV+z3r+X8hkAuyM336dHf//fd7xo2/Bl7wOBKyHPT66693bLSIqh4HMTZHhJ1DiBgIWeGEMzAzFbzl6ezwoH/yySf9Dsy1fNE8HxOMpDoIHHfccY5dtxtZIG1o/CDmyy67rI+dQrTcWghRfYnXgraRFUcsTa4lCXjmmWf8svkbb7yxTXEvu+wyv1qozcEKfzBAM1BDIJlRNzupqxCm1NvoTyHF7CbP92YR2h6RrFkkQtvr3r27j4dUi/K99tprjkUXEMkjjzyy5cYF2iFL92n7rHQkVhQBOBnbGSfxocPEzIQMTSyhFGjHxLcaN25cJq+ormSHQGkMZgCAcxjfAajSDgvHO1S0OGvSuduKFshU1gKrZ7UYtmBJdRBAs8e7bESBaOBzBNGAgNPoa0k0QsyihKtWnT5bJNAm6NjCSQDO+/y1V/4apDv5gZqJkKRyBPA3pF5AGvFDoc40qjAOsPKOEA1G8gnaWA9hco6DOKSnc+fOfnyrRz5q8cwffvjBkxVM82i2sL5A+PCNYtLFggpM+GCCVhtLDEoMgmgyUWFZP0oLsKLfJKgn43mlfCBa5rqQHRy7UOPD8KgAr7zySjRf7f4N+SBWyRZbbOHJFHEnSlnhUumD6RxEdipFL/4+yA4VvpEEExK+ImZCIp5LtRprNXB44YUX3C677OLbHur8rExp5BWy07FjRz+RwcRrDqBRskMUYIgh8YRKWQpO22ZAZmBmgM6yXVcD80ZKAx8Wll9vvfXWPqJzI+W9rfm2U67Mt1OmTHFnn322JwHEz2Jsoh5nIYxFBx98sG9Plj5thLhSWSzuMV9BNDWMt2hu33rrrUJ7tzyU+slEEYdxLDsoLKo1Waw52WGVBAXATBXO9koFopLrIFOoaFHVZqWmDckOswii3rIhYChoKUqtbGYCCMPBEyuEdIcPHx4mW9J3VguwXDJJIBX4RuFYxzNoLOEggs2b4+GxpLSqdbyRyA7LmWmcDMDshUQ9z7Mwwzr00EO9kzR+G9Vykg7LDNkhGCibY3bo0MHHMeF8SHY4x55QDK7kh1ldWj2FMB1xxBGOZdTVcC4N82vfrS3UQ7uBFhon1x49elh2av7JYENfBWGvVR/dnkIScoH8Mtjm3TGfuFnE8GEMxKxDGyG+VrUF31Em32hOEDRdtMFSJhOl5oUwK4wTrAIlflwWq0Bpg+YGsNxyy3m3lUrbZc3IDp0Unv84F+N8XGvBto8jM4MRKrVqS0h2iN1ARSOmRyiQrYMOOig8lPjdTADhSglm4aRLhM9yBXaM7TRORo8e7WfgxIuwvPOcq666qnA5gew4lkXDLDwk8qURyA6dCTMmGjzvtpqdSQSOTH5Sv2iXLH8nDk0lS3CTMmZkh/P4X2GuZg+pkOyg4aVumnTr1s2vuEzq0CCUmCeYKWchYVvIIv1S0sTBmn6y3tsTEOuKZdVZav9KwSPpGgbXRg25wHjEohomoZh7iLNF31stIX0mBDhlQ155j/gOmTA5u/DCC722iRh2CBNZFjPgA4uvbJpGGgIC+QD/WsX3YoEHixDQHlXi11MTsgPRYUM7wK93QC9mknS6vMxqSrlkB7slMVaif7fddpvPVilkB/8gc9B++OGHC1oXND8MGqhNrSIyoDD7gWiedtppfsNBKz+mRHZjRozsoAnDzMjmhEiU7NAwIEcQKDRYLL9EeB6mBXaJprPEfBj6MeFbQd5wRrNZB/UD8wozamYkRqjyTHbQvIEZs0kwMJw9CA34j/dOcDU63mrFDAnJDumTNoSQfZzMZ4fOi2i0JgwAkGrrgO04n6xuYbuMLPd/CtsC2zBQlzG7I7QxVPRx5gcGBgYP6oUJ7YPrk4TQAKRvf2z8ST9CWsz640y4xfqNpGdVepy2CubEhMqLgFsYQwkzSqMKfR8TDCYaENxqhgJgUkxbwm+GyYxNEPCdQeOKGXuHHXbwGjzqHG2PPDA24utEGIeo0O+jgUXrh/N3rQV/LHyA6HfJbzlSE7KD4xFEZ9KkSeXkLbNrsSdCeNhrqFoSR3boxOnw7Q/VpWl2IAMQwOif5cnIDr4Jdj8dJ5XXNDs4c2F6YpkxmgVWtKEmpWJDaGD1qBcRyA5lhsTQkZKO7aRNxWVmgRjZIS2uw9yIhGSHzh4HMtTtNBg+aRwcxxxC2vzGUY1n4q+BMMMgbzBz9prhOyuTmEkw82AwIy3qC5I3skNDD7dqgMjhlNdMAtGkvvHuqa9xYfNLLS/p0KmaUKeoG8wI6YAROneeQ6ePsJKSuhUVVmlAluJIUPTa9vyOtgXyhlbq448/9ia2tEkSvlBob03WX3993wbsd/STFaMQGv4YZGgrNpvmmaxSiUqxfiN6fTV+o32jn0FbUC8BF7QO4Ms7asZtUug76TMx5UIoMDW3VyAztLmQdKPhYUKDFpM6yHkWBkHWqYP4E9mEM3w+/R9jGvWy3lrHoUOH+jbTp0+fMIup3zMnO7AvBrBwdp+aoxqdZOk6Jq1q+SrEkR0qDoO+/bEqxchOsWIa2TEiQRorr7yyr5hGdhggwBV/Gsgk9lM0J1ReVrYZk+dZkB06LIQOk2twnsUniO+WppEdflOhOEcnE5IdtDAcN80MvhP8Zv8dVMt8N/KEsy4+GaxEsoYFQcA3iLqB5gic0HDR+Oj4IT6ULS9kBx8sBjlmuOB86623Nv0mnBBX6gDOlKysQEsY1qdi9ZfzUbLDMcgz9cPIDmY/2gWdL+fwK0DDFAqmNvLAyowsJdoWeBbaHQgbTrtMHoyUxeWDQYKyscrE2mEpecY5m2eEQSCZ9DB7TXteXB6yOMYgx+aiuAHUWug3CJlA/2cb4DJpambBbMgkEs06BJr+tlJhn0HqZKh5RptKn0vbtr/+/ft7EzNLxOmvOR9qKSGbEB3qQV4ib+OLyySBiVApkinZwTseFk4nkEeB7TJTsNlUe/IYR3bSfHawOTKARP9sE0wjO2k+O9hLiR+BSQBSREVFUIdznIEDEoFAdpg1I5icaAB0skZ8bFO7kOxwLTMMYh+xdJp7YPyYp0jbZnp0SJyD4BjZsQYKoeIcWiTU9VTOUGxQoCOzhscnJK7eZIfZCx08DX/zzTf3Zgzec6sJsz7ICTNOltFiSilFmJlG2wDmEEyVofM+TrD4h1Fv48gBnWzob1DKsyu5JtoWLA1iJFGH4/Jm1/AJKYCoUw7aCG2yWH2hnTC4RHHCJ4JnRsNmFOs3wvxU8zsLO5gc1ipwK75d9Bf0Y8TJwWRSDMtqljcPaaH1tr6cOkidKBcDJpTUo9AMiaYO8o5ApmmL9OWQSIgM4zbaGzM1cx0La7gnb5psJvql1stMyQ7s1GZweag80TzwgmG5OAS2V6iEVCoGaSMM0Q4sdFCm80ATE/3DBwcpRnbQgvA8yAQVFnU7ZIcZOTNwOl60O5AS7JyQHXNQ5hz3QnYgKlyD5gaxvJumhwZHh4PpgXsgO/g98Z1PhNkvv9H0GNmxcAJmuoDsmGaH/NGZ4Q/AQAchplEj4GerzVDlQ7ZqLZgsMKUxs8LcRvkkzg90kA5ID+2awGlZC4M7zzOTa5bPi7YFnkU75Pn4iKDVQ8uHVhJiZGQ/zBO+aJiv0FSZJiTpevwXaVfs+RcVtFu0i6gU6zei11fzNyZ3TM5ZSqjVQJPGYNbqQp0z7RYmXhbYlKrdiiM7EGz6fExcYEw/Z1p1Jp0WOoP90xC0Qrgc1KK9V/KuMYXj81RMC5oZ2WFARfWMuSjPQmVg1l6OwHyjUi7Zid4f/V2M7MDA8dPZZpttfEcMu4XsYEpCJU7MEnxlIFhUgiSyw3M5RyeNRMkOx7CLQmaM7JAenTnvd//99/faGp6DpJEdGigdOIMBfjtojBhg0DjR4Oj0GVCYxVB/8BuBaNVK0G6hRWBwIy9onSTzI0AIBPyreP8sGSdEPiQ7C2H1VRwZyOJZpBm2BUgvpiRmtcxo8RmC7OGoTFuA8EQFZ1lrK7aKKel6iDTXUucwb/NnS73ZO40OPE9CeWmncf1fe/OJOwEhEOjTmOBkFSKkvfms5/1YIJjc0tfSj5ay9xt9GJpUfDlDgbhwP4TGNLVoETGfQtLRYtIHI9RPiG5eBTLIZN8m7En5zIzs4O+Bj0mUbVn8mCxDyCcVNu44mgvIQTn+CHR6eISHTloh2WHGRwUznxZ77l133eU97+132icmANLgRZpARDhmnSjEAidZVLwMOGYuRCuDCQiTGOVDICxmWuKdkA5sHmFAgViQb8u7PYPzXM9sgntMjUrjwXcFksQKL0gLgsaG68wZnYbEbzuPlgmCyUzF7Mg0Yo5h0uM5prrfcccdPSHyCZfxD/MkUTmjdS8uCa5h1QzEEBMbMV7QLiWJ1d9qxT8Kn8NgRyyj6F89ZrfUIVZNYSp9+umnw2wWvlMHiAeDuQYVd+/evQur8goXFfmCdhACkbSUFPIR+rIUSa7dp8O2QB9GP2V1nrxSl2nX1BWrv+FDqU/4lzBrNoE0xV2PWYL0wj/MDUxkIPmm5bV08vDJAgfIW5KUQ1LAKlyJRJ9KHxmt/+CHmMmCfi8rQfvMu0qqj+U+Fzyi5bHfcZrBUtMPV6Th59ieFWloHsNxJswDKxExs8bV9fC6en/HioJ/U5pkRnYwUcSpPE1jkVUI+bTCJp1j4zYG21KFxsCMDG0KKjRU7CHZKTWdvFzHwI1fCp1ungTfHXOqLidf7LPC+0F7lGSCoqPBsQ0NFX4WrHqzJcZpz7L6m+ZLlXY/5+i8Me9FBeIK4UPTiJrZ/LmMlEavr+ZvBh20hAh+GeCHKY9ZHbP5NGzAkvZjWOJ/AzEvRcwkSnl5VqgJZjLB8bRnl/KMcq4ppS0wEWEmGfX1Y0kv2gkmT+FEJ+n6pHwRIgJzhYVzSLquHsdxTUgL+ogDK+2OiVeSti9aXzDZWX2x9oW2F+00f0w+wJq+gB3LsxY0aub/2N5nYaq0dsy4wbZI/KZcRqLb8wwc/Flxi0aMiUlY70pNlwUmaNnR6kRXYdFPFeuDbQIIiUMjiSbUzGy4J7Cwo1JhEpVW3yxdJudgYBNlOx5+ZkZ2mKUygESFytyeEPIwb2b/qOHwQWEmEL4gtBw4YOGHg5YBAQC0HDQgNhWNiqmQ2ViUWYv9kRZ/zMD4I+4AfwwE4R+DAR0Ux9K0AtHn5uk3OOI/VI0GWK1ygSmdK5ijaUC1inZq2LBhvlGjVqeSgzkaLDQNDBD4k4TvB7u0EQZmMTRG00ag8SpnULHOuFyyg0br7rvv9qYJ6j+hAZKEiQJEOhTeC3mlbqNNsbpt7QGygjYPweTCNXQ0DLQ4elp8q7i2gH8V5ij8R7iWlWeYJ5l5m1kG7Vcx4XryYzFDmKmntQcGQ9px+K74TvwiZq7M5NHs1FqKtQX6m7gVKbxfHLijBDvp+rhy8X7QqIUrYeKuq9cxtLlpM2iIjr1P/CGZUJgGg/Zp0YNNExj23ZQprn1xnHfCYIYJFXypp0aC6a/R5obkihWkPMsEzQT3hBpr6hjH7I/2QjuDMFCG0O8wGg+N37aSt9TYRwz6oUnW8gTBJz1WpmJWMk0u2hbyZuZ02hf9H5ocJqYhdqTFeIjZFY04xLtUoT+1dwaJ5x2YCYv84vuZJvbOcMpnjKooIbIAACAASURBVEUTRKBVhHuxhFQqtH/zNS2WBnUqbny3+zIjO8yu4zQFAMPMhxkdszZU30gYVZVzABYXQp6BAF8BCkYAMNIwB2NMF6SNzReQYJo0NOybdMCoqBlooqH8uZ5rmJlG/2Di/MFu+dtoo40KFcMqCJ+m7QkHQQNZn5UhwODNOwN3zGx0FjQc3j8dX4h/Kd+Zddp11JWwcyw1h9aw0+IfhWmhnaBzQnNG3mn8xVTOcWQHgk+ZWfFGHUULgkAoMHmgnaJTYEChw0MzgJ2dzosyM0AktQXMNaRJG0BTGa7coBMmPQaZcgT/J8rMs2kb5IPZI8cgcrRDexdxn/hNMaMjX5L8IADpoA9kEoiPBGQGAoRZGoId9y5xZ4DAcg4THxOXpLZn7YtBHQ0jfwzy9AOY0BC0QNSntPhHtuTa4jLhn0I9Dmf+EHPaJn/UUeqmaev4bmZEtJbReGj8ZpUiwqQr7rzFTPMXOef7r5DssBADTCgLmiQzdxJDCGFCw3n8dJCkeGT+5P/+MdFBQ2zvASJIXDmICIQQrSuTPcw+mGjZRgLNkF1vnzgq834JB2FjdPic8Lu9Mxv7GLcZM5Eo2UFzysIYNFvRaPNxioqQ7MALIH8W6DbMA9+Z1JKXJMmM7DDDIWNRITMQEoTKSqXipYZkh9lrOKOj86czh3UDHi/EKjGdoS2RQ8UJq0UAkkpCheZ6tALM7hk0o0yRgSMtWJhPMPjHYGuVgkZCOXmJHEubyQZJ6GsJCBRbek6HyewGbQ11iEGaekGdsvfDJ8SZToaZGGSBusUfJNnUrSVkx19iDRvNEB03f9H4R2FazNDJA521zXDD83Hf48gO1zGThUTQtiAMzL5wFCZ9M/8wkPB71KhRPmk6XH6jQcH3hu9xbYHOOqqupjOkrZovWFxeo8doo3SwmOJ4D8z0iOEBDsxYmUWSVzROzIjJC3myP55HXmhH9dLsRMuk3/+HABHebWLI5AFTMxNJ9oNjwLb3GH6y6ICAdfS9kFjeb5JPjLWv8H60tpAlC5BKbiDv1BUmvQxyEKJQ8BGkbzbiwKII9lSLk7g4RwzYITGJu6/cY1HNDu2ActKGTcI8h2SHtk57YvLBOAZBY0wMy01/yCQO7RpuIoyHuFgwmUHTgomVsZL3BIlhhSGBaUOsw++QMIhtMRcPe2fgiA8n/a0pOkKyk6bEiFNUgImRHXyfrD8xrKKfaPSZFCZJZmQHAMwHIHw4x43swNCZ7WJGKjWEPOCFK3S4j8aG0JiifkIwWl4gFcDiuISVmM4Z9T0volSB7FAp8Vq3uAOkw3NEdkpFsfh1xchOUgqmSme5JJoPm3HY9czesEXTWdNxU0cgq6WINewwTVTjvHuIRlS4Dls6Whk6ZmZUVmei19rvOLLD7JnGTieMjxnPo0Ono6Qu2kyZQYVzRqzQYvIbspPWFuLIDp0pZsRSBDMdeWRgo1Nn8pDk9Bimh/qd/PFH9NhwEDSfHcisJB8IFPPZCQkPkwDIkZlEKAFaEEgHpIe+G/IbirUvNDrUH/4Y0JnU0pZDKRb/yOLJWCwv08SEaaBBYnCOhgmhLkKiEMi7+d2En+YfQ50Nj9t3i5lmz0siO+ECANoy7RSh76BdMGm3MsTFI2PCB86MfxAUyhJqsOz5SZ82IbN2yDPMvM87imITTcfeGf0Skz/GU44hIdlJU2LEKSoYUyE75IHJJTzB+rloHvjNIhM0j0mSGdlhdROkJjqIAIKRHTJlcVgAyGLypIWQD8HjfrQyRnYgMUaweIGoLmG1vERmkggVPozZgV0W9XoaiP7G4B8OddEBqxjZ4fn49jDoRCXtXPTauN/YmqlkpQhaqFKvLSW98BpYPZWzHEHzRgMPBzm7v1Kyw6wFDU6cX4WlbZ/UD65HU4IWwnxb7Hz00xp2qWTH7me5LgSATpuO3jo0Ox9+xpEdSFlouqJOG9mBlJiYpsQGEeoG11Lv6NiT2gJkBzIWCuY2W0UXHg+/m9qcNsQsENV3OLiF18Z9xzzGDNM0U9FrqE9pq7GYEUImIYEQPUhXMUHFHh04i93D+XLaWVJ6zFB5NpovHMDNHyPp+mofR1tGXWdFE30kpv6wj+Z9cAwTS1zbLLYaizoKKccElKY1ZbUm7Zu2T59NYDtITVz7AgNcFkyDz2+uox2F8Y84Dpmy8qDdp76j0YAIIBBnrmEykBbniHKijUV4VjQeGr/NN4t3GnfezGA+kRgzlml2rK1yHZMF83eB5JB/Phlf6AOogwiTavxy8PFBYYBWloG+nLZn+TLrB30TzzJTHucx19u4bNdHP6PvDDMZ+UbLHo7XafvgxSkqeA7tn7T4Q6uVJJA7JpRm8Ym7LjOyw8OYYUfNQwATkh2uY7ChMAYqlTQphHwIHveGZAcnStJmdsEAwAyCl893Bni0PjQQC5bE/XTy1YjOWozsROPP8GyTtHN2Tdons/twwEu7lllHqdempRN3rpx8hPdDVnlnUamU7PAuyhXMPswcaDD4m2HnjpNow+aaNM1OXBoMJGl28DiyAz50asyAmBjQXuLIDseo6xBr2h+zSa6F7KS1BdTO+L8xYaDzNhU6Nv04YTNOc4jExMDAmYUw4ISa2PAZ4E6eMYfjjErbtkB+4XXR7/gz4fxeTMIValxLRwphrFQYRBjMIDpowSCHDDCVDFCV5IHnMyhSh5BS6nLYNiEJ1CsjE3F5gGzbyqq489FjtmAALRCDIXmjvoaTCe6hbwE7BN8W/G8YVCHbtAv6cMgS9zLJNQFrjtliGbQ0/KYsSXGOmPhSTvMFtbTa+5mk2QnJDtoPxjBIHKY38ooZGGEyRr4gbxBK/N54P2iGQnNWuflk/EmKlQVOkOO0SUS0HlG3yTfOwuF4nabEiFNU8B4gO5A/iCNtPepva2XF1B6drNk5+8yU7DAjw+QTxrBBixFVi+FrQWdbSgh5zE2AacI94e6sNBIqNs5OpkZntoLzHJqHcFUJ/g80mmKzeXtW2mepZIcVG2hXcCKzOD1RskPnRz4ZTChfuFqIMuFkxiBAw+W5IcnAr4MZLpU3TozsoOEifWYD5tVPg6Ezxx7M+7DjPCNuJRDps0oN1TYdDyuMQiIFruSFZxrjjluBEF39YPmulOzY/ZV8MohTDkxgxEoJVcykR/0FG6tbHKNz51i40qOSZ9s9vBscPkOBfOBDw6AOWeJ51BM0k6iwTXiH4M57pX7wScdjeUtqC8yMIDY4MYIBpIln2Co2S5+JiC11pRMyVb6dr/YnGj9ITKiNtWeAB2WzdoSWjmW0JuQdR0gGLbuGcyHZoX2Fgxr1nJU80RVq9FH0Z7Q9Ewb9OGdLZspxK0bNLGHPo03QzhlIuIfyoC2gXTLDNhKU1v7QDEGO6dvsXSS1Y+oCZJ46gEQHKY5FiXvYNpkY8peFoGnB2ZnBDW0PhMVWW/E8cGGww++O9wxW4IIwJlBXIU4M/vT1Jji5Y6ayMcicgOmHkuIc0W64h2urKZi1wkkBdZJ82/vgWdQF3hP1jDrHWEmfg/AucMWA5BBY0DRL1cxjXFqYtYxwxZ23eoTZD9Mi+cOkxPsJyU6aEiNOUcGzqA+0B4gP7xZSHLWqcB1aP8aZNMmU7PBgZsvYP/MmdCTMrKKbDlaaT14sHW+Sz44RGhg5DqawdjoeOkw7RwfLS6UzxkYJiTBHWI4jqOwxGTADoFLRMIzsQE6oEMyQkmZfVAiei22Xa8kzHTaS5O2ftBIIEwL3sxSVP9I1soOKlRkKZYA0oIJlZhm3AoFnm+rbZ+R//+pBduz5NCgGfjPPQFJt8LFr8vhJ/QNLZoYMGMwm05YKl1oGZlQ4oTLLg2hXY4JQ6rOx2dNmooL2jTpGW4JAWABNrqNNQJIwL2Am4TqbQYdkh8Eb7YoJDptoixlQOU69tRVqYced5mwJ+WCSx0wzumIUdT2DOYOwOZHzbH4za+c8ZeUaNN5IUvvDTAQpR4OHloLvYJDUjnlvtqKJdG2QKraykPqECYF3bxGefcYy+AdRY+CzIJ9gaQFKeS8M9lyTJGDOZIF7rA6E2j6IA30ffVGc0IcywPLO8yJRU3vSaqSs8gspRHuWpLGzCSDEjcmCTWzJDxrlcDJG/YHIYY5DCxhKnKICgmjaVFOKRE3e1Bf8eMP2H6Zr3zMnO7BX2BgzrLwIgxYNhw3mzJGzvXkrleyYCc3ilzCLDMmO+VXYLC3cUZy80gla5UF1R2WiUTMoExsFE4Z1DnFlguxAUMxHhg6dwQRMrFOL8/aPWwnEkn1bYsiz6HSN7KBWJm3SMpswnZDZqclzKHGrH+pJdixvzLTAGxV6Jc5/lk4tP5n90t4wCRA7Ks13Ii1fDAhoGMyRG/KURKLT0mnvOTpByEO0cyRdNG+swITMQLYZwMk3nXM404P0MdgjpZAdroMIhSvUQrKT5mzJdbQx6/RpB+ZvgtaMtkFb4xraHvmNtkvU9pjyTYMY1/6sXUHM0WqwaoaBMKkdR1c0GdmxCRV9B301+Qqd7SEYDCZoj2opTIzopyGtmDnMxygkidH8mAYHDRWaR8oYasYhM2m+fBAL3kmoVYo+oxa/GU+wWLAhJ2ZrNOTFBvMs84XWBh+zvAntg3qb5hZgec6c7PAg1IE0olo3Fitk+Mmgjs2TDjyt0of3lPK9VLIDC0WYndA5M+iHZAfHVdS1RsIwJ9D54HALceB71GGTNDjOHzND7kkSOlVmqyY0bDQ8ad7+mA3pQKMrgZhF4d9iQmMwsoN2iXtsBRyfqEKN7ETNQ+HqB0svD2TH8oJmDeIAoaNc1OXQNGLXNcMn9QczATNc/tD8VUqYqoUHMzwIjJnjoukyEDCYY5ZmpklbCKNU4/NkWo0o2UEzZEI9ZYBF0shOmrMlZCdpxag9h34IrTL5hLTQLtHsmNYCfwfO0V6S2h/mcCY/oaS1Y0hX6JhtZAcyaRI1Y3EcvHiO9Ul2ba0+GT/oW8CH98j+f80qtDO0lNb2+J7Wn9cKB8x+jBtRp+taPT/uOeCC1QANqLWbuOvsWE3IDg+jwjIQolZOUodZprL65IWhpsbeGWf3a89zSyU7FveBGCN0ZvgMhGQH9TjH+USwy/IbTQ8dJJ2O+XNQ8TAlQXYYgJkJ0SHgsJkkdKpGSLiGjh2yQ/6pzKG3P+khHLcBgM6S/FDRmG2FTmEQSEubma+doyJSTjpLIztmUrB8hqsf7FieyI7liU86WzpdsKYTrrZtP3xWLb9DGJhBMpPE9o76mnqRF6E+oKFBnY0wAUA7azN36ibvBG0cWjgzRUBU0XxS95GQ7EBa0RxQN5klMgGxug7ZsTrMfaFmJ83ZMryO+6yNoaVlMmJ130y6tGHyRrvCIRTBp88IRlL7M80O2gx8ujD5YCZIasdxK5p4ZhrZAXOL2eIzVsd/TC4wSdHXMelg8mHm/TpmqyqPRmPKRJd3Rz8KUU8ytVXlgRUkwmSbvgH/zHoLpBCiw1+pE7GakR3AoVGyrBG1aeioVQvgmMXQeTAIm2q4ms8tRnbMHEWni0obUoBqnryEZAdiwAyMc9EdxckvK8woh+3/hGofsmMkw4LIJYXNTiI7pG3e/pAYzDa2+3jSSiCegfmAjodBh4bKH4I5Dg0VlREVKIMQjSWO7NBhcd4cN30CzvmlqThL51WYRYMVgyUDGg7vjSiYPmgX+GTg3/P888/nthiYonCYpC8hFguOpBAIZncQFdNcmIYUXxbOc86IREh2WIrNgM8EiOOQJPooBB8E6jDvmBVqIYlJc7YMryMdIzvUc8wSDNbWppjBM4mhXeKDhwYcbSvlYp8hxK6NrsSjk6e9oZmiDdK3MAlJasf0E7aiiXSLaXYwW9KvgF20bfqM1ekffSarfCG+lAczMwS3EQXfN94XbY86jBktz4IJEcLDJK+cWD7VLBPtmHaE4qIcrVdNyY4VGJU0g3nWHSsEhNkpgzadWNT8Y/mpxicdGZ1mkoMynTOdJzMvPOxx0jJHM2ZlnDNfG0L+o7pm1hnuKG75xPeFmR/+Oki4IgeyxKoafIHihFml+fxwHo0LK9cQZhLY/el4cYq0ypy0Eoh7mBVSFmYizFTDTpH80WHip4QmC4lbgZC0+oFZZSlLhH3CdfzHe2NWDQnFsRJTZSlq1Tpm2T8a4gmhZjBjYIWM5l3A1cg4vkloa6nPaDkhICHukHE0AcxEzUeN8uFECckxsXqKFpXl5tRHJLpCjevCtpPkbIlWNmnFKG2blZLmoGmzUtocZjraJ9o1nmMaq7T2xyBPm0XbCxZIUjsOVzRxnTmWhpM/tO44LEOsIFL0S1msTPIZbec/SCILB1hoAtFjQUE1XRPamb3U23GuZ8JK22MRT5ofUmpCdTiJZhU/OYh6rVaEUUzGc9o5pmrGxnLNqnUhO2Q8VJnD0miw1fKBgC3D/Jmp8ULwPyiHAVZaf9BO2KBeaRrVuo8BmCXC4R+NKm+StvqBlVzMkhtFcGpkoGA2zGw73AQxL2WADKANZFbE6h1W2ZhZKC95LJYPOj0INrNhSAODXqOLkZ2sy4GWCb+kkBSGz4RA4o9ENFxm0PSfZg4Mr8vbdywF+GxRpwkdgSN4HgVfRbTdec9nMeyoP/jyUQ7Mo0y4sxJIPwoS+lTMymF4iXKeWTeyY5mEhKANIPgTJhG0MHRgVF5WMxTryJjZ0CjRUNBxo7LGxgzzjEaDtGdm9UkHYf40WT2j2dJNWv2ApgxzBZq5RhNrnAwamCXQLLBapp5COyJMAauL0CCUGmG6nnku9mw0E8zq8XEwE1Wxe/J6Hud9NFZZCxNBzHRRTQL1g34XAgmRhFAmtc2s89ie9NGYsAorTxoTsI1qoKrtM9oezNpzL/GvmJCaHxX1GE1kNQQ3AawCTB5x7UAhUq42J8xH3clOmBm0PVQKNBAwOEgLBIjZBU60xA7B/wMiw8ogfH+wqdNA6cSxI6IiNvNLmHYtvmM6gmwxUEvahwDOl1TyYmS3fU/J9m5mP5Bw4rxg4sIsFwYQy/bpf6VOW8AUgRmXuolZFG1aswidH50tqm2CyTFIS8pDgEEF7TrEsRFMmaWUDlKHf1c9fWFoe83iW1QMcysrvpuM2XxijkWTxQKOYiSFySC+q0xuWWBDf8W7Q2vEWJCkiSyWr/B8rshOmDG+03GhjsRhkj13MAvgVAfDQ2uD7wq+MNUAIvrsSn7zQhlQeFl5yVMl5aj3PSx/hchGI23XO1/teT5+HDie4syMkzn+HllKdMZFTKZmJuH4i9H2mBjhb2a+MFli3OhpowXBZ4s6CWEsNiA1YnlZ5YTfIP5Htsopa0KMOwY+JabtaKZVY6XUATQ7aJFxoUC7jZYN53vaJkoKTOgoLFBgYNHh3eDvCl6QJCw0BKWt9qQs12SnFGDzdg0OyqwQINJx6BSZt3zmMT84VuIsDdFh5UgzCnWCCLf4d2FOqLatm/RZMk36WdvS8/Z+qD84yjOo0YES5qFZzAXVxDr0b8EfJ1x6Xs3n5CktyC8+Jgy4/OE6UW0/zlaKB1TOu2WShV8gK3RpnzjvQ3Sw4kAE8RNjo+SsRWQnA4RxDia6MDMmXiorG4iaqr9kDLCzQ3JsZp7Ba8lVkqHmBYfR9mpeaq05yhWYMZlh5SVmb8xb7K2TV4fVmKxncggiiJmdeFasXMIXolFWLlUTELQ6tkLXIhO3Nyo4ISdw/Ka/x+8Ks6AkGQFWEqPJIZxDLUVkJ0O08UHC7IYzKKpU/cVjwAwcfwtWCTWzqSWuqmHrxlxXiU9NnE+QhS+Ie1YrHiMYpzmsMvHAh8KWaDc7HpgB8HdA0wfBweGfWXWjxqSp9vvCPYLYNviGEOsGP59ShbaXtIdXqWm04nWsWMVcBdnBhFpLEdmpJdp6lhBIQCButVRSpPE8rvZKKFZuDkMC8eVhM1MWPuCMS+BBYvM0k1Bn8G9k+xWWBaMpxQeCeChZ+6o0Ko44ZRNnCt8SBmB8mZIEvyZ8R1kGzQIKQk3Uex+tpLzm8bhpdSA7tdbuiOzksUYoTy2LADPGMBZHGAenEeL4NMKLA0dMOgxsrJJjI0Fis2DeINxFIy0uYBULRIYVd5jtCACIqQotcnR5eSO8m3rmEb8S2hskkVg4tEOrC+BMCAlCSeB0S9wXC/pYzzw30rNDrY6RnVpqd0R2Gqm2KK9Ni8DceX+6Wb/Pcb/+Mcf9MWeemzP3Tzdi5F8RjvEFYPVCo0VoboSXhamHqMlsl8Hya2b34IzJC+ddtCSsnMuDVgQnziFDhvgoskTfxSxF6A183fbcc0/HVjGtYqLLsm7hy4TrAfGoCGmCGZA6QQgJQkkYAcoyD82YdlSrY4SnVr47IjvNWKtUpoZDAKJzRv/33Il9xsz3d3LfMe7/W2sjP5g1XMEaLMOYKTBtMXMnTgt7TrGyDUdngoaynJb9t5jls7wWR2g6a/zz2jMIsloInxEczdkYFJMbQf5YuceqPfaBYnDALLXvvvv6HdNZVVWtAG4N9ppqkl2IMHGp2Lya9yKpHAH8xJhMsKuBkRy+82f72VWeeml3iuyUhpOuEgKZI/DYm1PmIzqQn+fHfuc7iCz3dsu8cA38AFYyscIGLQ/RhTF54fSM9ofYPsz66cAxIWHmYOk7K+zYJw1zCE6wbEjKp8UXId4IRCq8n2Bs3M+gwOafaBS6d+/uiQ/OtK24eqqBq42ynoAA4TZYCVdrEdmpNeJ6nhBIQOCDSb/MR3Z6D/1rc0cGU5GdBOBycJiYLWzsy0aeRHHH/we/IAKgsvEoGoLevXv738QXId4IG47yTtn2Ag1Nq61EzMFrUxbqgIDITh1A1yOFQB4QmPDdTNfruc8c5qrQjHXRw+O8Dw95FNnJw5tSHoSAEGgvAiI77UVQ9wuBBkPgkynTXc+nJ7iT+41x9w6b6L6f/of7eeZsd0q/se60/451k3/8tVAikZ0CFPoiBIRAAyMgstPAL09ZFwLlIIC56j+DxrtT/zvWPTh8kvtx5uw2t9/3+iQ34tMf2xwT2WkDh34IASHQoAiI7DToi1O2hUApCLBSZ/SX09zVAz9xp9851g0YMcX9MqstybF0WHoeFZGdKCL6LQSEQCMiILLTiG9NeRYCRRCA5Lw14Sd3xYCPXZf+77kn3vrazfhtTpG75j8tsjM/JjoiBIRA4yEgstN470w5FgKJCBAk8I1Pf3QXPzLOdbv7fffUqG8KzsaJN6WcENlJAUenhIAQaBgERHYa5lUpo0IgGQEiH7827gd3wUMfubPvfd8NGfOt+232/Gap5BTiz4jsxOOio0JACDQWAiI7jfW+lFsh0AYB/Gxeen+qO++BD9x5933gXnh/qt/2oc1F7fghstMO8HSrEBACuUFAZCc3r0IZEQKlI4DWBu0NWpwLHvzIa3XQ7lRbRHaqjajSEwJCoB4IiOzUA3U9UwhUiAAbduKHgz8Ofjn45+Cnk5WI7GSFrNIVAkKglgiI7NQSbT1LCFSIwMzf5vgVVV3ues9d9ujHfqVVezaALDUbIjulIqXrhIAQyDMCIjt5fjvKW8sjQEwcYuMQI+eqgZ/4mDm1IDkGfIcOHdzLL79sP/UpBISAEGhIBER2GvK1KdPNjsBPM2e7h4ZP9tGOewz61L0/8Ze6FJkdtUeNGlWXZ+uhQkAICIFqISCyUy0klY4QqAIC7FPFflXsW8X+VR9Pnl6FVCtPQmSncux0pxAQAvlBQGQnP+9COWlhBL6d9pvr//JXfgdydiKf8O3MXKAhspOL16BMCAEh0E4ERHbaCaBuFwLtQYAdxnu/8IU7qe8Yd9vQz92X389qT3JVv1dkp+qQKkEhIATqgIDITh1A1yOFAKQGcgPJ6fvCF27Kj7/mEhSRnVy+FmVKCAiBMhEQ2SkTMF0uBNqDAOapm579zJurMFthvsqzsPT8wAMPdNdcc43+hIHqgOpAw9aBPfbYwy24YMead7cL1PyJeqAQqCMC4yZPd9cNHu9O6TfW3TdsksMRuRFk7733drvvvrvr3Lmz/oSB6oDqQMPWAfqxgw46qObdrshOzSHXA+uBAEvGezzxqV9C/tAbkx1LyiVCQAgIASHQGgiI7LTGe27JUhL0b9QX03wQwDP6v+cGjJzifvlVJKclK4MKLQSEQEsjILLT0q+/OQsPyXlz/E9+Owe2dRj09teObR4kQkAICAEh0JoIiOy05nufr9QzZv3unh3xkbvv2Xdc/8EjG/av96A3XZf/jnan9h3jrnzwbdfvycYry/1D3nFDRo5zs35rDH+i+SqTDggBISAEcoaAyE7OXkits/PzjFnupodedfue3dedcf0Ad919L7obH3y5of8uvWe4u+GBxi3Dtfe+6E75z6Nu/3P/6257bJib+atIT63bhZ7XFoHRo0c7VtEMHjy4cOLNN9/0x4YPH144pi9CIK8IiOzk9c3UIF8QnRP//Yi7qPfTbvzEqTV4oh5RDgIffvaNO+fmQa7LDY+J8JQDnK6tOgKYhrfccku37rrrurlz5/r0d9hhB7f++uu7OXNkIq464Eqw6giI7FQd0sZIcM7cee6kHo+4a+4a6ubOndcYmW7BXP4xZ667sPdTrmvPx10td1lvQahV5CIIvPHGG454T/369XPPPfec//70008X7powYYK78MIL3dlnn+0++eQTf3zy5MmuR48e7thjj/X3FC7WFyFQYwREdmoMeF4e9/I7491Rl98vopOXF5KSj9//mOMOvuAu9864iSlX6ZQQyB4B4qOsvvrqrlOnjd0uu+xSeOCzzz7rA8Udf/zxDo3P8ssv7zU+u+22m9tmm23cOeec41ZZZRX3/fffF+7RFyFQSwREdmqJdo6edeaNj7tHXxydoxwpK2kI9B88wl3S95m0S3ROCGSOwJdffukWW2wxT2zef//9wvOOPPJIt8EGGzh8e5588kmv9Xn11Vfdeuut57bbbjv31ltvFa7VbCjvkgAAHVtJREFUFyFQDwREduqBep2fOXfePNe5yx3umx+m1zknenypCIyfNNU7LJd6va4TAlkhgEZns802a5M8pGaZZZbxfj349vDXv39/b7qCBGH+QhskzU4b2PSjhgiI7NQQ7Lw8imXmkB0tbc7LGymej29/nO7fmfx2imOlK7JFYNddd3VbbLFFm4eccMIJ3nmZg9TRxx9/3P3xxx9u6tSp7vfff3cjRozwhOeee+5pc59+CIFaISCyUyukc/ScaTN/E9nJ0fsoJStTf5rh3xlaOYkQqCcCcWTnhRdecB06dPD+OpzH1AXBwb+H/dxOOukk17FjR/fhhx/WM+t6dgsjILLTgi+/GNnp3r2775yqDc3555/vnRSLpbvOOuu4U045JfaytHOxN1TxYFr+085VIwsiO9VAUWlUA4GBAwe6e++9d76kXnvtNXfxxRe7yy+/3H300Uf+/AcffOBXaF199dVuzJgx892jA0KgVgiI7NQK6Rw9pxjZ2Xnnnd2mm25a9Ryfe+65fpVGsYTXWmutRLKVdq5Yuu09n5b/tHPtfS73i+xUA0WlIQSEQKsiILLTgm++HLLzxBNPuJ49ezpWVqCKJsbGrFmzPGrDhg1zp59+uuvatasbP358Aclvv/3W39OtWzdHlFWTkBA89thj7rrrrrNTrnfv3u7uu+/2vyE0LGHluSeeeKJ7/fXXC9dFyQ7xPNCqkAebTRYu/t8XZposje3Vq5cvQ5ge54YMGeKuuOKKwvOL5Z/r8VHAARN/BCQsG7/j8vX555/7JbijRo3yn8Qj+eqrrxwmAMrJbBk/hzgR2YlDRceEgBAQAqUhILJTGk5NdVU5ZOfMM890Sy21lHc+3Geffbxd/vrrr3ffffedt8ufeuqpPmT8gQce6DGCSCy4YEe37bbbusMPP9xfYyapkBAcc8wxfqmqAbvjjjt62z6/ITTY/NEw7bfffv6Zt912m780JDvPPPOM9wOAKOy0005+Ncjs2fPvar7aaqv5MnDN3nvv7dO79dZbfXqrrrqqW3nlld3f/vY398ADD3hilZZ/zhFFlmey+oR8I2HZkvI1cuRI76SJH8P+++/vllhiCf9cVrLg58CKlYcfftinF/0nshNFRL+FgBAQAqUjILJTOlZNc2U5ZIdBnEH4448/9uWHFOy+++7uvffe88fPOussN2nSpAI2aGTWWGONwm+CiVmAsZAQFCM7PMeElR/sy4OEZIfYHoSrf/fdd/2ePeTzxRdftNsKn+Rnww03LPwmPcqAcG7NNdd08/7n+Fss/zzDNEjXXnutW2ihhdy0adPakJ2kfJFP7r/qqqv8sw877DD/G6dNVrBAntCexYnIThwqOiYEhIAQKA0BkZ3ScGqqq8olOwzCJvvuu6/baqut/M9LL73UExlWYZx88sn+GOQD7YkJpikGeAb0KNlBo2Gy9dZbt9HsHHLIIXbKa4iIvoqEZIdnkTfyY3933nln4T77AqFJSo9zRxxxhF3qyVNa/hdddNHCtg0WPI2NEMOyJeXLyM7QoUP983DmXHzxxQvP3mSTTRwRauNEZCcOFR0TAkJACJSGgMhOaTg11VXlkh00MyaYlSAWbAY4ZcoUHxKe1VsQnpkzZ7ouXbr4FVcWDwYTFmYbfoeEAD+bRRZZxPu8cB9mK5aoIhAaCINJp06dnJnJQrKD3wyrs5AwtofdZ58QmpBYkd6//vUvf5pzmOJMiuUf4oZWC8HPB7Ly22+/tSlbUr6M7Lz88sv+fsgOJkITnMJFdgwNfQoBISAEqoeAyE71sGyYlKpBdhiwiZuBTw/h4DfaaCNvCsL5duGFF/ZkBZ8bSBAaICQkO5ibIA4QD8xI+M7YXjv42Cy77LJu44039sSK68yXJSQ7FtsDvxn24EHr8s4778z3HiA0nONZmLBI79FHH/XXRclOWv5xuIaUkVf8lygnvjfRsiXlS2RnvlejA0JACAiBmiAgslMTmPP1kGJk55FHHnEW6RSH41tuuaVQgEGDBrn777/f/2ZFFWSnT58+jhVMJsTWwC8FjQ+mHhPicIRp8ZtdkiE+Tz31lHvwwQf9pbfffrvj3H333ecuuOACh8OvSd++ff3qJfvNdVxz2WWXJQYsg9DY6qnzzjsvNT3STcr/Sy+95Fejsc/PRRdd5HCa/vXXX31W4soWzRcY4eczceJfG3pi/rrxxhutKL68gwcPLvwOv8iMFaKh70JACAiB8hAQ2SkPr6a4uhjZaYpCBoWA7CQ5/gaX5fqryE6uX48yJwSEQM4RENnJ+QvKInutRnaOPvpoZ0vNs8CzFmmK7NQCZT1DCAiBZkVAZKdZ32xKuVqN7KRA0TCnRHYa5lUpo0JACOQQAZGdHL6UrLMkspM1wtVPX2Sn+pgqRSEgBFoHAZGd1nnXhZKK7BSgaJgvIjsN86qUUSEgBHKIgMhODl9K1lmqhOywsoh4Oa0gLBFniXm4h5aVmxVm9cBBZMfegD6FgBAQAuUjILJTPmYNf0clZIeNLYkfU4qwmSURj7mnnsIy7m222absLLB5KbF4WE4eFTbvXGmllaKHM/8tspM5xHqAEBACTYyAyE4Tv9ykolVCdp577rnCnk6TJ092PXr0cMcee6zjeCg//PCDY/UTZIHzxMhht280IpAIdklnh3R2G7d9rGbMmOHPE5nYrn3//fd9LBsCElpcGp7DNQT3I17O22+/7R/N+Wuuucax3xbBB9kM9JVXXnFsQbHccsv5tL/88kt/7YQJE3xsH0hLSMbGjh3rd04nbhC7jxcjO+wCT+Tlu+66y0dQNgzi0ifW0M033+z37yJ9ZPr06Y6YQWwoys7yxURkpxhCOi8EhIAQSEZAZCcZm6Y9UwnZIfrxiiuu6DEhWjEaEzb5RIPz/fffF7DiO9GFIQvsek7gQYLn8ZvIw2zAyaaibJNwySWX+PsItsd5ggiGO4OzNQV7X7GDOjJr1iy35JJL+ijI5IHv7L6+/fbb+93DSY8tKAh6yP5TG2ywgd+764wzznCQnWeffdbvyM5mnzvssENhg1K2qyCttdde2x111FE+enMa2eEZlIXI0VzXq1cvn7+k9NmCgojQaIQgSGi+2IKD+4n/QyTqIUOG+DSS/onsJCGj40JACAiB4giI7BTHqOmuaC/ZYZ8pBmoiCccJgz4kYNy4cf60mYXYId0kieyw3QP3su8Uwv5R7CwOIbGNN9EesdM4m35CYtgXC+0OmiIIy8EHH+zvRcMU7p7ObuQQoNGjRxfSQkODZoVnslkpct111/nfSWassGykZxuHJqVPubkHHJCnn37a/yZqNHlhf69wfy5/UeSfyE4EEP0UAkJACJSBgMhOGWA1y6XtJTuYrhjkGcA7ddq4jWYHjJLIDoO8CWSHLReQr776yqeFZsfIjvkHcYznfP31194cFW6caWmxSSiak7322strmtAeIVGyA0lDU7TlllsW/vr37++3m0C7wuamCFoWnplEdsKNUSE6ED8kKX3IDvmeN2+ev45ykz77dFle0IKlichOGjo6JwSEgBBIR0BkJx2fpjzbXrIzdepUv1v5iBEj/KBt+2gZWEZ2xowZ4w+ZZmfYsGF2idfAHHDAAf63EZqQ7OBzg2CSMrJjmh12W8f0he/OwIED/XnuRcNjpjLuheysu+66Ph3+sT+W/Q53SceRmWdYftnXK43shA7KmOyM7CSlD9kJ74HIhc9DuwSZSxORnTR0dE4ICAEhkI6AyE46Pk15tj1kh40vWXrduXPngr+JmX8MrC+++MLvdg4J6NevnzffMLiHZAdisOCCHd1OO+3kd0jnPFoW0+zEkR18dtCqrL/++l4rssIKK3jzFT40+BCR1uKLL+79gsgLm26y6zpaExyQbTdy/HV23XVXv7wcM5Kli08SmhqICfkxB2orF5/R1Vgh2UlKP0p2cKDmGeCIUzU7suOwnSYiO2no6JwQEAJCIB0BkZ10fJrybCVkB5MOu3wj7ArObuVXX311QRsSBQp/FGLzYBL65ptvPPFgFZcJpImVTGhR8LvBTwbNiu0MPmnSJH/pRx995O/FZwfhPnx1evbs6VducQyCxKqthx56yGt6BgwY4K9lxRO7rLMjOgQMoRz4AUEuSNvE0r3++uu9rxFEiZVhUYGwGQ6ce/zxx/1z7bq49CFu4T1cayvaWFXGTvLFRGSnGEI6LwSEgBBIRkBkJxmbpj1TCdlpWjAapGAiOw3yopRNISAEcomAyE4uX0u2mfr199muc5c73M8zZmX7IKVeNQQmT/3Z7dWtd9XSU0JCQAgIgVZCQGSnld52UNZ/db/Tjf7kL1NRcFhfc4rAa2MmuKOveCCnuVO2hIAQEAL5RkBkJ9/vJ7Pc9Rn0hrvizvRAdpk9XAmXjcC5tzzpHhz6btn36QYhIASEgBBwTmSnRWvBNz9Md//vzD7uvfH/5zTcolDkvtgjPvjS7X1mH5kdc/+mlEEhIATyioDITl7fTA3y9cwbH7r9zunnxnwqwlMDuCt6BERn37P7uldHj6/oft0kBISAEBAC0uy0fB2A8KDhueD2p9zwsZ+5id/95L79cbr+6ojBxG9/8uTmnJsHeY2OiE7LN1MBIASEQDsRkGannQA2w+0//jLT3fvM2+6oy+/3xIeVWvqrHwaYrI658kH30POjZLpqhgamMggBIVB3BER26v4KlAEhIASEgBAQAkIgSwREdrJEV2kLASEgBISAEBACdUdAZKfur0AZEAJCQAgIASEgBLJEQGQnS3SVthAQAkJACAgBIVB3BER26v4KlAEhIASEgBAQAkIgSwREdrJEV2kLASEgBISAEBACdUdAZKfur0AZEAJCQAgIASEgBLJEQGQnS3SVthAQAkJACAgBIVB3BER26v4KlAEhIASEgBAQAkIgSwREdrJEV2kLASEgBISAEBACdUdAZKfur0AZEAJCQAgIASEgBLJEQGQnS3SVthAQAkJACAgBIVB3BER26v4KlAEhIASEgBAQAkIgSwREdrJEV2kLASEgBISAEBACdUdAZKfur0AZEAJCQAgIASEgBLJEQGQnS3SVthAQAkJACAgBIVB3BER26v4KlAEhIASEgBAQAkIgSwREdrJEV2kLASEgBISAEBACdUdAZKfur0AZEAJCQAgIASEgBLJEQGQnS3SVthAQAkJACAgBIVB3BER26v4KlAEhIASEgBAQAkIgSwREdrJEV2kLASEgBISAEBACdUdAZKfur0AZEAJCQAgIASEgBLJEQGQnS3SVthAQAkJACAgBIVB3BER26v4KlAEhIASEgBAQAkIgSwREdrJEV2kLASEgBISAEBACdUdAZKfur0AZEAJCQAgIASEgBLJEQGQnS3SVthAQAkJACAgBIVB3BER26v4KlAEhIASEgBAQAkIgSwREdrJEV2lnhsDrr7/uDjvssKJ/ZOC8885zq6yyivvpp58yyw8Jf/jhh+7AAw90w4YNq+pzevToMV85TzjhBHf99de7wYMHu99//73wvHHjxrmjjz66zfWHH364O//8891dd93lOJ8kEyZM8Nftvvvubp111nE777yz69q1q/vPf/7jdtxxxza3TZkyxR1zzDFu/fXXdzvttJPHmOc++uijba7TDyEgBIRAHhAQ2cnDW1AeKkLg7bffdgsssID/e/jhh93IkSPdiBEj3EsvveQuueQSf3zu3Lnu8ssvd2uttZb78ccfK3pOsZumTZvmTjnlFLf88sv7Zw4dOrTYLWWfv//++33ayy23nCdTvXv3dgcccIBbcMGObuONN3ZffvllIc1ff/3Vdeq0sb++W7dubsiQIe7cc8/1BGahhRZy1113XeFa+3Lrrbe6JZdc0m2wwQZu0KBB7uuvv/bE6KyzznLcs9JKK9ml/hOCw7Wvvfaav+64447zz7v66qvbXKcfQkAICIE8ICCyk4e3oDxUjMCKK67oB9kffvhhvjQYkBn4s5Y///zT/fHHH17TAvnKgux8/PHHvpydOnVqU5x//vOf/jhkJpSDDjrIHx84cGDh8AcffOCPLbzwwu6XX34pHIfckO8tttgiFi+I1VJLLVW4HlLJ9VFic+KJJ7pTTz21cJ2+CAEhIATygoDITl7ehPJREQKrrrqqH3ijZAdNx+zZswtpzpo1q425x06glfnuu+/sZ7s+0Y5kRXY+/fRTn3aU7JjG5x//+EebvB9yyCH++pDscAHmKfJopjZwMQxffvnlNmnYD8jcdtttZz/d008/7dPYbLPN3Jw5cwrHJ02a5CBfpQrPnjx5siP9OME8980338Sd8u/WCBvvb968efNdx7Fvv/12vuN2ALNm3HnqTbG0SQNNYWhCtHRL+Sz3XvI0Y8YMnzSYTJ8+fb7HmJmWzyjJT8PSEuJd8E7iJAkrrk3Dudxyxj1bx4RANRAQ2akGikqjbgjYQB2SHUxX22yzjc8TA/ihhx7qTTTvvvtuIZ+QnL333ttrMzbffHO32mqruYMPPtiboxi0K5F6kJ19993XE4/bbrutTZbjyM6YMWP8tWBmRPDVV1/1x/BpKlUYSJdYYgl/H9qzL774otRb/XX4++y3335ul112cZA0TGRPPfVUIQ0G3c6dO7vddtvN7bPPPt7f6oYbbvDnP/vsM3fkkUe6ZZdd1l1xxRVuhx128PlYe+213SuvvFJIAzz23HNP71e0+uqru6uuuqpwDt8q6gfmP7RcW2+9tfvqq69cqWlDkEgbTdZWW23lzZckjlZrkUUWKfg3PfDAA2699dbzx9CeIUn3FjIX+fLJJ58UTKQXXnih23DDDX15F198cYcvF4IvFv5VYHDllVd6syO4IWlY+gucc/fcc4/bZJNNfDtZYYUV/LsxEpeEld2bhHO55bT09CkEskJAZCcrZJVuTRAwssPA06VLF3faaad5LQTkBRk7dqwnNWgzQrLD9ZjA0Cr89ttvfkBlAGfQtRlyuQWoBdnBLwhnY3xkKCPlYpC1wcnybGSHQQ8TF6SkQ4cOfvANNTg333yzTwPSEJXvv//eoRkK/yZOnOgve/75590yyyxTGHivueaaAoGKphP+xtyHRujMM8/0h/nNALvGGmv435AwBnQbrDl4xx13+OdgNqOchjP34KiOnxYkAx8mBK0MZjeIHNK3b1/XvXv3wrk111zTO3ZzAJMjGOKUXUra3HPxxRcXCA3EmnwYeaQsW265pX8W/3g26T/++OP+WNq9hZuCL1OnTnWnn366T4O6/swzzziwt3r/3nvveZJn/mK0AQgPdaQYljxmwIABHivToEEqyW///v09jklYcW8azuWWMyiyvgqBTBAQ2ckEViVaKwSs08evhJk0s9QzzjjDEwHLAzNgOvCQ7DALxqRjgvaHa9pj0rJBOAufHTNjoYGhrKyQghCQ53XXXbcwsFt5jOywauuWW25xOBqj4Vh00UW9RgKSgaAtII2QXFgamEoYpCEOXHPssce2MfvgR7T99tv7c5xnxVbUfGJp2SfviGshoSbPPfecH1z5/eCDD/rzd999t532ZhIIhWmfIDekceONNxauQcNiTtSYMDkPgYO4QmZNc3TnnXf6c+Bx9tlnOxy4uRayBCbF0uaBRx11lCeOEAUErY2Z88gneTF56KGHfPpPPPGEP5R2r90T/TSfqhAT3in5Nmdz/K0gPJYP0igFS+oO2kGTmTNneod+NF3FsErDuZJyWh70KQSyQEBkJwtUlWbNEDCyE5qxeDgmEBOIAQNDSHZQ+3PMZrTMhNGUGAmwe8v5rAXZifrsQO4oB1oWNDEmRnZCn52ff/7Za1W4HpKDYALhdzRdS4dPMxWFBMXOoxnr16+fW2yxxXw6hANIk+OPP97nNekawgSQH5ygQ7HyQLDMQTokO7vuuqs3bdk9Rl4hAAzaJiyXh5C8+eab8/2hCSklbVYBmlYLkhiaPYuRnbR7LY/RzyeffNJjAlE0QaMDTkZSITtoYUIphiUr6UijZ8+e4W2F78Ww4sIknCspZ+HB+iIEMkBAZCcDUJVk7RBIIjuh02sc2cH8gckBvx2cfFlGzUy4PVIPsoNz6NJLL+0HLfMLoQxGDkKyw3E0AQxw+Ggg5seDxidJq2XEEP8RS8N/Cf4R74d0Wb6eRhjRDmFOM2fbIAn/9bLLLvPpPPbYY21OoaEi/c8//7wkQsL7x6cH3xbuI14QQswh8hg1+3GOe0ohO1zLyjYIBmmjUYKEIcXITtq9PoGYf3FkBxMSzwZPJI7sFMPyjTfe8Gmg5YqTYlhxTxLOnEvCKO5ZOiYEskZAZCdrhJV+pggkkZ3woXFkBxMNDrI33XSTu/fee2NXt4RplPK9HmQHsxFOtgx85qNCXpPIjpmtwiCBBELk/pNOOim2mFGyg/+P+aDYDZAuiAXmoDgiYdfZ6jH8SkKBjOBMCwklL2iAQtl00029maYUQoJTrZmYMMcQcwiMeOf4kpB+VJsBLvgylUJ2bMk9eaH+kJ4t/YfskFeTqM9O2r12T/Qzjuw8++yz/rmkj8SRnVKwxJQL6UfrZ0LgSXAqhlUazpWU056vTyGQBQIiO1mgqjRrggDOoeZPglkiSXCGZUAaPnx44ZIjjjjCbbvttl6bg48Ns9zQDMRMnejAffr0KdxT7Ms555zjnxMlApWkFX2WDW4MpiaseLE4Owx2ob8GTrKU2Uw4kBEGTcMr1AJhyjMtBf5OIVnB5wXzCGmZZgciYsENLS/mV1Js6TnaI/KAdgdncsxwxAQyDQWmJHxeMBNZoERWbxE8EUdlhCCJ5AcSawLBgGxRJ9555x2/ysvOQUg4h8aJMpAWfxAcIj7j7G1Er1japMlKLExACIQHUxlaJARH544dOzreF9ou6hB5pW7w/LR7fQIx/4zs4F9kQrRqAmWaFg3NJJhRfpNSsMRvifyRT3zBrr32Wu8DBk7FsErDuZJyWr71KQSyQEBkJwtUlWbmCOBIyrJlOmr+mL2joYkKzskWeBDTja1EQpNg99onA7CtEuI6jkc1DNH0+Q05YOC0FTEsaQ79ScpJKy59toVgMLN8MhNfeeWVvfkKX5uLLrrIsZQeYbaNHwWDOdej0YAgMRCiBWMwDpdo2/MYJFlRxUwfMsJybHx1MNFAPiB9NpBCMkiTPwZJYvAwwLOcvJSVbOQRx1jyB+b4hoQECydZfFFIn3O8N7RmCFtasJqLezmP4y8RsonyzDFML6NGjfJL47mPwRwtFhG2TdAusXSd6ykf0a+JL1NK2qSx1157eW0IeQNrVoFZXJ4XX3yxUA/AknfHKj9IIGadtHstf9FPIzs4mENiKQ9L59FaQbYoMzhSHkgGzzFJw5JrIMHUXbsfTIlAbpKEFefTcK6knPZMfQqBLBAQ2ckCVaWZawQw/eDQ+sgjj7iPPvrIa3wIlHf77bf7QYzVOwiaBQaDakg106pGftLSwKSBpou4M0ZwwutZDm1bb+AYjlYt1IqF1yZ9Rws1fvz4VPMh7wkfHQb0cgWthhGYuHspFyvc4soXd314jPpBnjC7GQ7hecxlYMc1lCEM1Ffs3jAd+25kBwdltFzlYk06xbDkPRIvKQ7rNKyScK6knFZefQqBLBAQ2ckCVaWZawRw3MSpN/RTIMMMUszSKxkAc11gZa6hEQjJTkMXRJkXAnVEQGSnjuDr0fVBAA0OKn9MQ/iN4IiJ2QTzCKp5iRDIEwLm+H7ppZfmKVvKixBoKAREdhrqdSmz1UKA1Tr4OrCyCGdPnF/NfFWtZygdIdBeBAiGyGq4v//97371oK1yam+6ul8ItBoCIjut9sZVXiEgBISAEBACLYaAyE6LvXAVVwgIASEgBIRAqyEgstNqb1zlFQJCQAgIASHQYgiI7LTYC1dxhYAQEAJCQAi0GgIiO632xlVeISAEhIAQEAIthoDITou9cBVXCAgBISAEhECrISCy02pvXOUVAkJACAgBIdBiCIjstNgLV3GFgBAQAkJACLQaAiI7rfbGVV4hIASEgBAQAi2GgMhOi71wFVcICAEhIASEQKshILLTam9c5RUCQkAICAEh0GII/P/pM9LNJvWCkgAAAABJRU5ErkJggg==;" parent="1" vertex="1">
          <mxGeometry x="120" y="70" width="571" height="207" as="geometry" />
        </mxCell>
        <mxCell id="yOQESPadZOr60FF15kcj-11" style="edgeStyle=orthogonalEdgeStyle;rounded=0;orthogonalLoop=1;jettySize=auto;html=1;exitX=1;exitY=0.5;exitDx=0;exitDy=0;" parent="1" source="yOQESPadZOr60FF15kcj-2" target="yOQESPadZOr60FF15kcj-3" edge="1">
          <mxGeometry relative="1" as="geometry" />
        </mxCell>
        <mxCell id="yOQESPadZOr60FF15kcj-2" value="Nonce值" style="ellipse;whiteSpace=wrap;html=1;" parent="1" vertex="1">
          <mxGeometry x="80" y="360" width="80" height="40" as="geometry" />
        </mxCell>
        <mxCell id="yOQESPadZOr60FF15kcj-3" value="H = Hash(Nonce值, 区块头)" style="rounded=1;whiteSpace=wrap;html=1;" parent="1" vertex="1">
          <mxGeometry x="180" y="360" width="120" height="40" as="geometry" />
        </mxCell>
        <mxCell id="yOQESPadZOr60FF15kcj-4" value="H &amp;lt; 目标值" style="rhombus;whiteSpace=wrap;html=1;" parent="1" vertex="1">
          <mxGeometry x="320" y="350" width="90" height="60" as="geometry" />
        </mxCell>
        <mxCell id="yOQESPadZOr60FF15kcj-5" value="将H通过取模的形式映射为候选解(x,y,z)" style="ellipse;whiteSpace=wrap;html=1;" parent="1" vertex="1">
          <mxGeometry x="440" y="345" width="120" height="70" as="geometry" />
        </mxCell>
        <mxCell id="yOQESPadZOr60FF15kcj-7" value="验证候选解&lt;br&gt;是否为正确解？" style="rhombus;whiteSpace=wrap;html=1;" parent="1" vertex="1">
          <mxGeometry x="590" y="350" width="130" height="60" as="geometry" />
        </mxCell>
        <mxCell id="yOQESPadZOr60FF15kcj-9" value="生成新区块" style="ellipse;whiteSpace=wrap;html=1;" parent="1" vertex="1">
          <mxGeometry x="740" y="360" width="80" height="40" as="geometry" />
        </mxCell>
        <mxCell id="yOQESPadZOr60FF15kcj-10" value="" style="endArrow=classic;html=1;exitX=1;exitY=0.5;exitDx=0;exitDy=0;entryX=0;entryY=0.5;entryDx=0;entryDy=0;" parent="1" source="yOQESPadZOr60FF15kcj-3" target="yOQESPadZOr60FF15kcj-4" edge="1">
          <mxGeometry width="50" height="50" relative="1" as="geometry">
            <mxPoint x="400" y="400" as="sourcePoint" />
            <mxPoint x="450" y="350" as="targetPoint" />
          </mxGeometry>
        </mxCell>
        <mxCell id="yOQESPadZOr60FF15kcj-14" value="" style="endArrow=classic;html=1;exitX=1;exitY=0.5;exitDx=0;exitDy=0;entryX=0;entryY=0.5;entryDx=0;entryDy=0;" parent="1" source="yOQESPadZOr60FF15kcj-4" target="yOQESPadZOr60FF15kcj-5" edge="1">
          <mxGeometry width="50" height="50" relative="1" as="geometry">
            <mxPoint x="400" y="400" as="sourcePoint" />
            <mxPoint x="450" y="350" as="targetPoint" />
          </mxGeometry>
        </mxCell>
        <mxCell id="yOQESPadZOr60FF15kcj-15" value="&lt;div style=&quot;text-align: center&quot;&gt;&lt;span&gt;&lt;font face=&quot;helvetica&quot;&gt;否&lt;/font&gt;&lt;/span&gt;&lt;/div&gt;" style="text;whiteSpace=wrap;html=1;" parent="1" vertex="1">
          <mxGeometry x="415" y="350" width="20" height="30" as="geometry" />
        </mxCell>
        <mxCell id="yOQESPadZOr60FF15kcj-17" value="" style="endArrow=classic;html=1;exitX=1;exitY=0.5;exitDx=0;exitDy=0;entryX=0;entryY=0.5;entryDx=0;entryDy=0;" parent="1" source="yOQESPadZOr60FF15kcj-5" target="yOQESPadZOr60FF15kcj-7" edge="1">
          <mxGeometry width="50" height="50" relative="1" as="geometry">
            <mxPoint x="400" y="400" as="sourcePoint" />
            <mxPoint x="450" y="350" as="targetPoint" />
          </mxGeometry>
        </mxCell>
        <mxCell id="yOQESPadZOr60FF15kcj-18" value="" style="endArrow=classic;html=1;exitX=1;exitY=0.5;exitDx=0;exitDy=0;" parent="1" source="yOQESPadZOr60FF15kcj-7" target="yOQESPadZOr60FF15kcj-9" edge="1">
          <mxGeometry width="50" height="50" relative="1" as="geometry">
            <mxPoint x="400" y="400" as="sourcePoint" />
            <mxPoint x="450" y="350" as="targetPoint" />
          </mxGeometry>
        </mxCell>
        <mxCell id="yOQESPadZOr60FF15kcj-21" value="" style="endArrow=classic;html=1;exitX=0.5;exitY=1;exitDx=0;exitDy=0;entryX=0.5;entryY=1;entryDx=0;entryDy=0;" parent="1" source="yOQESPadZOr60FF15kcj-4" target="yOQESPadZOr60FF15kcj-9" edge="1">
          <mxGeometry width="50" height="50" relative="1" as="geometry">
            <mxPoint x="400" y="400" as="sourcePoint" />
            <mxPoint x="450" y="350" as="targetPoint" />
            <Array as="points">
              <mxPoint x="365" y="440" />
              <mxPoint x="760" y="440" />
              <mxPoint x="780" y="440" />
            </Array>
          </mxGeometry>
        </mxCell>
        <mxCell id="yOQESPadZOr60FF15kcj-22" value="" style="endArrow=classic;html=1;exitX=0.5;exitY=0;exitDx=0;exitDy=0;exitPerimeter=0;" parent="1" source="yOQESPadZOr60FF15kcj-7" edge="1">
          <mxGeometry width="50" height="50" relative="1" as="geometry">
            <mxPoint x="400" y="400" as="sourcePoint" />
            <mxPoint x="120" y="360" as="targetPoint" />
            <Array as="points">
              <mxPoint x="655" y="320" />
              <mxPoint x="120" y="320" />
            </Array>
          </mxGeometry>
        </mxCell>
        <mxCell id="yOQESPadZOr60FF15kcj-23" value="&lt;div style=&quot;text-align: center&quot;&gt;&lt;font face=&quot;helvetica&quot;&gt;是&lt;/font&gt;&lt;/div&gt;" style="text;whiteSpace=wrap;html=1;" parent="1" vertex="1">
          <mxGeometry x="550" y="440" width="20" height="30" as="geometry" />
        </mxCell>
        <mxCell id="yOQESPadZOr60FF15kcj-26" value="&lt;div style=&quot;text-align: center&quot;&gt;&lt;font face=&quot;helvetica&quot;&gt;是&lt;/font&gt;&lt;/div&gt;" style="text;whiteSpace=wrap;html=1;" parent="1" vertex="1">
          <mxGeometry x="691" y="350" width="20" height="30" as="geometry" />
        </mxCell>
        <mxCell id="yOQESPadZOr60FF15kcj-27" value="&lt;div style=&quot;text-align: center&quot;&gt;&lt;font face=&quot;helvetica&quot;&gt;否&lt;/font&gt;&lt;/div&gt;" style="text;whiteSpace=wrap;html=1;" parent="1" vertex="1">
          <mxGeometry x="380" y="290" width="20" height="30" as="geometry" />
        </mxCell>
        <mxCell id="yOQESPadZOr60FF15kcj-28" style="edgeStyle=orthogonalEdgeStyle;rounded=0;orthogonalLoop=1;jettySize=auto;html=1;exitX=1;exitY=0.5;exitDx=0;exitDy=0;" parent="1" source="yOQESPadZOr60FF15kcj-29" target="yOQESPadZOr60FF15kcj-30" edge="1">
          <mxGeometry relative="1" as="geometry" />
        </mxCell>
        <mxCell id="yOQESPadZOr60FF15kcj-29" value="Nonce值" style="ellipse;whiteSpace=wrap;html=1;" parent="1" vertex="1">
          <mxGeometry y="570" width="80" height="40" as="geometry" />
        </mxCell>
        <mxCell id="yOQESPadZOr60FF15kcj-30" value="H = Hash(Nonce值, 区块头)" style="rounded=1;whiteSpace=wrap;html=1;" parent="1" vertex="1">
          <mxGeometry x="100" y="570" width="120" height="40" as="geometry" />
        </mxCell>
        <mxCell id="yOQESPadZOr60FF15kcj-31" value="" style="endArrow=classic;html=1;exitX=1;exitY=0.5;exitDx=0;exitDy=0;entryX=0;entryY=0.5;entryDx=0;entryDy=0;" parent="1" source="yOQESPadZOr60FF15kcj-30" target="yOQESPadZOr60FF15kcj-38" edge="1">
          <mxGeometry width="50" height="50" relative="1" as="geometry">
            <mxPoint x="320" y="610" as="sourcePoint" />
            <mxPoint x="240" y="590" as="targetPoint" />
          </mxGeometry>
        </mxCell>
        <mxCell id="yOQESPadZOr60FF15kcj-34" value="&lt;b style=&quot;font-family: &amp;#34;helvetica&amp;#34; ; font-size: 14px&quot;&gt;区块链虚拟机（EVM）&lt;/b&gt;" style="text;whiteSpace=wrap;html=1;align=center;" parent="1" vertex="1">
          <mxGeometry x="305" y="520" width="170" height="30" as="geometry" />
        </mxCell>
        <mxCell id="yOQESPadZOr60FF15kcj-36" value="1）从队列中问题合约&lt;br&gt;2）调用getSpaceInfo获取问题的解空间范围" style="rounded=1;whiteSpace=wrap;html=1;" parent="1" vertex="1">
          <mxGeometry x="255" y="665" width="130" height="75" as="geometry" />
        </mxCell>
        <mxCell id="yOQESPadZOr60FF15kcj-37" value="" style="endArrow=classic;html=1;exitX=0.5;exitY=0;exitDx=0;exitDy=0;" parent="1" source="yOQESPadZOr60FF15kcj-36" edge="1">
          <mxGeometry width="50" height="50" relative="1" as="geometry">
            <mxPoint x="400" y="510" as="sourcePoint" />
            <mxPoint x="320" y="610" as="targetPoint" />
          </mxGeometry>
        </mxCell>
        <mxCell id="yOQESPadZOr60FF15kcj-38" value="&lt;span&gt;将H通过取模的形式映射为候选解(x,y,z)&lt;/span&gt;" style="rounded=1;whiteSpace=wrap;html=1;" parent="1" vertex="1">
          <mxGeometry x="260" y="570" width="120" height="40" as="geometry" />
        </mxCell>
        <mxCell id="yOQESPadZOr60FF15kcj-42" value="P" style="rounded=0;whiteSpace=wrap;html=1;" parent="1" vertex="1">
          <mxGeometry x="98" y="675" width="30" height="20" as="geometry" />
        </mxCell>
        <mxCell id="yOQESPadZOr60FF15kcj-43" value="P" style="rounded=0;whiteSpace=wrap;html=1;" parent="1" vertex="1">
          <mxGeometry x="128" y="675" width="30" height="20" as="geometry" />
        </mxCell>
        <mxCell id="yOQESPadZOr60FF15kcj-44" value="P" style="rounded=0;whiteSpace=wrap;html=1;" parent="1" vertex="1">
          <mxGeometry x="158" y="675" width="30" height="20" as="geometry" />
        </mxCell>
        <mxCell id="yOQESPadZOr60FF15kcj-45" value="P" style="rounded=0;whiteSpace=wrap;html=1;" parent="1" vertex="1">
          <mxGeometry x="188" y="675" width="30" height="20" as="geometry" />
        </mxCell>
        <mxCell id="yOQESPadZOr60FF15kcj-47" value="" style="endArrow=classic;html=1;entryX=0;entryY=0.25;entryDx=0;entryDy=0;" parent="1" target="yOQESPadZOr60FF15kcj-36" edge="1">
          <mxGeometry width="50" height="50" relative="1" as="geometry">
            <mxPoint x="220" y="685" as="sourcePoint" />
            <mxPoint x="250" y="685" as="targetPoint" />
          </mxGeometry>
        </mxCell>
        <mxCell id="yOQESPadZOr60FF15kcj-48" value="&lt;div&gt;&lt;span&gt;&lt;font face=&quot;helvetica&quot; style=&quot;font-size: 12px&quot;&gt;&lt;b&gt;问题合约队列&lt;/b&gt;&lt;/font&gt;&lt;/span&gt;&lt;/div&gt;" style="text;whiteSpace=wrap;html=1;align=center;" parent="1" vertex="1">
          <mxGeometry x="107.5" y="650" width="105" height="30" as="geometry" />
        </mxCell>
        <mxCell id="yOQESPadZOr60FF15kcj-49" value="虚拟机内部栈" style="swimlane;fontStyle=0;childLayout=stackLayout;horizontal=1;startSize=26;horizontalStack=0;resizeParent=1;resizeParentMax=0;resizeLast=0;collapsible=1;marginBottom=0;" parent="1" vertex="1">
          <mxGeometry x="430" y="649" width="90" height="104" as="geometry" />
        </mxCell>
        <mxCell id="yOQESPadZOr60FF15kcj-50" value="Push1 0x10" style="text;strokeColor=none;fillColor=none;align=left;verticalAlign=top;spacingLeft=4;spacingRight=4;overflow=hidden;rotatable=0;points=[[0,0.5],[1,0.5]];portConstraint=eastwest;" parent="yOQESPadZOr60FF15kcj-49" vertex="1">
          <mxGeometry y="26" width="90" height="26" as="geometry" />
        </mxCell>
        <mxCell id="yOQESPadZOr60FF15kcj-51" value="Add 0x11 0x12" style="text;strokeColor=none;fillColor=none;align=left;verticalAlign=top;spacingLeft=4;spacingRight=4;overflow=hidden;rotatable=0;points=[[0,0.5],[1,0.5]];portConstraint=eastwest;" parent="yOQESPadZOr60FF15kcj-49" vertex="1">
          <mxGeometry y="52" width="90" height="26" as="geometry" />
        </mxCell>
        <mxCell id="yOQESPadZOr60FF15kcj-52" value="Store 0x11" style="text;strokeColor=none;fillColor=none;align=left;verticalAlign=top;spacingLeft=4;spacingRight=4;overflow=hidden;rotatable=0;points=[[0,0.5],[1,0.5]];portConstraint=eastwest;" parent="yOQESPadZOr60FF15kcj-49" vertex="1">
          <mxGeometry y="78" width="90" height="26" as="geometry" />
        </mxCell>
        <mxCell id="yOQESPadZOr60FF15kcj-54" value="将(x,y,z)代入solve函数，并在虚拟机中执行" style="rounded=1;whiteSpace=wrap;html=1;" parent="1" vertex="1">
          <mxGeometry x="400" y="570" width="130" height="40" as="geometry" />
        </mxCell>
        <mxCell id="yOQESPadZOr60FF15kcj-58" value="" style="endArrow=classic;startArrow=classic;html=1;entryX=0.5;entryY=1;entryDx=0;entryDy=0;exitX=0.5;exitY=0;exitDx=0;exitDy=0;" parent="1" source="yOQESPadZOr60FF15kcj-49" edge="1">
          <mxGeometry width="50" height="50" relative="1" as="geometry">
            <mxPoint x="480" y="639" as="sourcePoint" />
            <mxPoint x="475" y="609" as="targetPoint" />
          </mxGeometry>
        </mxCell>
        <mxCell id="yOQESPadZOr60FF15kcj-59" value="" style="endArrow=classic;html=1;exitX=1;exitY=0.5;exitDx=0;exitDy=0;" parent="1" source="yOQESPadZOr60FF15kcj-38" target="yOQESPadZOr60FF15kcj-54" edge="1">
          <mxGeometry width="50" height="50" relative="1" as="geometry">
            <mxPoint x="400" y="500" as="sourcePoint" />
            <mxPoint x="450" y="450" as="targetPoint" />
          </mxGeometry>
        </mxCell>
        <mxCell id="yOQESPadZOr60FF15kcj-65" value="每消耗X单位的gas，对栈顶四个元素进行抽样并聚合为&lt;br&gt;S=FNV(S,(FNV(s1,s2),FNV(s3,s4)))" style="rounded=1;whiteSpace=wrap;html=1;" parent="1" vertex="1">
          <mxGeometry x="560" y="665" width="210" height="75" as="geometry" />
        </mxCell>
        <mxCell id="yOQESPadZOr60FF15kcj-66" value="" style="endArrow=classic;html=1;exitX=1.013;exitY=0.038;exitDx=0;exitDy=0;exitPerimeter=0;" parent="1" source="yOQESPadZOr60FF15kcj-51" edge="1">
          <mxGeometry width="50" height="50" relative="1" as="geometry">
            <mxPoint x="520" y="709" as="sourcePoint" />
            <mxPoint x="560" y="702" as="targetPoint" />
          </mxGeometry>
        </mxCell>
        <mxCell id="yOQESPadZOr60FF15kcj-67" value="H1=Hash(H,S)" style="rounded=1;whiteSpace=wrap;html=1;" parent="1" vertex="1">
          <mxGeometry x="581" y="570" width="130" height="40" as="geometry" />
        </mxCell>
        <mxCell id="yOQESPadZOr60FF15kcj-68" value="" style="endArrow=classic;html=1;exitX=1;exitY=0.5;exitDx=0;exitDy=0;" parent="1" source="yOQESPadZOr60FF15kcj-54" edge="1">
          <mxGeometry width="50" height="50" relative="1" as="geometry">
            <mxPoint x="521.1700000000001" y="702.988" as="sourcePoint" />
            <mxPoint x="580" y="590" as="targetPoint" />
          </mxGeometry>
        </mxCell>
        <mxCell id="yOQESPadZOr60FF15kcj-69" value="" style="endArrow=classic;html=1;exitX=1;exitY=0.5;exitDx=0;exitDy=0;" parent="1" edge="1">
          <mxGeometry width="50" height="50" relative="1" as="geometry">
            <mxPoint x="721.9999999999998" y="590" as="sourcePoint" />
            <mxPoint x="761" y="590" as="targetPoint" />
          </mxGeometry>
        </mxCell>
        <mxCell id="yOQESPadZOr60FF15kcj-70" value="H1 &amp;lt; 目标值" style="rhombus;whiteSpace=wrap;html=1;" parent="1" vertex="1">
          <mxGeometry x="731" y="560" width="90" height="60" as="geometry" />
        </mxCell>
        <mxCell id="yOQESPadZOr60FF15kcj-71" value="" style="endArrow=classic;html=1;exitX=1;exitY=0.5;exitDx=0;exitDy=0;entryX=0;entryY=0.5;entryDx=0;entryDy=0;" parent="1" target="yOQESPadZOr60FF15kcj-70" edge="1">
          <mxGeometry width="50" height="50" relative="1" as="geometry">
            <mxPoint x="711" y="590" as="sourcePoint" />
            <mxPoint x="861" y="560" as="targetPoint" />
          </mxGeometry>
        </mxCell>
        <mxCell id="yOQESPadZOr60FF15kcj-72" value="" style="endArrow=classic;html=1;exitX=1;exitY=0.5;exitDx=0;exitDy=0;entryX=0;entryY=0.5;entryDx=0;entryDy=0;" parent="1" source="yOQESPadZOr60FF15kcj-70" edge="1">
          <mxGeometry width="50" height="50" relative="1" as="geometry">
            <mxPoint x="811" y="610" as="sourcePoint" />
            <mxPoint x="851.0000000000023" y="590" as="targetPoint" />
          </mxGeometry>
        </mxCell>
        <mxCell id="yOQESPadZOr60FF15kcj-73" value="&lt;div style=&quot;text-align: center&quot;&gt;&lt;span&gt;&lt;font face=&quot;helvetica&quot;&gt;是&lt;/font&gt;&lt;/span&gt;&lt;/div&gt;" style="text;whiteSpace=wrap;html=1;" parent="1" vertex="1">
          <mxGeometry x="826" y="560" width="20" height="30" as="geometry" />
        </mxCell>
        <mxCell id="yOQESPadZOr60FF15kcj-74" value="生成新区块" style="ellipse;whiteSpace=wrap;html=1;" parent="1" vertex="1">
          <mxGeometry x="850" y="570" width="80" height="40" as="geometry" />
        </mxCell>
        <mxCell id="yOQESPadZOr60FF15kcj-77" value="" style="endArrow=classic;html=1;exitX=0.5;exitY=0;exitDx=0;exitDy=0;exitPerimeter=0;entryX=0.5;entryY=0;entryDx=0;entryDy=0;" parent="1" target="yOQESPadZOr60FF15kcj-29" edge="1">
          <mxGeometry width="50" height="50" relative="1" as="geometry">
            <mxPoint x="775" y="560" as="sourcePoint" />
            <mxPoint x="160" y="560" as="targetPoint" />
            <Array as="points">
              <mxPoint x="775" y="520" />
              <mxPoint x="40" y="520" />
            </Array>
          </mxGeometry>
        </mxCell>
        <mxCell id="yOQESPadZOr60FF15kcj-79" value="&lt;div style=&quot;text-align: center&quot;&gt;&lt;span style=&quot;font-family: &amp;#34;helvetica&amp;#34;&quot;&gt;否&lt;/span&gt;&lt;br&gt;&lt;/div&gt;" style="text;whiteSpace=wrap;html=1;" parent="1" vertex="1">
          <mxGeometry x="385" y="490" width="20" height="30" as="geometry" />
        </mxCell>
        <mxCell id="yOQESPadZOr60FF15kcj-80" value="" style="endArrow=classic;html=1;entryX=0.5;entryY=1;entryDx=0;entryDy=0;" parent="1" target="yOQESPadZOr60FF15kcj-67" edge="1">
          <mxGeometry width="50" height="50" relative="1" as="geometry">
            <mxPoint x="646" y="665" as="sourcePoint" />
            <mxPoint x="570" y="712.5" as="targetPoint" />
          </mxGeometry>
        </mxCell>
        <mxCell id="yOQESPadZOr60FF15kcj-84" value="" style="endArrow=classic;html=1;entryX=0;entryY=1;entryDx=0;entryDy=0;" parent="1" target="yOQESPadZOr60FF15kcj-44" edge="1">
          <mxGeometry width="50" height="50" relative="1" as="geometry">
            <mxPoint x="420" y="614" as="sourcePoint" />
            <mxPoint x="160" y="700" as="targetPoint" />
            <Array as="points">
              <mxPoint x="420" y="776" />
              <mxPoint x="160" y="776" />
            </Array>
          </mxGeometry>
        </mxCell>
        <mxCell id="yOQESPadZOr60FF15kcj-85" value="&lt;div&gt;&lt;font face=&quot;helvetica&quot;&gt;若solve函数的返回值为True&lt;/font&gt;&lt;/div&gt;" style="text;whiteSpace=wrap;html=1;align=center;" parent="1" vertex="1">
          <mxGeometry x="205" y="780" width="180" height="30" as="geometry" />
        </mxCell>
        <mxCell id="qqDaEJq4rcLlo0jyx4f3-1" value="" style="shape=image;verticalLabelPosition=bottom;labelBackgroundColor=#ffffff;verticalAlign=top;aspect=fixed;imageAspect=0;image=data:image/png,iVBORw0KGgoAAAANSUhEUgAAATUAAAEiCAYAAACYzEUnAAAgAElEQVR4AezdB/xdVZUv8IzPceb5Rt/T0VGpjo5IE4ggvRdlpA0wAooyPkFHRpSiwjCCIoIUgSAlwDAUKdKLCAgIoQRJ6EgnIQmQQIBUkkAqrPf5Ht/JnFzvvf9bzu1nfz73c9sp+6y99m+vvodF0QoKFBQoKNBHFBjWR89SPEpBgYICBQWiALWCCQoKFBToKwoUoNZXw1k8TEGBggIFqBU8UFCgoEBfUaAAtb4azuJhCgoUFChAreCBllBgyZIl8dZbb8Ubb7wRs2fPXvry3e/+L1pBgVZQoAC1VlB1AK/5zjvvxPz582PWrFkxbty4uO++++J3v/tdXHvttcnruuuuW/rZ7/53nOOd5/yiFRTIgwIFqOVBxQG/Bslr/Pjxcfvtt8fFF18cxxxzTHz3u9+NfffdN77xjW/E/vvvn3z37rvf/e84xzvP+a5TtIICzVKgALVmKTjA5y9atCieeuqpuPTSS+Owww5LwOvwww9PwOq4446LE044IUaMGBHnnHNOnH/++cm77373P1BzPLBzvuu4nusWraBAoxQoQK1Ryg34ea+++mpcffXV8aMf/Sj+7d/+LQGmH//4x3HFFVfEQw89FM8//3y8+OKL8corr8S0adNi5syZybvvfve/4xzvPMDmOq53/fXXx+uvvz7gFC4ev1EKFKDWKOUG9Dy2r0mTJsWZZ54Ze+21V/zLv/xLnH766YmNDFjNnTs33n777Zqo4zjHO4+NzXW+/vWvxz777JNIdRMnTixsbTVRsjgoS4EC1LLUKD4PSYFnnnkmjjjiiNhxxx3jBz/4Qdx2223x8ssvx8KFC4c8t9oBzncd1zv00ENjp512Su7jfkUrKFAPBQpQq4daA34sdZGauP3228dRRx0Vjz32WNNgVkpS4Pboo4/GT37yk+Q+7ue+RSsoUCsFClCrlVIDftyYMWNi7733ji222CIx9FMNW9lcn0PB/dyXelq0ggK1UKAAtVqoNODHsKF9+ctfjpVXXjlOPfXUthnxOQvcz30B25QpUwZ8JIrHr4UCBajVQqUBPoYhn+H+Ix/5SHz/+99PvJntJAc720EHHRQf//jH44ADDoh58+a18/bFvXqQAgWo9eCgtavLb775Ztxwww3xsY99LLbbbruYMGFCu269zH0E5n7hC19IJLabbrqpCNJdhjrFl1IKFKBWSpHi+1IKPPnkk7H77rvHZpttlsSOLf2jAx+uueaa2GijjWKPPfaIwiPagQHooVsWoNZDg9XOrorqlwWw4oorJtH/nU5hIjXKQFhppZXiV7/6VZF10E5m6LF7FaDWYwPWru6S0r797W/H+uuvn+Rmtuu+1e4jhm3dddeNf/3Xfw39K1pBgXIUKECtHFWK35I8zG233TZJYeoWr6PMAzmi7HuXX355MUoFBcpSoAC1smQZ7B8XLFgQ//7v/x6bbLJJ3HPPPV2j6umXih5sfPJFFy9ePNgDVTx9WQoUoFaWLIP9o7g0cWE8jpMnT+4qYrzwwguJpPZ//+//TdKquqpzRWe6ggIFqHXFMHRPJySZjx49OklW/+Y3vxkzZszons5FxPTp05OabJLp77333pqT57vqIYrOtJQCBai1lLy9d3G5l5dddlkiqf385z9PynF301MoB84L+tWvfjWuvPLKrlGNu4lGg96XAtQGnQNKnl/oxhlnnBFf+9rX4r/+679CKEU3Nf0799xzk5JHZ599dlIKvJv6V/Sl8xQoQK3zY9BVPQAaJ510UpIa9etf/7rrQMN+BvoldUs/Ox0/11WDV3QmoUABagUjLEMBktnxxx+fSEJXXXVV8Dh2U9Mf/VKcUj+7TZLsJloNal8KUBvUka/w3EBCyR+gwWbVjaCmXyrk/uIXvyhArcI4DvLPBagN8uiXeXbq3C9/+cvEpnbBBRd0HWgAXf0Cumx/hfpZZhAH/KcC1AacAUofn2Qmt/IrX/lKIrHxNnZT0x9qp/7pZ7dJkt1Eq0HtSwFqgzryFZ5blL7Nhr/0pS8l9cu6MU7NrlP//M//nPSzyCqoMJAD/HMBagM8+OUe3W5Rzz77bPzTP/1TyP3stq3qbM239dZbx2677ZZss1fs7F5uFAf7twLUBnv8yz49u5VKGCpiPPLII7FkyZKyx7X7R1LZ/fffH8OHD4/vfOc7uW/60u7nKe7XGgoUoNYauvb8VQXektTEgpGOuqEp7S2bYKuttorzzjuvG7pU9KELKVCAWhcOSjd0yTZ1PIybbrppkgvaDX1SMUT1W4G3+le0ggLlKFCAWjmqFL8loRynnXZaLLfccnHWWWd1XAXl5dSf5ZdfPtnJvQi6LZi0EgUKUKtEmeL3ePjhh+OLX/xi7LzzznHHHXd0lCK33HJL0hc7txdSWkeHoutvXoBa1w9R5zpIGrr44ovjU5/6VKKKTps2rSOdUW6IKvzpT386yfssAm47Mgw9c9MC1HpmqDrT0ddeey3xNAqj+M///M+211cTJ+e+nBYHHnhg14WYdGZUirtWo0ABatWoM8D/kYbSwFtq6P77759sT3fttdfGzJkz20IZ97/iiiuSQNvvfve78dhjjyVFIf1e2NTaMgQ9eZMC1Hpy2FrbaYBx8803J5ub2KFdu/XWW+Nb3/pWEr9m0xMSXCub6ytWqfqu+/7+979PbgfQLrnkkmBjs41f0QoKlFKgALVSigz4d/XKbG5CMjviiCOWSmvz5s2L3/72twnA7LvvvsmeoM8//3zum58IsHVdcWjAjIQGYN1fmzp1avzwhz9Mfh8zZkwRgDvg/Fru8QtQK0eVAf0NoI0aNSrJ+QRq9tlU3jtts2fPTvIt7TSlnPZPf/rTACx5Ge5dx/Vc18Yvhx9+eNKHbFK9PgJXGQ+HHHJIsk9Bto9pX4v3waVAAWqDO/bLPDlV7s4770wkIAnjN954Y1m7FdX0D3/4Q7Jrux2dSFPix/yW2uCWuXANX5znfNdxPdc97rjjkt9SCS17mTlz5sRvfvObxIEB2O6+++6WqaKA1gYvwkgKdTc7Ct37uQC17h2bZXpmlyeTWcpSXpJRegOBrQANQJDQqHvV7iEX1FZ1wj1ITKS2Aw44ICnaeNNNNyX5ohMnTkx2fgKCVEq2OQ4G70I0/C+v1PGKPTrfdVzPdV2/Ws4piU0/9Ve/77rrrpaAjv5ec801iUpelDlKOaa73wtQ6+7xWdo7E/zJJ5+M6667Ll555ZWlvzf7gfRhS7zvfe97iVGeQ6CcdFTuPtTCP/7xj8lu7sDFPqG77757IkHJ0TznnHOS6rmAi3FfaIb9BdjL/C8p3fHOc/6ll16aXC+rbpa7b/qbfnIY7LfffnHwwQfH2LFjqwJhel497+iuUglArgay9VyzOLa1FChArbX0ze3qKfiMGDEinnvuuVyua5I+8MADiZQEGLIG+VpvoPQPyQu43XDDDUk12sMOO2zpZshbbLFFbLzxxklljXXWWSc233zzkBUgf/PQQw9Njnee812n3lJCJCmq6De+8Y0kjo2aSKot2uBSoAC1Hhh7k1S81uc///kEHKQtnXzyyTFu3Li6QSD7uIzy3/72t5NoffFn1VTO7HnVPpNqHnrooXA9khk72bHHHhtrr712rLjiisnnCy+8MK6//vrkuDzqtQG2q6++OnkOauyDDz5YrYt1/Ud95g1W8qhwSNRFuo4dXIBax0hf+42Bmj0u11xzzQQYSDw/+MEP4vHHH29IKiENATThEirc2sjE5G1lI0mpsAGAWtH0X/wcdfaggw5KJNA87iM1TAgJCblVfc+jn8U1/psCBaj9Ny26+tOsWbMSgzXVjrfPBGuklDWAZKBnw9pll10SiYoDotWNR3PDDTdMVMxW3UvICYmWeguwn3jiiaYkWf0EahYQoFarrbFVz1dctzYKFKBWG506fhT7FzD7+c9/HuPHj2+4PyY6D6Ny2ACgHYDGU8mzCdRanYkA2Dgl9thjj8R58PTTTzdMKyemkpodtgpQa4qUbTu5ALW2kbq5G5HMxI795Cc/abj0jtxJqhkJ7fzzz2+5ypk+MdVQMG07QM09AbVt9AAbKctzN9qAGodGAWqNUrD95xWg1n6aN3THFNSOOuqohkDNxDY5AZpS3dTZdjUSzpe//OXYYIMNWi6ppc8kBANw77rrrkFlbxTYClBLKdo77wWo9chYATXpQT/+8Y+T8Idau80p8NRTT8X3v//9BNB4Hk3UPJpgVPsGyNWslk0AQPfaa6/EUdBq9TP7XJ4TsNkZi7EfHeoNGSlALUvR3vhcgFpvjFPiGBCPJR+yHqnjmWeeSVROEoug17wADdlE/ZP6qMRi3NjOyjVhG1/72teSmmh53r/cvUp/c2/AxoZI9UaPeloBavVQqzuOLUCtO8ZhyF6IkQIc4rAuuuiixFnAKF5N8hCIKlPAxr/Ap5o0NWQHSg7geZWvKU9U3Jx4tEqZDlK7VK79x3/8x1xBtaRLFb96biExJDb0qKccOMlS5sMJJ5xQOAoqUri7/ihArbvGo2JvgBcJjfeTCnrVVVcl+ZOVoueFbTCSC2+gclJf82yi/wXYSk8CbKeeemoSG1Yu6bvToOa52dgEA9tzgW2xVmkXIB599NFx7rnn5hKcnOcYFNcqT4EC1MrTpSt/JZkJmgVSckBfeumlPwu+BXKpDY3KKZ/ShM67AQUgcfrppyf9OfPMM5MQEWBX2khwgm9JdO1WP7N9oYryilJFOQ+oopUWhfQ8WRZyYy0SRUZBSpXufi9ArbvHZ5nekdbYrUg+1KJyNiw5lJwCvI2qXbQC0Ex0lStIjWquAVFgIXULUJQmfr/44osJqFGD81SBlyFOjV+AKtsi+rBPDhXHhuZCUtC6mqpf4+2Lw9pAgQLU2kDkdt2CrSgt4Eiaq7XaRb39A6psdGecccbS0BCBwWldtdKUK2WGSGo8oJ0GNc9KmqROip370Y9+lKSb1UuD4vjupUABat07NjX3jAplc5QjjzwyMcgr70NVbUVLq4UwuNvdiTpMOqSK+s07ySzbhHwoAS6roBtATd9IbKRL1ULE/nmGQhLLjlrvfi5ArXfHLum5iSj1icRhgkrqbqXdijorun7TTTdNyggp0AhM99xzz9hss82SFKz77rtvGao+++yzSc2zr3/96y1Rh5e5WR1f2NjQC92EpVCdC2Crg4BdemgBal06MLV2y0T8j//4j0RC4xQwUVvZSF28qhLGlftRAFKoiRQuNjWljAQJZ6vEKm5JUvNqhY2vmedFL7miABc451Wrrpk+Fec2R4EC1JqjX0fPZqAnYaiAwYbWasAQFsIxQO2k4mri1VKHBYC1acrIkSOXSbpXIgmg2e6u1X1sZED0iY1QgDBVVJ26ovUuBQpQ69GxI/2IV/vKV76SBOO2w1aVbmrMdqZ0dmljgAcOAm15GFMvKHuVyrqkuHbmnJb2r9p33mR9R09e3QLYqlGru/8rQK27x6ds7yZNmpQAmgh5Xrx25VPaD2DrrbdOqteWU3NJbTZAYV+zB0GqgorxAmqyIVrlwChLqDp/FE+HngpNkjhLHR51Xq44vEMUKECtQ4Rv9LbyLTkFTDwBr5VSkxq9frXzhHIIRBWiUSloVRgJiY5zgKTmOB7SdA+BbgY1z46eAorRlyoqwLlovUWBAtR6aLwmTJiQSEAi4lViBTLd3gCbHFE2NZ7Sbgc19ARsnB6Che0/iu5F6x0KFKDWI2PF6yip2p4CJAklf3qhATWbAdukWGpSqwKC86bFlClTkmBiqjSAo/IXrTcoUIBaD4zT5MmT4/jjj09sVaL4fe+Vxs4m24CTQMhEO8qH50UbdKbiyzzoFck4r2fv5esUoNblo0diOOmkk5JofEGvvQRoSAvU7rjjjiSco9dATf85C9BfgC6A6wWVv8tZuuXdK0Ct5SRu/AZUHiqn9CKlfXoN0Dw5UPv973+fOAqOOOKInpLU0pFjU/vFL36RAJuFxUJTtO6lQAFqHR4baTkmfml6TjqRbB5C9elFQENauaICdoV0CBTuJfUzyxrGwwKjugebZul48PIax6J1ngIFqNUxBoAn+6rj1LKHuhZvoOoaQiDSSWHCsKHxvql80cvxUkDt1ltvTWxqglrzLlZZlrAt+NFYATaqqABd40IV9bs6a0oYCTLOaxu9LJ/5XLTaKVCA2hC0wlA8dlQOHkipQBhYjqCYMcnjjRYPBGICU6llYqIeeuihBNxSiYCq0+txUmgjF9ReoyeeeGJuk36IYWvZ32L0mAJkTZCgLUZCVtgLBexKXasUwzdUpwQr4yd8hb/wGX7Dd/ivV6XcoZ477/8LUCtDUfXAMJJUoBtuuCHOOuusJHUG02JeICRF6Wc/+1ni7pcHeeedd4Ycx6lTp5a5YvmfFFtUwXajjTaKT33qU0lSteR0yeLyJ0tVnPJX6e5fgZqy3/I+STl5STKdfGoLDaeBjVyMl7jBT37yk/GFL3whSexPc2Fr6SNpD9+MGjUqSawXPoKv8Bc+S8GSlIsPLRD3339/wp+ldetqud8gHFOAWmaUqYJWRxVj1aXHUIouSu8RZ7X//vsnn323GQfpQ6iCoFJR/mxGVnEMamVN1cnMLZb5aOWVb2hCDBs2LP76r/86Pv7xjycTpZdVzuxDAjVVcoGaCdsPoOb5qKLi7oyXsfMaPnx4UqNtKIkKX+APXmHSHgDDPyoW4yd8hb/wmRe+w38+uye+BHyqsuDXXghozvJEqz8XoBaRpPOMHz8+fvWrXyX7Q6rtL+iSZIZxeO/EWkkRsko++OCDoWbYPffck0hoVk/xY5hOeo2qGVRI4FbNhiQB3ERfeeWVl06Mv/iLv0j253TuUKDYaubI4/r9CGqp88MmLimgebc4cSJUq0SCH4wt/lDuyL4NNq4h+eEjEj++wl/4DL/hO/yHD/EjvmTXY3O1n6kKLfg3LSCQx7j18jUGHtSogJKwrY5bbLHF0uqt6oSxd1EnifnsHSYooME8GNt3qoaVElNhxiuvvDJhWDuhf/7zn0/USDaScs056uR/7GMfW2ZyvO9970tA1fXcp5cbuinESNIw4XtdZUoBzcL3v/7X/1pm3FZYYYVEgqpkB8UHzAr4An8AtiuuuCIBLLyAj/ATvnIffIbffEdHtMOP+PJ3v/tdIuWrmLL55psn/IuP8fOgt4EGNfYMe2imKyb7CMZoJpUHM1JNlN5Rn0slDbYRK27WgIxBr7/++mSD3+xq//73vz9WX331ROWwWve6tGaSUuepn2xCvT7pjO/tt9+exN2tscYaYbzS8SNlk9RJVNnnNO7GHx/gB3yBP/BJM+MLBPEr1ZXEh4/xM74e5DawoKZeFvsXNROTkbCGsoXUyyjKbLOXYGTGf6ENqaSi/pka+VbtNddcMzbYYIPYaqutElsKhhceUE11rbcvnToeqJloJLVzzjlnmcneqT41c1/ecDXhVCIxTmxfyjGtv/76sc466yROA9JXujAaQyWbjD8+wA/4Is+Gb/EvPsbPvOYcXYPaBhLUABrm2nbbbZONbSVcm3x5NxOAKgK8qCsCaakN7mUlJ4kpJa0cNoMv54BVljE9K9Xl3a92Xi8FNcZuIJCVYNrZj7zvRcICJurKGWNFO5ks2LzYwkh0npX33Lgbf3zg2FbEnaEzPrZRM75mdxvUJPyBAzVeJ54j4rqBF/jajApQy2QhlQEv0ehWUxIbpgdeVIhW37+WPrbqGBPbZAZqHDGtWDxa1fd6r2tMSXGkcWNqnKW4iWljV2x1dWL3ZG+jju6www5JMc9eqeZSL62rHT9QoCawkX3H/pMM9O0U0a3q4tmUDrKaUi8HoQE12+YJVQDsDN6D0ICLcbaQ2aCmnRKqgF3hISREkmM1b2w/jsXAgBpPEgOuYoV2Q2K4bYUaUI1JlN1ON9GVIN2uMtzV+tTq/0xmDgKgBtQHAdR4KKW5KVlESi1X+ryVdMfXTBsHH3xw4qARJtLP2kApLQcG1EhlqpiS0khrqcG+lCCt/i6NBrPxVLGl9bM6hpZATQyWkJnLLrssCU9oNY07eX2gbVyNr3FmK+1Ew98cNPgdwLZTK+nE82bvORCgxnYFyNTEkn/YyQHG9PbI5A2knmD6dkuMWQZo9WfPK/kbqMks6OcAUc4d42lcja9x7qRkis/FwuF7qn+/ZHMMxbMDAWqSkKUwWT3F9XR6YlFHrJ6cBlb1dtpbhmKIZv8H0OyHVDBOEM9qIbHxCmM5Q3rqIPHc/QTopCNZAZwDxrfdamfp2OFz/I7vOcUqBYGXntfr3/se1Kh34oTY0aifjQ6syWcl9mp2IvKScfVTT0SYA91+aeijwgRbEjCTBsZgvdlmmyXSmhgqLwAnit7x/dIE05JKJbobX+PcaGMDw7skvWb4Db/jezmjgob73dyB3n0PanYGUh1CXqYI/kZtaZjLyut6eagUPFRWc8AmsblfDLkmoOBS9Jb+JeL+f/7P/xl/9Vd/laQV+b7ccsslIR4CWPsF1Iwf0JC2BESMbzNNXrCyRkCpGX7D7/hevyTP499+b30PahgDcIjoVq+s0UlEbbJ/JakvD7VCzJIKHTxk3O79pIJSO0kq//iP/7g0hShNJfK+/fbbJyWX0KAZKaSbJqfxM47G07g2G5MmEFsiuzjKZmxh+B3f43/VZMyHfm99DWpsCuKFDKgMgkbrk1mFRYkfe+yxiRFYDTRM1wwQSVJmSGbvEObRb7FEpAv2QjXG3v3udyfg9p73vCeJrFfe2/P3U7PoGUfjaVybfT5pVrIPZJg0o8aiMb7H/6Rn86HTNuVWj3tfgxrRW4yOQER5h42qnuwQgIwBWLoLo6sKGlSEZiQNDKZ0jJCHfqmflmVYEtv5558fn/nMZxI1VDWJ3/zmN00tBtnrd9NnaqIqJMbTuDbbAJlF0+LQqHaR9gHf4392ZY6DRudBer1uf+9rUJNBINFXoUfVVxttJDU1sKixNhA5++yzk1w/q2kzoCY3j/1FIO5jjz3WNPM2+nytPM9kV51CZL3cz2bVslb2tdFr4wH2QTZSFWo9c7NNOp8AcTmleYAQ/pdF491i3M+tr0GN2E0lMJhsYY02TMtTZ1Ly6GE2do5mjfvy8hhvSX5W0Gav1+jztfI8UoZy1SRbE7Ufm3GjEQgbyssYL41O8Kwk+TxME/hfaS083KgZplfGrq9BTaiE8AHBkOw4zTS2DV4kRuC8qh8ANf0Duqp3NGuHaeb5inMbp4BxYz8UNqGcVR5J5Gy40suuuuqqXCQr/K9/Qk76KYSo3Kj1NaiJqD7llFMSO0ezoEbKwGBUT6WL8miY3yTAbCZFP4CaZxB4K1aNSm1y2sCG59i7735HQ7mv/fLMnAPsaXmBGnVWIQDqYh4qewpqFlHxdP3c+hrU2DasdmxqysA001oJamxOku2b9XI183zNnEs9Z9QmwQJnKrq6++xoHCs77rhjqOfv3Xe/80hT1RzvPOc3Y59spv/NnmvcjJ9x7FZQw/80AvOhH51S2THsa1AjMbBLGEy2iWZaCmq8SHnljrJtCAxmXCbF9KKrnc3MvpdovM0228TnPve5JIxDWpTfOEF4BW1M4913v6uWIo7N8c4DCGjQrKevmTFu9NyUBur0eb48bId5S2r4n01NLJ150c+tr0FNDiIDKfVOQm8zhngA5Bqki7xWOoGQ4odMdkDZS5KKvipvw1650047JdVWFd4UuS5ERXS95+Np470TFuM9jZT3v+Mc77ztttsuKXfteq7bS7QAENRtqp3t6/IIcM0T1CyWeJfGQqI0L/q59TWoATHR1CKpVStoxpUtPESVCVIGEHLdZpgDo/GYqTPG+dBM39rNoLxxErdt0/aJT3wiyRAgwTbqQHGe82UauJ7rslEJaO2Vxu5lHFX45cluVuIEamiC55q1qeFd/G8e4NtmFvdeGI++BjWrvTgf0oAA3GbK/AAhoQnc9jZKUWFDbbRGJQoTlmpsAitz3SubrMgdFBZAsrJRDBsNKbOZVB4TxfnCZlzPdWUioEuvqErGz/6b0qQUw2xmwUMP4JMHqAFXfCvJ3jwwHxrl2V4ANH3sa1DzgNzX7DVWUInjzRjjqU+ATIUJIRjNSFecGDyzbE+i7JvpV7uYDegAdeqmDZsFNssayLO5nuuiC7X0qKOOSsAuz3u04lq8uDyV6MJEIcWpmcZDDCRJxM3EqekXlRP/G7s8AoObea52nNv3oGaSWDllA1j5mgGiPAfEzj82yDjmmGOS/Qq6ffVkMzIpbOmHlgKQW9lc333cz33dv5sbiUh6FGcBg7zxbaaJixSAK/SlmXJBVE+hIWhpMW5Wgmzmmdp1bt+DWip+mxipTaHTACK9CqNZPcW+5S3t5M08FgIeWluvkZyaLatTa//cx/3cVzpZs7alWu/b6HEkKuPJTmp8070/G71es+fh89SmjP9pGYPQ+h7UDKLVSkiBCgrsNJ2W1jCaQM1myyG1g0ElVLOhUTmt9jx77VoU3Mf93NdGwNSxZmqLtZpe7K7CUmxwbHyNcycbPsfvtuhjq+z2xTMvWg0EqPH2CBOgFnAYyENs1jvV6ACoxSaUwWqugkWnAXao5+CF22STTRLDvWyATjRAQQ1VPVd/urkZX4uA8TXOedTea+R58Tc+x+/4XkZHp3i+kf43c85AgBoCsSVQDRhyqVJ5BdDWQ3yOBqEKKn1wXlCvupnRGLtNiuHDhyfG73qeNc9jSUCCWj/72c8msVbdnJBNujSuxtc4G2/j3u6Gv/E5fsf3nVaF2/n8AwNqiMrYbKCpofYGaGdpY16ou+++OwEJOys1U1q8HQwCSHghV1tttQRI8oiSb6bfAFYQ9VprrZV4Gbt5MQBi6u8ZZ4uCcW9njiu+xt/4nC2y250szfBFuXMHCtSETaT2LHFmbDS8TK1uJiAVSkS3+3aDXW+oZyYNpSCiNHc3NAuBGEHqVB6VMFr5TOy4+CFVXTwAACAASURBVEthUePerhQw/Oy++Ex2Bo9svwfblo7jQIGah2dotnIKRNxzzz2TqhutlEIwFPf+gQcemNyPwbbZGKbSQWzFd4nmu+++e1ICWnxaNzQSB+lHUrz+dXszziQmfGb88UErAQYfqyLjfvi73RJit4zHwIEawgM2gbgG3vZtYsVIcHl71jAZFe6b3/xmslM2w3EvABrJUk7qBhtskGygkodNSNCnaPZmJrWsA2odh4F4MCpytzfjzfMOaGxwjB/ytglSbfEvPsbPAFSl5rz5udtpnfZvIEHNw5tcDzzwQJKAvNtuuyWlcgTpqjXVTLCja/NoqlzBfqfMDpe6hGIqSS80dc722muvpIJGHlIaeso9JGUJJm0mJMT5W2+9dZJxoJ+90HhAqYRSqNAVX+CPZj3f6MohcNlllyVhJCRrDgpe6l4A/FaN3cCCGoIaeCDGBf/P//zPscUWWySrnHQXqykbXC0GaZMUSPKwYig1tXbZZZfYcsstE7sU13qv5Ham9j/0MAGbDUlAG8+vvNAqq6yShLE044nTH/myJJJ22anymHyeWQEDdkq5rfgDn+AXfIN/agF7PEsyw5/4lFSGbwEaPlYcYJABzVgNNKghACaQjqKIni3wBHmuvfbaSa0v4jx1QWwUwzQ1LGU8gCeCnOSgjA5bhtgk9cE23njjJFuAQyDdPKPbo+HTieu5VIYAHFb9ZitloJlgVMG7MijUUaOGNtr0h+GdOqef+tsrTV9t9Iwv0AKf4Bd8g3+YRPATvkqfC7+hIf6jYuJHfKkW3TrrrBNf+tKXEsmPtIbXBiXAttqYDyyokZyAlRietP4VdeCKK65IbB8modWPUdpnUgubCDucigcmKpe5FZf6irkAYmqjswmthiF57bx6Qf2k0kjxoTKbaM1KmGi70UYbJR5LidUq4JIwGpUmSDXq7FPl9LNZU0G1ydHK/9I8UXyDh/CaBH6f8RX+Sitr4Dv85z/Hk6IdCxjT0kTGyeKKf5tJgG/lM7fr2gMLaqQzhnuVQEsrF5hwbEkXX3xxAmIi6oUSeK2xxhpLX77b0xLDnXzyyUkdLZMu24Caih5UDe/NbICcvW6rPuuf6iEmlgToZkCD1EAqMQmvvvrqJF7KhrrKfZfSvNbn0R9jts8++yT97HZ6DvVcaKT+GpsjYMNP5fjMb9RM6VeevzR4nERnHwI5nux1vU6XoehW7f+BBDUqDAlNKW3SWqXASKufuB8MROIQKU518lKbzW/CDNg3sipDluCYjUEbQAKLPAzv2evn/RkI279S6R+exmY8aKRVnl/PTUoFSK7JDuS9kaY/aYkf/dTfXm9UTfzDU4qf8BX+SnkN3/mN/RcvVapd53xqqAq83Z5O1soxGzhQAzIMttzs7GilklWriK1Qnz1IqQfd7LUDEiQpoAY8mgE158vZJKGmTX07XlBA10h4h/5YkEiS+jnIEklK0/SdhsFmR2sgZTfr5Emv22vvAwVqBp3UxVZEcmonuJBSRo8enZQCp240a6tqFaMBCSu9nEFqTqPqpwlFkmIIV/IJoKtnJ5xB1Vz2IlKJRaaepn9pxLx+FqC2LPWos/blEOQtVi11OCx7VH9/63pQM/mJ4qKjGUIBg41PGlnlgZhV3gQTo9bINZphB8G4bEuqc1DNagkXSe/H+8VWAhBJmiS/Zj2T6bWz7yQh/ZNmwyBfSdXJnlPus7Hi1eNwEKvHW+nF/sjIz/gtdq+S6l/umn7DDyrL8s7qZzOSZKV7dPfv1RcBi4TcTwuSEA8qa6185lxeeqor1Zfai9c4eHhemWIadfC0k6ZdDWomlJJBQgswsZcJQXUkcdVDYGqV8itWMCk2nQixMAE5KIAqcKs175TUYz8D9imVHwCFXYusxHlLfIBericgkjvYiCfNuKTOBrFknAIml5cQGiqS4o9yOGulQTopjJv6aryA+tnuhSntRx7vb765KCZNmh3PPz8zJk2aGdOnz6squc6fvygmT54dEybMjOeemxEvvzy37PFADDBdcMEFiQmhHo3EePH4pyYCvMarbxFir+sFlbZrQc3EII3wCmF+XjRhEewF3N317sAk/kfGQOo5qlftyYOJXQMIWflIGYJShzJ0+19sEhBwDgnIHo5UL95bEl+jKmK5Z0IXwEuqEqpS78Ynxs35pDQbGldaPOzIJWYNLeqRBkkhaWgD/ujUOJajXa2/zZ+/MF57bW7ceutLcfDBo2OHHcQFXhdXXfVkLFny9p9dZtGit2PWrIXxwAOvxYknPhy77HJjfOELF8bRR98dixaVTxUjxbNl4hE5p7XSmGS2wgorJGE45os9Esw9Y2knNXsndPtC0rWgxlZiUKzKVMaUealhgi/V97fq19IMMOkMEBKj8wSBWu5feoyJ6ZmoB1TranYPXkPxSFZKYCEynfREdePed51KwFF631q/s8tg4s033zxZWGo9z3GexbiZAGyX5SQ9x6gzJvzA6l9r/B4eAGRCG1QNbiYzoZ5nyvPYBQtsjfhSnHXWI3H88Q/El798S7zrXSfFe997Qpx44uhYvHhZUFu8+J147rmZcemlT8XJJz8YhxwyOpZb7twYNuyHse22bJ6Ly3YPrUjGHAbsx/gsnUNlT/j/P5LU5NYaf3yaNtegMTEDdXr+pH2q9N61oIZhqRcSq6mNaWODEfMlodmgDTVQVD4DRcoh4ZSbZOm12/Wuz9JjBI/yEALqSo3qYD9MKVckNjtPkVjVyVKrixqbN6jpC3uaHEsqTD3gYRUHviTKSoDt+dlF2UfZNmu9PrDVH/QAmL3Y3nhjYZx22h/je98bFZdd9lRcffVzscoq58ZHPjIiRo68/88kNSB4++0vxJFH3hlnnvlA3HjjhNhrr+ti2LCjY8cdr64IamhjrlD18b65VMviYdFn5rDYZJsYONoBUBtKu8ie14nPXQtqGJjoKyUkG3PDXkCkltLErlYN1BzLnkOq8QKCtRpNWz0YgAij8AgC3UoGbzYnkomKGelz8P6xDbKzkVxasXJSQxj12dbS7IhaaGI8PIs+VVNTqKnpcbWOiX7oDycGQOzFNnfuovjtbyfFzTdPijfeWBDjxs2I4cMvjA9/+JQ466xyoGZD7slx++0TEhsaO9oBB/wuhg07Jnba6Zp4663yklpKGwsGLYVWwNFUic/S48015h0LZ7YxE1joClDLUqXOz0DN6vLTn/40Wc3T000U9hhgNxSoSXsCjICDw6Gampdev13vJn8aLGlVrBTeANRE5FNBSTeAWQCvz55vKCZt9Hmo7Gi88sorJ2p7o9fJ8zzmA/0RFoI/erFRL6dNeyuAm/bii7Ni+PAL4kMfKg9qb7/9Tsye/VbMm7cwOX7OnAXxve/VDmp/useLiQpqMWSyqbaIpKBGg8g2MZ2FpJalSAOfGTbZXdiNrBJpM5EBnRdQqCSpEb2pNtz/VLZuUDvTZ0jfgSxJi+TJNqaPpc9DZRDT5XmzMVk+CxFxTjWJKL1XI+8SrOVtMuiLaO9ko8oKCJYErl/90saPnx7rrHN+RVArfc4ZM96K73zn5polNeeTis0FXneCQjVzRTVQKyS10tGo87uJquoAr58QDl4XcTMSeH/wgx8kNpVqg0OasTIRu7s5NYl9gqifMkypKslbSkIB7rxRJjc7CenOs0mMLj2nTlJXPJw9j1Qs95UNMwuqFU9qwR/uC9T1g9pdi22oBd1oySXbAWo6LnNGUC4+A3CVtBb/CbzmYMg29mib3wgjKmxqWcrU+RnzWlnES1G/VMjgBRTWwRhdaWCoZIBCRHsv1GinYjKAc4CQPrONqkDl9N8+++yThEqIVSO1oAOAa5WkRmq0IHzhC1+IDTfcMJF4W3Wv7DNnP7sfSZvEqMKHNKtSaTZ7fK99bheooQtzDT6z2DN3lGscWFLQSh0FQE2utODvAtTKUa7G30xocVL0eR4cL9IKQKsmnYj/EvzJLpB3cGqNXa/7MF4nNgseztIAR3SgpnKr85iSVtABA5ZTWeu+eZUT3FvyOVAR4sFQ3K4GvDgshBiQ0ixw/QRo6NhOULPYUy9J3eZGOXssTzw7dOlu7hY3UQhsuZWEiXbxxVD36VrvZ7bjbAJAjJ2tWloNhgcIxGS2tHoDR7P3bPdnzwa8SaVWQ2CSbZ4NE1olh6JD9ry8PnO2KEq44447Jl7bvK5b7TroQTpTtBOY92NrJ6ihH94RBqQYgMW/tOE70nEp/5mD6e/dvrD0BKiVEr7Sd+5r0c9HH310EidV6bhu/V34CUCmNlMru6kBU8CinpyimZw4rZKCXdf13cf93LfbVZ5Gx6rdoKafpHtagVhHpo9SAGv0WbrlvL4CNeqY/FCpUL04CayG7B7shuwX3bYiposGyWn99ddP1OFqzppGmNz1qNmu7z4WqVqDcxu5X6fPmThxRuL9/Nu/PSXOOeeBIbsze/b8OOCA//Z+LlxYPk1qqAtJnbJ4sq/1k+PFc/cNqNH3pU8BA6EOvdyEd/B2Nlt5thU0oL6w54mdY2fjvGDIr2bjrKUfFiF2HtdjP5Ow7j7u18/ttdfeiLXXPj8+8IGT48ILHx7yUUlVBx10S5JRsMsuy8aSDXly5gDeUPSVuE4Y6KfWF6AmUJQ4zSPYzeEbtTKOEAaudxJbpaDcWq/VquMsIpLWAZAqDtLZFMAU9V9r4U1qkOOdJ6+Quul68g5lWfRje+utRXHDDeOSPM6TT34kfvSje2LllUfGBz94cuy99/Vx4okPxfHHPxTXXvt8TJ8+P0mbevbZ1+P88x+P449/MI499v7YaqtL4j3vOS7WWeeCOOGEB5PjR458JB54YHJd0r0iD4QAYydkql9az4MaFU0Cteh3Ek6r7DztHnDqgWeifnWrwwMo8UiKa/rsZz+bbP0mH5X6z9kh5slk4bllI/Tuu/hDKWK82QpI2jLO+a7jeq7br23mzPlx6KGjYt11L4rPfvbXsdFGl8euu14de+11bWy//ZWxzjqXxKqrXhQHHXRPTJjwRixcuDhuueXZ2H333yS/r7/+ZbHjjlfFl798bey889Wx7rq/jlVXvTi22ebyuOiiR/8sd3QoOgoX+upXv5qAW7+o+T0PalRNAbpCOPoF0DAidQ6wmfSCJru16afYMSooB40YOvW4lPG2jZvNRNTAo1ayd5Lqtt122yRZXgkhxzvP+a5TTo2dO3dhvPrq3Jg8eWZMnfqniZ6lx+LFS2LWrDdjypRZMXnyn79eemlWTJ06N+bNWxR1FtrN3iaXz9KkXnjhjfjjH1+PP/5xWjz55PR48cXZMXnyGzFu3Mzkt0cffT0mTZoT8+cvSSSvWbPeSip1+P2JJ6bHhAmzYsqUOUkttscfnxaPPjotnnpqerz+unps9XWTR11Au4opYjvZdXu99TSoMXCKtldzTZxXvzX5jZ6P+53U082NxMx7C4ipk4KFFbIEyoKmlQrykvKlbJSQGzF5jndeqVPE5FywYFFMnDg9Lr302dh//9tj110vj6997ZZ44okZGVK8E1OnzoqRIx+L3Xa7OXbf/YY48MBb4uijR8Uxx9wZRx11Rxx22G1xxhkPJYAhl7Joy1KAhDZy5MikSMRQuaHLntmd33oW1EhlytuwB3jvN7c0dkmBAmjLDy0Nyu1OlvpTr/TdosNuI1haZod33/1eCmKlzzJ16ptx662T4swzH4mf/GRsfOYzF8ewYUfGX/7lGXHHHZMzh78Tzz47NfbcU5L3yFh77Qvj+9+/NU47bUycccb98ctfjonjjx8dF130RDz77J/n1mYuNNAf2TalxKkE0+ve0J4FNYOQJoJni9n1G2eK3k5rWUlV6VT+Zbvp+sgjr8exxz4QRx31QNx006TYd9/bY9iw4+NjHzs3Ro/O1p97J8aNezX22ON3sfLKv4oTTrgnXnmlf21yrRwH2SIqoMjiKM02GGoRamW/6r12z4AaIvOqmeQqdXD/E5mt/P0opWUHkuGcEwSIq5Yhq0IIBHr067M/9dSMuO668cGOxBZ2xBFjE1BbYYVz4957lwW18eNfS0pcL7/8hXHmmWNjzpz+DgPJ8kaenxUwYF9TQILQAMhoRMwg1TJ58uxDHtfqGVDjELCSKDsjfotXUFhB6YqSB1G68RrAm1dRQrJoe6tptaT+bnyGevqkQqy6Y6mE8OMf35+A2vLLlwe1HXf8TXz0o+fGSSeNjieeeDWeempm3H//q8GQ/tprb0ZhSxua+hZI9k3Bz+aYkl+cVOzVwqZ6pbUd1DApaYuXi7RhBUgZtxLR/G8Cq3Yr6FM+oHQi3rJ+lVRKaYGpSGs8iKpmHHDAAUl58nLewtJz5exRW1N696KH60c/GlMR1J577tX4/Oevjr/8y9Pju9/9fVx99bi48srn4mc/+0McdNDdMXLk4/Hcc70zKUvHr53fSf8S2vHXDjvsEHvssUdSYbkWe655mmoR+NI8H2put+LZWg5qJpPUF5KWWCVlmK0A7ENikqwEflMrTR6ayVsqfQEusU2KFb7nPe+Jd7/73Qm4SXjupzCOagMsCJdTZPnll49hw4bFuuuum3gPSyPu0QpNGHtVVLDKkm4xakpv30WRWxQwK0budqCrBmoTJ06L/fa7JVZZRXzXvXHVVc/Hrbc+H8cdd29svfU1sckmVycBqhMnvlF3yEO1MenH/6TpqV234oorJnz2/ve/P4kuKAdq5qn5at6av+ax+YzPzG/z3G8qfqj+wYxSyyLcLF1bBmqkA5PGwymVI5DUzlCi/sUsqTMv6M9nsUoKP/LyCWHgzcymOplwiCPe6V3veldCbHmBKkf0uqemlgG02qmooD4/QAdqnp+akA2YBHAkWhKdDAuxR6Lz1cdC65TeaC4bwNaD4vvUzup2FaMyqEXMmjU/7rprUlxxxVNxzz0vx/PPv5GUwB4/fkYSob/aahfF6qtfHGef/UQ0mitZyzj1wzHK3tvY5i/+4i8SPnvve9+bJL5n5xl+ND/N0zSkyvw1j/EWPjO/fTbfzXvljsxXgoiwEVJcq1ruoEb8JAUwaotPoi7JL0sDZKX/MERmXwz+4pbELyGMyYsQae1+apMVwF6Un/vc5xJiiYOykcQgSGqYSPoXm9qBBx6YlLRWYwyTMOICNhH84tkwEfB3nCoM6GwssvTmugd6EpoxI+YDfMZI7bRqu1u1ihGHum41UFuyhNqzOBYsWJiAlu9pE+S6++7XxrBhp8See94Sc+a0bjKl9+zld4IIIUQ8oZQ1EhuPKGleU3kZH4o/NE/N1zTu0DzO8pnP5ruF0wJrIQV4cMF/cKIVDohcQY2YaesyIOaBvXtgRn3q4+TJkxMR1ETMvkxKFV85AkxUydwmJ3XTpGMcF9CJaKQT6TbU2k7p7O1mWqBG8iW6WyHVwwJU3knC8vfQWpqRCsFsj7xYTz75ZOIpRt8svX228vKkpudjNLtxYzp5mMJIUkZu9/OWu181UCt3fPrbzJlvxaGH3hbDhh0Xm29+ZcyatSD9q3gvQwHmC3PLwiY4moTFMUW9xG8CqC2A5qZ5ar6at+ZvOT6jcpr35r+KIPAgiw/Or1SFt0z3avopF1Az2TyYrbW22267ZGs14MaGZvIg0lA2GxMXaiMMHR2KK1ctrUaiM6Tn8RsEyayWkZOzJ3fSHo1SkqiZ0lzYRDAS6bYWmhsbIAcsqQYYlSOCQ4Zq0S15p9VATfZBpfQg6VOCcYcNOza23PKKmD27ALVa+Msx5iSbGY2IFmAuch5YRM1P89R8NW8dW60RQJhH4AFcgA80L7wrX1hmSV72tlxATczYNttskyQlU3mUDDaxmvFMkkwQzUYP0m0QE2i69qA3wK5woiq0pCsbsFhJS50G9dIJU3HpM/TyeinQqBIvG0inWxqnJqTjvvv+e+dw/XrzzcUxbtysJAdSTuSSJf9dNfjJJ6fF1752faJ+/tM//a5QP+scSJkgFkwRByR4TiYLnfnZaIML8MFchhfrrbdekg8MR/JoTYEahKZ/r7766jF8+PBkopVuHJJHJ8VosbmRICRDk0gGtcmeYM9gW2SjUKHEappnw7Akb2rGCiuskEjenc6tPeaYBxMVUvCtpO5se+mlmXHEEQzcN8YvfvFgkiDu/3nzFscvf/lorLTSyFh11QvioovGxaJF/w142WsUn/+cAooM0LxIU+xieauJ7ggvqKDwA47Ak2btbA2DmjAN0sIqq6yS1K5n92plk0VAZE1L3DBoNyMJtrKvrbo2KYrktOqqqya2r1YDDemP/eMjH/lIYiNtZ82tSZNmxpVXPhUjRjwYI0Y8EJtvflUMG/bzePe7fxnf+c7tMWLE/TFy5MNxxx0T4tlnX41TT300NtvsuiSE41vfujNOPPHhOOSQ0bHVVtfEZz97cZx88gOJl7RVY9NP16VKml9pSSjzzvxrZYMf9sCAJ8weJLlGW0OgRk1hsF9zzTUTTxxpYSidutEOZs9jJ2IAB2xWD3p9M2Jw9trd/pk0xq7xyU9+MlHDSa/taGwm7Gwf//jHE+OwlbUdY3333ZNi772vjU9/+txYZZWzY801L4x11700hg+/JFZb7bxYZZWzYr31Loif/GRUTJnyRvB4jho1Ob7znbtinXWuSmLWVlvtkth995uTKh/Tp7/VDnL1/D3MJxVhzC/zzHwz71rd8BQc4XEltanKWxqvWmsfGgI18SnsOTqgI62MOSl9EAS207RaXWxsrRCJS+/Z6e/EcU4BjMa+IS+vnY1tU4iNlVQmRzucB2LPnnrq9Rg79uXk9dhjr8czz8yMp5+eEQ8+ODX5zfukSbOWqpRUy5demhuPPDItxo7lbHotxo+fnaih7aRXL99LyAazhlg1EhNHUrsaHIEnm266aVKTj2OwkVY3qHH1cutuueWWSfpEO1bt0gfjrROoyysqZiZvm1Lp/Tr5HX2pfdRAxnv5rp1oVFHMzqbJoNus3aMTz1DcszoFmJSogQQG88s8a3djUhL6sfXWWyexltkg/Fr7Uheo8a4BEVKalJ1OhleQVgSYCu7lIe3XRv0TzsKdLt6vnStnKU1J6DvvvHPigreiF62/KGB8bXgj8FYsaKcanpftIuJBfGq9PF8zqEFQ8SUiiAV4il3pZPOgJjm9X7Bps+EMnXyWSvcWZ8ZuKFxGUGynQyt4XkWI77XXXkkYyaDYMyuNTz/9bv6YR3KKCS6dlsSpnjQDWiEtoR6NsGZQo+Kpiknlk2bTDSDiYUU2Cz3oR2kNiHAOoDk7Yqe9ve4vbklsHCmZPbMeZusnEOi3ZyGlydcktMg06XSjBcIZGgpprZ7slppBjbdN9r4Idik0tTSTAPjR1VsBgrwjVpUNN9wwDjvssFq61FPHsJ9xxqB5rQ4RNBe13YxLvBqRXFsuIOYXL9hOJ1G1fhX/NUcB6Yg2kCa41BrZr3KHVLxWmaFU+cD7UrXq2fqyZlATSSw/EHpK0amlUU8cS4VqVZK0VUVEMmmmVcSt5VnzPgY4KdQn+JXRtlZ1gMoqR69Rz9FQz0Htt6gJACZFWrCK1tsU4BBgJ99ggw1qXjw9MbuqijCt8obDDnhDBSVJ1tpqAjWMLBVHkrm6XLXErVBLBOxZzSVfQ10qbHZykrQQ1HHes//V+gD6pioFjw3VCBj0QwMWQEPmgLSlWppn5y2ijktpQVdG19T2ZUxIzKQ417cINEIvlRw4LyxyihgUKmgto9Odxxh/yebmD76pZw4KBlcdplULG5yBN3BHSFOtEmRNoCbgkgjIliJ9ppaJ4BgR71Z0ez8SbwXyKVyo0ZHVbqI+So246KKLkl256yGq65BM7BvJU+LB+0VaA9Di8CSW1xrGgQksItQIzgUZH5giLfCnBr2qHOKPpKb4D2MOlfheOh2BpZw9/MCW2WiQZOl1i+/tp4D5QmAxf8zxWuZ22ktz1fn18k96/lDv+gJv8Bl+q3WDpZpATeHBww8/PPF61rr/pNVb2AUwMzGl95A4qKGkBeIkMCKNSMNQksTL9euZJB6cHcDGuCLfTdx+aMBpt912S+hWqz0Nk918882JGrHFFlskoKZsjJXUSy6fmmlorp6aQFqR2+yl9djGSNXUAis7I67vRetNCpgv5ibBg7mjHlADMpLSUyO+EkNjx45NSg15F/OmfFEzBUjhgWgL2CD6opZWE6gRT4Hav//7v9cVv0LX9mBUFcyPCADLQzI2i3WjlppU/hct7/d6U4BIC+JrqKEI2w+NlLX55psnicT12Cyohuwjaquho0UEYFnxrMQYly1EeIhSQ2rUieLmAKi1WZSE02A245tKgrWeXxzXPRSghQnRUQZIdeV6Gr6xl4EoBM13oUcKuNK+xJoBTPMfr6XgV889xMvBHfgDh2ppNYGaWkc6qCR3Pe5e9py0nHc2rk3EsI6qZps+qEklbAE4kTbqaVQ10fbSiEzqfmicA0r/YI56MiYci0HRN9tIVpgXczHAohPnD4ajitZDN3ZMBmKmBWNWD+hm+1R87jwF8ILsIFpBvel3zD0bbbTRUrChxn7wgx9MAuJpBUCIpEZYoT6m4FfPU8Mb8XPwR0n/WlpNoEYSgpTUFUUIa20AC3qbNFm7kDJCJhOCZhuVVHoEO1s9zYOLZ5GbWK+UV8992nmsGnJKKWOUWhwzad+ogsDLeGUbxwGGI8WxUXixu0mQdyzbWq2NtM2UQN0n6TWSylLrvYrjWksBpo211lorMd/UI7DoFeFEWfnUJIUXPvzhDyfFXVOnIM3Jwqd0PFCq16kEb+AOHq01FrUmUOPhoNOyxdQTL1JJUoPaQK10haeHWzWoNvU0K4CVRmhHPf2r5x7tPlZM4N///d8noEbdq7VhJqBWGreH3iQ/qx6g5JHGLMYCs9TjYOGFUpqGvZQ9tFYDbq3PUBzXPgoQAmQR7LrrrnVLUir1qLeWlsDCU//wD/+wDPiw8+Iv/9EM6gU1/aO1oP12KAAAIABJREFUkNTgUC2tJlDjpSQ5MOzXk/MH1BiqMT7AShu7WTnpgIpKekCsepo4OCoXKaQeiaOee7T7WEX5lGCxQUU9LnPhGqmDIdtnNLfBSh5BuSRHDgbxQwCyX5wzWXoNyme21bR8u3lUTzNPFThIQQ2vfvrTn16qjroWUwV7LhsxcKsX1IQMsb0Dtay2V62fNYEaDwdJzcrMflVrS0HNw7LLpY06yuZDHE3dwSQFEhovDCCstSESFZctTvRxv0gNaaUCCwljbq0NaFHFlQrKNjY1zgOe7LRZRdMYwTSWLf2v2juzgjGUVYCx6wHdatct/ms/BTiSeLEthOZRPaBTDtQUecyCjwWQhIVfGgE12CPBnhDkcy2tJlCjd5PU5FmSpmp9cGqT6HP6dDZ/C5gJLWBbS+1qHAomnd9rDWHwgEDRKkB8Jo30ywRDNzty8TDWUzHBQvKtb30rMc5SxQGX5no2uABu1HVqKmMu7xTmrEfaApw23+DpUoYodfbUwnDFMd1FAYuahVNIlHmUChm19LIcqH3qU59K4k/T85sBNTgDbwTfsgnXigs1gRqXPWASMgF1awU1qz91lYuXd1ISNBHXhOLhNMmoMJBYMi1vGlG21shhhBNXw2AtIpqdp54Yt5Tw3fhuANGDR7dWW4LnEL4hxo2rXVkmErFr8S6jj4BeKzPgQ3OeKZIxMKy1KRrJ5ud8YQD1SHm13qM4rj0UoB7yUOIz86ieODXez4033nipo0Ds48orr7yMVgbUpOxZTEU71Iodnh5fCfnCx+xqtYYO1QRqVnseSZKarIB6JoCHYpMjESglkqqhvHRyFBHSJDNJHFfPQ3twkhmbQD+Fc3gu6jhG4J0UC1ZPIzmhrRXOoiHpWANsVleARyom2bJ31DOeVvI0GNuY1hMKUs8zFMe2hwJAzKLHlq3abT2aDkww91KbmkwV+aOpN9QTAE2LcpoqWc/81he2W7hjY/NU6xiKMjWBmouIOcHERNV6N+BAOBIUCSwr3vrsdw+uw/U8sD45HsEY1BnB61llhiJMN/xvZSPOk7ZIt/U0tEVvryxdrH5+a5TmAFMGR+oksGgVrbcpgCeYEtQmrCfsghDCg54ubM7lXc/W/TO/mU/wsoyAeua4uDnmKPa0FDhroXTNoMZYzY7Cy0hcradztXSkkWOIo6QNK4wg1X5rVHdg7VVvtHeraMG7TC0mBXLRZxepVt2zuG7rKcCZx4RjA/FapTU2c7bYVILynWki/a7XFlQLKG3AYlprgy/s8PBGn+rJFKoZ1HSIMZ93UmZBN3gZeVkk4rLJ1WpErJWo3XAcFdTAYjYScj1M0Yr+Y1ZAJg6ON1ycYTcsbq141kG7JueRecRhkA2/6hQd4AuckTdOyquH92sGNQ9HWmP7IjnQdetJgs6bOOxDvKeC/1T4yKpYed+rk9cjGbE5WrGI+518ToxPFWaPU+GjaP1DAXwlpEpGj3lVq1G+FRSAK/CFIwre1JuxUheopYnRPJnUj1qz5vN+cCoPDx9wJTHUExCcd19afT02CTYs4R2yAuqJWcuzb6RG6S4MwzJLukFSz/P5imtF4lDiuAMmwn06ZVrgiIIvFnKOrHqFp7pAzcAzFAvREKwnzKMTzM3wKBBYiIkE7awO34/MyZ5gxbKYqLJRr9MgD5qgM0YTAsK71UmJMY/nKa7x5xSwgFL1hFAAt04ILYKB4Ypgeh5Ti2m9rW5QcwPeDh4Jq3Y7tqTPPhR1jEfEBOccqCdoNHudXvvM+ywUg5fKKtpOIBdbCNAEOIsvrMe+0Wt0HvT+UjvNK6AiPamdaYcCgd0brgj2b1QraQjUDLx4M2ky4sN0pB06OGcAFzLjodpgwLXfJQYAQhr24qihGqC7z/UkujcyWbn6AZqNlI2zlbMTUmIjfS/OaYwCHD/mFcHBIma+taNIBPwgIHGKSXdkP260NQxqwERcCm8oZFV2BKq3Qg8nlYhZAWS8M2xLAkpbca9GCdmK84CWaGyBhwDdd1IatZux3udWSaruJVePdKiKLjtaAWitGOXuu6Z5ZX6ZZ/KIqYPsXK3QDiyccAN+ADSedalRzQgrDYOaofCQOiA/UUQyz5jveT48G55EW7YcdjylctjU+h3Q0JdNQ5CrFSyNHQIs0p1Ia1Rw9s1662ANNY3sI5EW7FT5xP3FHxVtcChgfplnAI1mJL3OPDQf82q0EMHzgvrhhzlOQmsWP5oCtfThqCjiqICOemj0YdU8molhYrSU98V2h6jCGkyueopUpv3rxXeSGekIqJVGeZOi0AYzALaUNmlxgEafl9QnsBq9Ff/DZNKqUkBt9LrFeb1LAfONeUlRUXxhPuI987PRBhfgg8gFfEbNhR/Z9KpGr+28XEDNhRj5lMsRNybJ1USD8pKlibJD1fGyMpAGAKRS0URfqq24GZOLgbqeHMVmiNLpczEMcRxgsZ1V8gCR0CQRU8nRSW6t8wTIArhK56XPZ6UklZGuJSfLFNh5552TYpvAlMo/CBJxSo/ivTwFzDvzzzzEZ+al+SkPHI9YDIfiE/MfDsADuAAf4AS8gBvwI6+WG6jpkMlIwpBy4eFVbrV5iP0hoT3xlUrFEJl9qZNEpSKZMISvvvrqsdJKKyUILpnbxBuKaHkRpNPXsYoJn2AstZIJMq7WSG1AidQmBxbd2CacC6jYxYAfuwU6emf4lY0hwFHUtnigVVddNVZbbbWEcZUpwoTNSNrV+lz813sUMP/wj/lIssJnyoCr9iKNyfw1j7Pz2mfz3bw3/+EAPIAL8AFOwItmpL5ylMwV1NIbQF0Sl6BRdjbILllWxYk111wz2UvAfgLpC4h94hOfSIhEOuFKFo9Fpx+07dfE6ZCWxApholpaynCcCqeddlqism611VZJaWUJ8ZgP4CnbbBzWXnvtBMQU9MNc7HMq7YpRAniMt0UrKFCOAuajeWl+ktYEheMnQGUep3M6fTffzXt8BwfgAVyAD3lKZ9m+tgTUsjegBhE5GbSV5KXiQPd99tkn0dOFCwj0UwSOKkVfL927IHu9fv5MKlM0QIwQFbyRxsiK6djCeIvRXB07ObIYS2gGNdXv/pcaQ2obSlVtpC/FOf1NAfOUVG/emr/msfnM/mZ+m+fmO14z/+FAs3bfWijaclAr1wlpD7x4dPV6UyDKXa8ffkMLqV+Ca9VCy1taYmcTc0QaUzWhaAUFWkEB8xkvm9+dmtsdAbVWELOXr8l2xbVtRbPqsXvl3VJQo6IWoJY3dYvrdRMFClDrgtFQhQCYcZczrLbCKUJN4HUCboWq2QWDXnShZRRoC6jNn78opk2bG1OmzI6XX54VL7/sffb//z47pk+fEzNmzInZs+fFkiVvt+xhu/HCKsdSN9m32ByaDTwk9ZHESvMzeaAU1CSpFaDWjZzQe31asgSvLYw33ngzpk2bE6+88qd5nc7vyZNnJr/Nnbsw3m7jtG4LqHnYUaPGxSWXPBwXX/xwXHrpI8nr8ssfjSuvfCzOOOP+OOqou+K//uuPMWtW40F9rWYLgMP7w6DPcwMcmknn4MoWjqEEsppwQ8Xy1fJ8AI2TAEBmm3g391FBVxhINza0RGOSqne2GbTupH2mG+nULX2aPl3h2Alx8sn3xSmn3BsXXvhg/PrXjySvdK7/9rdPx/PPz4iFC9uHam0BtZdemhnXX/9EjBgxOk4+eXSceuq9MWLEvXH22WPizDPvi/XX/3X89V+fHnvscWu88kr3TTjSj4RbEc/AQkyOwEMqnRCIRuJsTGAbtYrxkSguMDGPuDDAaINZXqhsy4Jat+4rYJGgfgvoVJNejB3nCU+waqyDFt6THb9u/PzMM7Ni331vjw9+8PTYeOML4uijRyVz+9RT/xCnnGKe/yEuv/yP8cwzr8fChUva9ghtATXq56uvzomJE2cmr0mT/vQ+efLsGDNmSgwffmV8+MPnx1lnPRHz5i1q28PXeiPSz+23357UNBObwz1NXeTCFsEvgLBeQFJ1Q6luW39RCRsBxnL9N/EF38rVyzaVaqWikNS6FdTE6Nn0lm1RX4E90BcaoNS0cJ+8vcJZGhWf66PAY4/NiJ12ujGGDTsxvv7138bTT78eL7wwM154YVaY45MmzYpXXpkT8+ZRP9+p7+JNHN0WUKvUvwUL3o7LLx+fgNpXv/r7eO217tyZSBIvqQyACYkQB0Zqs/mryUYKqsd9DcAY7MWkkfiaqbQBxFT+5T21y5c4IDl6MgyyTUUPQCFhuNTelj2uk5/Vz2L303+eYDTSX1HsKsEANypp0bqDAg8/PC2++MXfxF/+5cnx85+P6Y5O5Zn7We8TQe477pgc2213fWy22eVx9dXP1nuJth0PhAQakshs/5WmgpC0pIxIR6pV0mIvAj4AklRCfW3ELpeqxKQXEg172XnnnZfY09Zbb70k4DZLIGoc6RIYN+uMyF43z89ATX18EvANN9ywlKb6K9NERkQzC0CefS2uFTF27Cux5ZaXxf/4HyfG8cffH2+8sSCeffb1eOaZ12Lq1DmxYEH7VM7seHRMUps6dV4ceeTY+OhHz4tDDhkV06Z17woMdEhrUjuU5JGjCpRE6ptoqofUKqmZuK5BSmtGaqISUyVJNl7yOK+99tok5/NDH/pQksOZHWh2QCXBuxnUVIQAajbFLY08J6Wtv/76BahlB7XDn++++8UYPvy8GDbsuDj88Htj7Ngpid38mGPujF/84v648cZJMW1a+7WvjoHaLbdMiu22uzbWXfeKuP76CbYm7vAQVb49byH1U04qtYhkREICZoroqTJQi6TGi5ca7JX48b3Rxv6UJqQL1+DIIMVIe1phhRUSVS29NqkO4AE1wFwrAKfnt+ud1MpeiTal9dukdm244YYFqLVrMGq4z513vhif+cyFMWzYSbHHHrfEjTeOj2uueTxGjLg/Ntnk2thss6sTR8H06e11/nUE1F5+eV5873t3xyc/eUEcfvjoePnl+jdXqIHmuR3CqH/66acnxncSz7hx4xK7FA8daU1y71B2KmqnKgYCYEkiVNhmGlXYdQBr9lp+33TTTZeR1IAaoADK6li1Iri3mWdJz82CWmn+L29uAWoppZZ9p57jLftY4E2LnZQ4fGlbw1oW3GWvWNu38eNnxsknPxiHHHJPnHPOk/HUU9PitdfmxqOPvh7f/vZdsfzy5yeCyw03TIy33mpfkYS2g5oJdtttE2KddS5NVM+bbuI57IzuXdvQRWJHA0aSdlPpirQjtowBm6Q2VDNhAZDKvcAQHZppQkCosZdeemmQ2tJGTWZ/YpfKNiXB9Z89rxEbXvZarfqMRjIrALCFJNsKUMtSY9nPvNmkcBUzlPPhJFLlJa1paMxbIZ0vXrwk5s6dH3PnLkiiFgTjat4ffHBK7Lzzb+Jv/uac+I//GJ14QZftdeu+tR3UZs6cH2ecMTZWXPHcWGutK+Pxx6e27ulyurI0JiufsuVCOzgLqJ/77rtvrLjiivH9738/ydesBBbir5RbATRCK/KIt+KB5WjgrMhKNbyD1UBNrflK/cyJXA1fhpTB1lgK1C6I1qqMlKqlDd+sj04EWCpjfPjDH06kcZsikciFw/jdojtUXb68ySFD6OCDb4v3v39E/Nu//TYmTKheFzDP+7cV1BYvfjsefvjV+Na3bovPfObSOOggqmf3OghSQlsJVf7EIJ/5zGeS2mSKWVJJhXT4DWCVi9QXV4XJxLdhsqxUlV6/kXeSmpASYJmVagAu9bM0+BZQkNQE/HZroyopWsmbbK/TbLPRjBpdBahlqfKnz3gMb6qZZ9FN1U1OIRIcPsEX7WxvvDEvDj30tvjAB06J7373xpg0Kb/KtkM9R1tBjV593XXPxwYbXBXrrXdlXHbZszFnzvyh+tgV/zPEyyZQ5A6QmXiKOJIugBUDfTm7GsARH8aeBVCaVTtTYqjkoZroYYcdlnhB/c4j6rcPfOADSeHH9FjvKah18272Us8sAKTJ0ng0i4p4tXILR/Y5B/Ezm1q6J2xqHkEHCygTCUkNn+bd5s9fElOmzItJk94oyRh4J8nx3m+/2+K97x0ZP/zhnTFlSvuEl7aC2pw5C+Occx6Pj3zk3Nhgg8tj7NipQS/v1yZlCUNxJlA782xsZ7yerg3Y2Nc4DngJgZo9BrKNRKfEdzeDWra/xefaKQDUfvCDHyTOoVRKczZpl9MAD3Ig5d0A2n/+51OJ0+/yy8fFzJl/ytt+8835cf75T8e6614da6xxWZx77lMxe3b7crrbCmqzZs2Pk04aGx/84C9j++2vShA+b0J3y/XYOWQfUAtIGHmnJpH4SDNCRNib1lhjjWQ3L5Ka3dSFRmSlQpIkKTPv7fS6hd6D3I8U1Nh8s9qCmMhWgtrEiW/EYYfdFyuv/KvYeuvr4pJLnoknnng1br11YmyzzQ2x0koXxtFH/yF4SZv0i9U1vG0FtdmzqUf3x9pr/2fst9+NSdRxXb3toYNV32BnE+nPq9eqRmKjrpHaBPNyGghi5dzIthTUWtmX7P2Kz+2jAFDjrCKlM0GkDagxO7RKUnvzzcXxyCOvx89+9kDsscdN8aUv3Rhf+9pNseee18UOO1wRP/7x3fHcczPaXk6sraC2YMHieOKJqXHZZU/EHXdMTBJd0wHop3f2NxuZ2FKsW+LCgJrA4dJI/X6i+6A+C62AlMZ5lQU1zgGAxizRSgl92rS34s47X4rzz38yTj/90Tj77IfjppueCdV5OtHaCmqdeMB235NNg/2KjUPxx6yNo919yd4PqLGptdsLlu1D8bk1FABqKpvYgi6rfnJkkdTw46BsAo7CBajlyGci9dX9kqeopFB21czxNg1dyopNUqOSFK2/KADUFABQ8cXntKXeZKaQQSoEUIBaygE5vAvZOPjggxOJiJ2rmxrvKBtfAWrdNCr59IVDSEC3cI6sc0j8GpurVxbs8rlr916lALUGx4ZamY2ZEhQqwj/NOsgyV4O3yPU0AZiMyaUOhFxvUlysoEAXUKAAtQYHgZdRxQtxXwCN91G9MsUY89hroMFuVTwNqLHzFRH5FUlU/NEnFChArcGB5E2SJsX4LrXnyCOPTKL5u9V2AdSon93avwaHoTitoMCfUaAAtT8jSW0/yL3kbVp55ZVj+eWXD9VmJWNn01Rqu1Lrj6IKU41Vb2h3YnPrn664Q0GBZSlQgNqy9Kj5myoZIvmHDRu29KUyK4O8OLVuakBN2SPpVDxiRSso0M8UGFhQE24h4Zcaqd4U+5hwDC/VDWzTJl/OMeVCMxTkU78qBbW/+Zu/SaQ1yeuSzbupATXpU2xqvQ5qvHzir0jKCiMaK2NmPHy3xZ4AYxJptxbD7Cbe6Me+DBSocWvLlxR6IabHXgOHHHJIElcmGlsdMi9gRQpjg1JHTdFCk4hrPN2iTUqSQnySx//P//k/SUE+lSSkIWUDILuBaYAa+5/k915UP3maSb+ASx6tcjq2AFQE8atf/WrstddeseeeeyZ5tn5XYknJdSXYAaB6dmhQtMGgwMCAmhVepQxhDdtss01stNFGsdNOOyUlegSlqmyrhJAXw7/kb0G0O++8c6y55prJ8dQ3Xk52MxIBoGBHUzaZF7RbsgfKsW4Kar0mqcmAAGS2zVO3zrjtvvvuSRWSo446KlmYjJnxA3YWImC31VZbJZvi2AMVyJHoijYYFOh7UFMdQ3VYK/p2222XVLL45je/GSaEKHtF9djHrOjCNLxMJMGz/nMMA7vzd9ttt2SjYFIcbyJg62Ygy7KwVBmTu1dUMvsunHbaackWhBahHXbYIZGegZdFhKTMPKC8jjHzrmaYUukqlwBx6jbJG8AZe4uSem1F628K9C2oUTeogrZc22KLLeLTn/50kvBrV6UZM2bUPaokHGroPvvsk1RgtTeBbfJKK7TWfeEWnUBNBgw2BLaVHkCjLiuHxAalyizptdvUMqri3XffnSwkpLLPfe5ziZd59OjRS1X/ekgG+PDA1ltvHauttloCkhdffHFuFYjr6UujxxojJg22XRU5urUce6PPl/d5fQlqpBHGf6rmpz71qfjSl74Ut956a2IkxxSNNlIZcLM/AanNJKHysNF1mwQk20F1hn/4h39Iwk7spfD+978/Vl999UT9tlcoYOumCQJkLTq77LJLAmbMAiRm6n4z9EULiw8PsNCb5ZZbLhk39tVuA3XjQbsQwC1QmvRJulR1WWC3Rcl3Di4SqgXa8c3Qp9H50K3n9R2oGVzSCRWR2sE2xsCcJ/NiPIwlz5PNRmrUnXfe2VWMRVLTJ5uVpB7a9B1dVBDpJkmNA0M4DHqynwHkvL3IwJFqCjSBO/W0FRVhG53sHFE8uDQA/Lv99tsnEiYpM31Ro2kJm2yySbIXxd57753YFUmy3ZjJ0igtmjmvr0CNJGUlYyj+4he/mKgd2U1JmiFUuXNNOqqNDY3VThs1alRX2dhIKNdff32ifgO0d73rXcku58oQddMEIP0KDmY344UGPM1I1OXGKvsbu5uNaQCDkj2dLnFOimQn1Bd8BKh23XXXxB7Im2t/C8VGba9IwhY25HfHcGSxGwJBC7i9M3jqUy999rkH5XPfgBoJLQ2z4NVkGLfytbqRdthoqLgY0krbTSqd59c/nkPqslCHbsp6AK5KTqOfiTlmzJi20I8zSK4uyRBgdKJ4JtWRN533VkgKKQxYGSPahkWzWnUN6id7KamW1oDvgRz7qfAiMZZ5aiitnkt5Xb9vQM3qZJcnYjo1pp2xYoCNykCtwVDdUDIbyJNc9U31XVKAvQtIQZjdhErj7jrF+Azf7JP6ZTKr+9VOCYO9iuRD3eUtJTG2q4m7O++88xIp3/1JYykQsZHVSgfjjI7UdyYR3mFxlqQ94Ei9dswgtb4ANUzAYL/qqqsmq24nKlGoU0b81we7jHci1APzknz0Jd23AMALIBaWAvTRiWTgd4Zn8VtAWKJ7K1W+cpNKSIz+iAdk46smlZQ7P4/f0Mn2ckwW4hjbsRgaH4UQ7M9KuvfsJMVmeYaG4NqcChYxnnpSqGyZdjxXHuORxzX6AtSI8IynxO9O2keslJ///OcT2xAJpF0NmJG+3JPEASjYXWygzBhONVFFhLoFeHmFxWz537GkBHsqkOKUfS6XFpb3s5ASlZo28UgUnaoeAkg9N1BDK17FVpkPSMRAFOCw59kohX0vb0kqvY/A8P322y+5n5hL4TKD0Hoe1KgMbDHABLi1W9rIMgkwYJgXNmAFbvXqaPJxhHBQpBsb25IPPQCYjWyFSFBrMDVvqGOFt5DS2B2livHeOidNC/OfGLdWSk480qRHaic7WicbVRyo2wVeLGIrbI4p0HhmcZPMFK2245HaZGMANoBt/Ds5P9o1xj0NaiYdg+pmm20WsgSylWjbRcDS+wBZXqltt902CSVp1apPVWFHlPFg42LePN4xToG77roryYpAD8CKkb3Qy8tnv1u5ed4ADDCmlgI3tKSykjybVYlK6eO7e5POGMepwZ3ORwU4An5JUKRXanHeDYC5tuwIdrx2bYDDmcCzCtiovJ6tVTyZN80avV5PgxqVhc1ASIUVqVsaqUlIiRxSAZ55N6AEuKz2pCyTRYI+kAOq9QIRo7R+sq2R0qgtjM3CK2zokbfESYIAIKRK6lc3TDLqO1sodfi6667LVQVn5xT6s+OOOybqfrsdSYBNyplnI5F2axZMXvOkp0GNV09yMztROVHeCkxaSb19eRFtqOvII02TqvNmYM/DEJwatzGrMkmcJXk0gImWPHNoK+SBGsuLmkdzfbY/aie7XyWPI+kN+OX1XEP1HXBfddVViQpqUQIEeTSSsecF4J5Z9kknGi8ou6qKJhaufrav9SyokS6sqFRPTFhptec6p6K2QqWoxpwM8ausskrC0HkZgklTnpkqATQZ2lu16pL2MD/niwwEamIewEZqIS1Qc8WnAblyjUrsWVsh6Za7nwWQJ5jjhKSaB7/gSY4Xiy7zAJtvvVJ0ub42+htbKmlNuS0Scr+2ngU1KzlPHwcB1atcs/pyZ7MVMQBbnaycaQOMJB+TtfS/9BjvGJG3zgSrdlz2HH1bd911E8A1kZttJj8vnaR0cV0mfCsM2tl+uicjPlVaYrlo9WY9o6RmUibJhQpdDvDdlzlB7ieVGu2z4GfcjEM6br5nm++uC1TwQDp2QwGKBUIgK3WedFWub9n7DPVZH42TiH+Om06EGmX7SPqkYhtPzwnI+7H1LKgJnLSqCjIkiZVrViPitqRuHiflhlSowKwmJ08guxfJR9gD+1GWkX0W1U0VMxEZ0ElgjhvKuA1oRXcLl+BJbLaJHNdPz0NNapcEo9/ohH7Dhw9PYrmGAodqz0o19wwkNeETpQ3NBeFytkjCpwKTLBjy00bi4EVMjd+KQQIQzaJF4gKYaEbCNLaOVS6qWtocLyjauh+HS7M0pj5bUO1lIQaukjaRPler391fxgsHDekx79zaVve/1uv3LKgBLCEIGLZSAUAqhMBOk9EkSWugkXBMEqsnkGK0ph64nlQr0pumigWPEcnIfxiBXcSL6sQeVGm1k2Ds3jyTYpMaba7vPgBcLB5vZ6sltHJ99byCRU0IqmGjDcAbC3QptzCYeOhFkhPIDPx4dU1G42LcOUjEeAE2MXdscyQrwAZwLSjO4+hgR7KYUbvcl1e3ErCR6CxYrs1W2cxeE8DZYuA5eXoreTvdQy4uT3M7Gt7B9+gBwLOLeDvu34579CyoWYVJTxiWilKuYXDqEw+pqO20KUt0xhlnJKVoUgeDycZD5ZopSJpAovABSap2sZGYVCaLyVeJKdxDbBBAbAYESB4kRbYt4FtpQqbP1qp3tNQPaih6VjLwD3V/CwVwsVhkVcrS80x0EpMCnimN0dT4nHDCCUlJHuekKiMQsohxLIjNE1LD25iCnetYZFQtyUp92fsaY1Igidw9qMqNNlKcDZFmAAAeUElEQVSf1DlSKdNHyj+l1yMt4ROFTNvRjCOV2AKpvLvv/dZ6FtSsglZUMT9U0XINIJgIDL+M3mnjPRR0alXGuFZoUgPm++QnP7k0PMSk87sXVcSLXcTktuIDq6yNLr2+d0ALhEgLpL9Gm/6xG3KIWM0rSYaNXr+e8zwTKdVERcNG+sJTK3nduFVrnCCAL6u6i6XjfFEXLR0T48HWaIxVaCGJAAhStffUuaGvbIJ///d/n/S93L3Z3wQpAz/ATVVutOFJEpGAXkBZavdLr+t3Ntd2eXndlwd2yy23TEobdULqT5+9Ve89C2pWW1H7bGLlbDMIBpSEfQCwrDOBF0ocFkP+5ptvngCGQV5rrbWS2mPZmDeDzrtq1QcsbEtrr7124n0kyVWykwAAqq0y4I2CmgkpcNI9TfBKq32rmKP0ulZ1k16JIGpfI1IjiQkoSryu1ti0OAqyITHsUu973/tijTXWSCal8TB+pC/GeLZVNKMqk8RLU+aoW0DNdcq1PCU1fIc32VQBeS0LQC3HlOt3vb95TuYWDgMA16771tvPRo/vWVBjTGaApQZWcr8DNbYYqkQW1DA1w7GgXbYb4RFeBpp0lcYSUQ0wpiq3Xo6hTireR2IBaqlqVDoAGJn6ZKVO1dnSY4b6DhhV/mDHahQYh7pHvf/zoHl2XljSciVQr3RdCxBJjYexkvTiXAsLtSwrhZOsP/ShDyUletA1HTeSFemNKsquBhB9F5uVnbDAjiROyizX2OxIfTQApohmvJVsqqRRXsZqYTcCyNWSs0jrK8mUxMn5QTIl7bHnSmmbMmXK0m7jYWYRmggJ1KLH9sjMUstio2/4XwodCbWfWs+CGkDB9AyxPJrlGlBzHFDDIGmzYnNtA55qjdpAEmBDywZjpue7dqWJyeYHJNnkKoFutXv7z+Sz+zuJr11qgucxUdi+ygE2FZxqCNgAR+p1HOpZ0v/ZMC0QHDzVnimtEZaV1NCd+pk1JaTXTd8Bk8nOnkVSy4LuUKBGysMnns35VNxGGnAydpw77Ffsa5UayVWtO7ZhjRZBK0g9lIKfPbP0Ks+VApBF+ROf+ERyHnDHpyR651122WVV7+k+p5566tJMnGrjUKnf3fx7z4Iagz2vF7XDylaupZKaFYy9LF21qVAG1cqf2lycz/idjWK3WpqAWSOuSWlVBKjAtJJNzQQU0kHSa8Q2Q0WgQinsCETKNQCEIT1DJXAtd16134AWCVi/0wmUPR5IkCBJWsC+3rAAtCDlMcaTpCo1WQxozBmTAhP1koGbFztr4AYapCo0ALImP49jKaihYzX10/gDPgZ0klHqBa/Ux0q/6xuzAfoAKTbbSo3kqjgkyVBzvIIInCmkN/QVngK4pMSlUh/1/+/+7u+SsWJrRVd8zZaIbkMVCSDdAUCLezNe3krP1cnfexbUTGaMa3XCQOUaScNKaBUEbJgcg3GvG1SgaNX3uwoGjvGb7xoVl+ub/YdTwMuEAnQYAthVWs0ZrtXB51SoV5pxbxMe45rElbx1aEAFxNSNeiNL6QbUqNgmRyUbnkmAVqQF97Z41No4PkjXHCj6Xk4adC0LDgkVuAig1i8LDvso0EF70iTaiAVj96S6Oc7YmqzMCCkguia1dIUVVkiuXa6/ri+ujUmD1zR7brnjK/3G6A+U2QQBTTVwJIkCMJKhhg+Fo+Dt7KJiEbbYWMw19mQSHhBMaWgc8DPtgFpZrfEu42F82qmyT9X618x/PQtqBpKIz1iMAcpJKiQzk8jKbfUi+VA5MRlbm3QdNgvvJA+TzWRIJSurpFAB5wJGqynmwwgmve8AMGWqdCD0hQpDdcSkqYSY/l/LO9WXQZ0KC5jLNZPaJNcP4AJgU8nRPUlw7DAmq/+y0k16PX0Fjo7jhXOcSUFSqwRqruue7JHUq2qSSHqf9N29jAPgNLHKjZtjPRuAMS5oD9jQ2e/6ZkyMm89sThYPY21s9QkYAoAsMAEAoTFMA6XNcRYt9wKSpNFGGzBKvbe0iGqgxmbIboqHNbY45hLv2eZ6+paGIHFAWdCBeNrQh/2WXZhtsFpDL7ZN41iAWjVKtfk/tiqrDabOGpSz3TCR/UetIGWxg1nRMB5gs3oDLmCFEbLGYcdZSRlfgZ2J4nyTB4iwv/g/BZL0vlQKJZoBbjYkIf2/lncrPbWE5JiCbPY8YEAdYyS3suufPqVM7r76ZzLoN3XY82aBjURBmnEc4AekJAuSAykje2z23iRP0hB1yLWr2Yyy5/mMpkDFAkIiqiRhure+ub5FJKtOmbjub9wAn36nahm6AD5qq35lFxQ04TBKj832DYAzUaCla2b5IHtcLZ/1gcTk+fBOtTS5UlBDGwtVKahZAAB8yk8kXTm5WcBEWw4lC+5QkpqFRbYGcKvWv1qet9uO6VlJDSHT0kNWX4blSs0KZvBJGFmRHvOZoKSH0v/Sa1nBTX7HkEhSAPPud+/ZieOaGIaHFCC5biPNhF1//fWTFbzcxPccJFX2KRIdozSpAIOiCzCwYgME1/I/acCETyVL4MvYb1EwAX0mua600kqJBzA9rrT/AID6R6JD93oBwKLALknaoOKjWbnm/sbHM5WOm7EwJkAcAJaOgWtmpTTXdz3Hlv7uP5IqFY8ECeQrSanl+lnuNxI6mgNIknKlljeooWctoEbC5f20kDf7rJWerVO/9zSoARQ2FYZVExuTd7pxp/NY2QCGVFcJGIbqJzsem4nQhnLqneuSVLnmqWHo4N7AG+AAJ5H1JEk2RMZm0qgV33FAQlhACmakOCoXABQ2wTBdbvLrt0lA4hGyAiiBVD0NsJC02CsBaacN1fiIDS01M5AQsyBZz7Olx5ImjYHxqWQ+cCxQAy6pTY2kRv0sVZErSWpZey1JrRZQ87wkZY4sY15pnNNn6bX3ngY1xAZkVAYubbaUTg4QpqLCSCVi1DV5G20i2nk+gVqWcbPXIyFRU4FXahdxTys1KYgDxeRijwJgJDdpRiYZupkoJpAQjrQ5Hi31H/OXa0DNPTkyGOjrBTWAwbbJO8gLWqpqlbtnK38TrkPl4/igNlaidz19SG1/VPRq8XwAdKONNloajOxYCw2QzTbgj94WKY2zCp9lFzz8Z/FizzUXyjW0Z85gHnGNSo6ucuf2ym89D2oITdRnB7LyYJJONYZmqy6VUJ+aadKwZDgAjUoSKNuQwE3AliZMU4kxdWqPo356UYV4DUW4M6ADQfZE6lHWZkfVMxEZpSupJX5noyOpscnUq36iC4lSPJXMDs+a7UMzdKv3XBIrTyuHDNqkhvh6r1N6PPqSetm+qLOVFjggpdJMaj7BQ84jcWWbxdI4pqqsZH6SrvFOm0XIAmZBrFS5hlouVElWiAUue356nV5/7wtQM5hW/eWWWy4xpmYjr9s1QDylJjl7FKa0ajbTgJWqGCSpShHiWVBLDcikDJIrSQ3zUksBLCb3mbphIgMRoGYyZQHF+QJjq3k/ARIgBX7UyEbVRzY9anbqCU2dHM3Qrd5zSYwmN4cLelWSTuu9ruuwebo2GmWDt7PXQm9AhH9IURYIC3MqeafHGiPSH9prHCEAMGuPpKWwvxrjSguNRYt318KrX3k9b9rPbnjvC1BDSIxgMou+BgRZsbzVhOZlY/h2b8bzFGCauS/1jqufnadSkGoKasDJpNA8N5AglWFsK7GJA8iydiISCfUTeGZBDUBRCXnaKgEzyZEtzX1IWyZKI831eeuoulKTODr0s12NxEriIV2TWPMGVeE+JGSLHa9ylv7pM5b+xlZazsnhOKCVHp9+T6+Tvjsme1z6e/ouJ1UoBz5lz0uvl/7fD+99A2oGw6pLDWVgZyOpJ9Sg0cFkkwCiarZRI0gfeTSrMJWIA4Sdq1wDRirskrZSac6E4HUVnJk9D4BgaM4Lk9fxJjL7jd/TJjxigw02SKS1Sk4OdPXM4tSaBSIgTD0DpPps8lcC07SPebyb0Ly+wiI8S7oo5HHt9BqeDegLO+JZTaWs9P92v1vghO5IudKfSuPb7n7lfb++AjXEMZHlzq255poJsGWlkLyJZ6UXWc/7ylvI4J7XykfKopoJ62C8LteoKKlXjOQkbUsICc8ZydGkZTCmevqf1AfIXJtdjC3Jig3YfBbbRI1/73vfmwB0VrVJ7+/52HVIIFQrHthmnxlIkjbZn6i0QK7RUJi0n5XeTWQgbsFAW/F4xrFVjbRGEuWEqGTnatW9S6/LIUObQeNS72rpsb38ve9ADdOScuSEqshgclPfyk3QRgfOtdgteKPcg8TCLkLsz6u5lsBNuYoMxOWAgz1EKAbw0g/GXyDDKM17xsOllLmXckkADOjrv+sBRd7VjTfeOEmO5lzgOaVGk5zKGbeBocnpnmwzlZwY9dKBLUhsnT5blEiffsuTpp6Hd1C4zUc/+tHkGSx65Whbb/8rHU86EvitJh4gTSXqSse36nceagBuZ3gLSCUnUKvu387r9h2opcSjZpEkeBDTJOhS42t6bD3vpByZCQBgnXXWSdS0rPpWz7WGOpbkBXCsrozE5ZpJ4/4kNrFjqYue6mMCMwaTzoR3UM9LmdkkIwkCEeczQDOYV4qxQ0PqLc8b0M3T0AzEhJ4AVLXuLExDpfuUo0m534A9+5nrenGEpOER5Y7P8zc0Iw0LlbFAec52NjzCS812KJ+2Xc/dzmfM3qtvQc1DspNQkwAQhqLeCHJknK5HvcGExHX2K1KZUtEK7FE9W+lp5THjnrfKA9JuaNQpdGTY9zlPSSp9PpK2sBTqoTAdhnagSzquB0SNPw9kGj2fVr9g5zLR29nQSsCrYqScM3lJuEM9g8UNDXjDqZ0k+3poONT1u/H/vgY1BKdaUA1NQmoVI7jPQEKCs3ggEoyVnAfVy2eD7z8MAczYREwKVVdNMue0uuk7KYw6RnrplOqSPifPqCBQsWVAppWTw6TnAQag6oahPUmLKkcCpUYbA0BHivUSVGysLUCkSAuCAFPjLlCV86iVi1BKp0rv+Am4pJpDKlVXOr7Z3zmESL7CVdLA4k47K5p9plrO73tQQwTSBEAQrc3rY4AxFumN1MU75Tc2Dy+f2XasqhtuuGGSx+l354r1ooK20g6THTiMSXUBbFSIdksY2b4AeFIvLyU1tdVNeAenBMcBe5BQBN5KY0J6BRAWKOErpCAhJlQs8X1sR0Ji/AeALVL1SOeteDaLAO8uflPsQIUMwJY3L7ke7YKTCH2YCiwGnX7+VtC03DUHAtSyD07asMqzH6lswZFA8vrudw+Ib3/7X5MXW5wAVP8BMszBxtTqlTXbz/QzBnVvkhoJieqcp9Mjvc9Q7yTYtL6bbIJ2xpOhQZq/SnWUT8mTC7CMlRd11bs+yoZgR2QbJMmJ0+uWxlkhGJqdFPjivWrFRuvtt3Gh6srSsAigCam1E7xbb9/zOn7gQC1LOJ5SEhwmeOihB2LMmHtj7Ng/xCOPPBTjxz8bM2Yo59z5Xaz1k6FfzBqJJZurmX2eVn1OnQOkW9JFoxkEefWPswPIUT+VJLrvvj+N26OPPhSTJj0fc+c2Vhklr/7Vch1qMmAmcZJ8SeEWW4HM9ar1FjnAzWzCMcQzzckC9EmG3QTqtdCm2WMGGtRKiSd/+623Fsebby6OhQuXlP7d0e9c8uxZ0ls4KNiQgF2rG2dFWkrJ5LMAtKstWfJ2MsEXLlRGqPriYryMndeiRe/EO9UPb9cjVL0PM4aQGpvIWLCYGYS1CICmLrP/MT8wOQByL5KYd0BlbCxwJFLSMwkWf1A3R448I1mYq3agT/8sQC0iZs5cEE8//UaMGfNa3HXXpBg16vm4886J8dhjr8SMGW9FjuFnDbMRFUy2AmM3phWYa2UuF0vW8E0yJ7JDkoas/OyOgot5JdsBpABpxowF8cgjr8Ytt4yLm29+JiZMKB8GMX/+onjmmdfj7rsnxR13TIhRoybGvfe+Ek88MSOmTWuvhzNDvpo/8k4yL1CXqc7pLlniBTmzBEWLC+QcobamL5kcwngk4RsbPEHyO/vss+K++/4Q06dPa4lnuuYH6+CBAw1qixcviYkTp8Ullzwdhx46Jn74w9ExYsQf4pe/vCf23/93sd9+t8QllzwWzz8/IxYsyC+wttHxToN+0xQlKzuGbzT3slI/SANUIfXAOExIaO7TakADpLNmvRlPP83IPSEOPPDeWHfdy2P99c+J889/uKS778Trr8+KG298Jg4/fHQccMDtcfTRd8YJJ9wVhx12V/zoR2Pi6qsnxIsvzg2SXjeYEUoeYJmvVHy2NYUCjC+wMr4yPKiTAAvosfX67He2Qy/jBBSp4a+99mrMmbMwXnzxrXj44enxwAOvxRNPTI+pU+fFokWtl+yXeagOfRloUHvzzYVx003j4hvfuC122eW38fOfj4nbbhsfd9wxPo47bkxsv/11sc02V8Txx/8hJkyovM1ZO8eOxEb1pBJy1UvB4d2jhjTr3eLul31BAjB5SABqsJHQ3LfVbe5cpb4nx5lnPh6nnPJwfPvbd8T73jcyhg07Ig4/fFTJ7d+Jxx57OY488s7Yay+14kbHNdc8Ezfd9GycdNKY2Hvv38Zee9m5/dGYMIGNrfX9L+lgQ1+NgSwH0hu1kmNEipvsDcZ/kjoHF/AjrVl8BNNSU7VZs1QHeTF+9rMH4yc/uTdOPHFsHHusckaPxH33Tek6s0pDRBripIEGtXnzFsUtt7wQhx9+b4wY8UA8//zrS5l/xow344QTHo7//b/Pik03/VWMGvWn4nxD0LMtfwMYNjZeLalPwM3Kbj8C4MZWQ60ZyuDsf8cx/AvRcD1qrVAJ3lbpNPIiWxFgW45Q06fPTyS0ESMejVtvnRg33vh0bLfdJTFs2M/jiCOW3YjE+U88MS1GjnwkzjrrgXj44ZeXmgkmT1ZeZ3Sstda5sd56l8att/6pgkm5e3b7b6RmubEcWqqyGHeeTHa20oUGz15++ZPxla/cFDvv/Nv46U9HxznnPBgHHXRnbLXVtXHggXfF44+/FosWdV7raCXdBxrUFi9+O15+eV489thrMWnSrD9jkl/96un4wAdOj89+1uYelfeobOUAVbs2yYwXjd2L656RmIqinpuQFcGeqlGYBAzLqYEZiPndRi0CXNOqqs4XdU4SkPw8Y0Z5O1a1PjXzn0XmmWemx+OPK5m0MJ566tXYddfLK4DaOzFnzoJ44YU34sUXZ8e8edn6de/E738/Ljbc8Lz42789LS69tPGdoZp5nnafO3r0lNh77xtjvfUuiMMOuzuefnpGTJ/+Ztx444TYaqvf/L/2rjUmqmsLz4+msalJSYxNTVtpmxqjTSsYS5oaJJaITVotxqav2MaatGkialAsqULRtrbAvXKlFAkXhsEBoaTAIG+mI46UEZALCBWB8YI8huEprwEcQPluvoNTHvXW0Mp0OOfsZHJmmDPn7L3W4dtrr/WttfHii0k4daocLS3TO1DZu4/2uJ+kQY0C5mx3r8haS8sQDh4sgpPTD9ixIx2VlR320Me870ErijM4lyr0q9AfQ58LHc50HtMfRr4dLTAuX5gyxCUl/87vucTkUpPpZARDOqYZILhz596bocy7g/P4AfVgtU78xsNraOiBt/f/A7U/vjAtazc3FZYsiYRK9etvFvgf/2pxf6tS1WHlyjh4eCQhK2u6BFZT0yB8fQvx3HOxgpvFYDCJWh6SB7WZj3Ff3yg0mnpER1fg888vYtu2LHz0kRZpadfR3//n9xuYeY+Fek9w41KSEVIy8Ol7YfIyLTceCWSMqNkcziR90gFNsGOpaHK+aNHZapmxcG9jYz8MhmZcuNCI1lb7b2pTW9uFt96aP6j199/Cl18W4amnYvDaa5nQ67mb0+Lwqf2V5yMi4goeeSQc3t6pqKmZ3gyH0X21ugouLvFYtSoRWVkstSReecigNuMpam0dwMGDWmzdeharV6vw8sspUCp/FUz4Gac59FtanlxmMneSETVacazES34Z/WZk2NOxTGc0/TP019A/M9dvdvXqTQQFGfDmm8nYvPkMEhNp7di3/RlQs1jGoVbXY926ZLzwwlmo1dfQ18cS2OL9J7ZpJSKiCkuWhGHbtiRUVdEam2rkXaanX4OrazxWrIhBWprR9pUojzKozVCr1codwHuRn9+It9/Ox2OP/RvvvaeBTteE0dHFHQ4naJGSweNcB/MMEQhvb9+eRGJiHVxdz+Lhh8Px0EP/xLFjpXNPW/DP8wU1Rk+Tk41wcUnF888n4cQJBn/oFxS3Y9ymiKioWixdGg13dzUKCqaBy2weRnh4GZydI7BiRSQ0munvbL8V01EGtXtok//UBkMndu3SYeXKWOzZk4+aGkZGpdFKS7vg51eM1asToFD8CwpFKI4cKbH74OcDar29wzh9ugbr1v2INWuS8c03FWhqGsD4uP19g3YXlHDDSRQWNsPTMx3Ll0fBx6cQZjMt8NvIy2uAl1eqMDk98UQ0MjMXrtLv3zP22XeVQW22PGZ9Sk01YtmyKKxfH4+CAsehdMzq5AP+wGiwj48ee/b8jH379Fi6NEoAtYAAR7XUJtHTY8HJkxVYuzYBL72kFjhZtE6k1ViZYwgJCdxHlBWT1fjwwzwcPVoqUDt27MgUwO7xx5XIyJBBTbTPBqNtIyPjQkoO/Q5zW3p6PZYv/wGurjHIz5+OJs09Tyyfx8buID29EW5uyTh+nETkZjg7x0KhCBEY+vYe57Vr04GCwMDf89TYn5s3LXcttBSh30lJNbBYRu3dVYe538CAFT/99F94e+di7dp4vPKKBuHh1YiNrcSrrybC2VkFjUbcE7SkLTUCmcHQjvDwK9BomkAns60NDo4Js/+yZdHYvDkRRUXint047vr6Xhw6VIydO3Oh15tQUdGJZ55RQqEI/ltAjTmd27cz+nninuRbctkyMhqxfn0q3N0zkJ1N3+e0Dm26lNKRPtNbtyZgMlkEnlp9fT/a2oYRH1+JjRsT4OGRCp3uhqgDJ5IGtYGBMcTFXYWb2494/fVzyMlpRm+vFYOD4zhzxgh391Rs2HAG331nQGuruAmL3d1DCAsrw8aNaQgOrhAA/vLlTjz9NC01+4DaFE+N1TamiLRkv3t5nYVC8RX8/AoxOXkHExPjGBmxYmJiDDpdC7ZuzYaLS7Kw5GSggFFOq3VcuMboqPXukdw3cQcLKDumgxkMZvT0zLZUOzuHceDABWzYkIzAwEswGllSS7xN0qDGMjVFRe345BMdtmxJw/7953Hq1GWcPv0ffPyxFm+8cQ7ff18Go7EXE79fnYrmqWCpHq3WiA8+SMfOnTlClQsOrqysQ+B6EdQCAxfep0bLmUCakFAt8KpCQw3w9FTj2WcjsWtXBlSqCsTGliMhoRINDZ1ISanHmjVn4OWVhLCwYiQmViMmphzR0ZeFV2RkKZTKCpSUtIMTmJgbQY15s198UYSgoBLk5t4QsmXa2izCxL1pUxq2b88Wggm2SUOs8pA0qNmUyhkuJaUOx48X4cCBXPj65iIk5JKQF8p8RLE3phrREvLwYPL0FZjNFoH+QdLqk0/GCJaav79BqPJAi2ehctuHhpiLewMBARfw6afckzQPAQHnERJiEBLX9+7Nho9PDoKCzqO83ITa2m58/bUehw8XICBAB39/raC/fftysX9/Lj77LAuHD2uRk9MolJcSO1eturoTR49ehKdnGnbv1kKprEZcXDX27j2Pd9/NQVRUFbq6hsT+OEMGtbsqZsCAZjoJuHyxFhd5a2Jv9MHo9Y3YtCkFq1YlITb2KiorTTAaO6BUVoEUAIXiH9i9Ox+1tR1C3iB9NgvRSKWho9tkGhJycbnk7+4eBjMEurqG0dzcj+bmAZhMg2CeKEvpMIm7s9MCs3kIbW1TeaDMBeWL5/MavCavLfZGvZB6xMyCQ4e4N2sejhzR4dtvy3Du3HW0tw/el6MoBhnJoCYGLf6FMRDUSkpuwNdXi/ffz0Rw8C+IiDBApSqFr28BHn2UpX/CsGVLClSqciEiygKOcnNcCXR1jQhFAS5dakZZWRsaGvow5W903D4/yJ7JoPYgpbkIr8Xsgu5uC6qrTdDrryMvrw4ZGbXIz69DaGiJUHpJoTiJd97JEmrNMSLKZaLcZAk4qgRkUHNUzThAvy5eNMHJieTbr+DvX+wAPZK7IEvg/hKQQe3+MpLsGcXFHXByok/tmFBFVbKCkAe+qCQgg9qiUpd9O8uocFDQL/Dzy4FWK37ysX2lK99toSQgg9pCSVYE12UyOPMJzeZ+DA/LwQERqFQSQ5BBTRJqlgcpS0A6EpBBTTq6lkcqS0ASEpBBTRJqlgcpS0A6EpBBTTq6lkcqS0ASEpBBTRJqlgcpS0A6EvgftvmrAc+qRx8AAAAASUVORK5CYII=;" vertex="1" parent="1">
          <mxGeometry x="640" y="430" width="309" height="290" as="geometry" />
        </mxCell>
        <mxCell id="qqDaEJq4rcLlo0jyx4f3-2" value="c" style="ellipse;whiteSpace=wrap;html=1;aspect=fixed;" vertex="1" parent="1">
          <mxGeometry x="1240" y="345" width="45" height="45" as="geometry" />
        </mxCell>
        <mxCell id="qqDaEJq4rcLlo0jyx4f3-3" value="o" style="ellipse;whiteSpace=wrap;html=1;aspect=fixed;" vertex="1" parent="1">
          <mxGeometry x="1180" y="410" width="45" height="45" as="geometry" />
        </mxCell>
        <mxCell id="qqDaEJq4rcLlo0jyx4f3-4" value="a" style="ellipse;whiteSpace=wrap;html=1;aspect=fixed;" vertex="1" parent="1">
          <mxGeometry x="1240" y="410" width="45" height="45" as="geometry" />
        </mxCell>
        <mxCell id="qqDaEJq4rcLlo0jyx4f3-5" value="a" style="ellipse;whiteSpace=wrap;html=1;aspect=fixed;" vertex="1" parent="1">
          <mxGeometry x="1300" y="410" width="45" height="45" as="geometry" />
        </mxCell>
        <mxCell id="qqDaEJq4rcLlo0jyx4f3-6" value="d" style="ellipse;whiteSpace=wrap;html=1;aspect=fixed;" vertex="1" parent="1">
          <mxGeometry x="1140" y="470" width="45" height="45" as="geometry" />
        </mxCell>
        <mxCell id="qqDaEJq4rcLlo0jyx4f3-7" value="e" style="ellipse;whiteSpace=wrap;html=1;aspect=fixed;" vertex="1" parent="1">
          <mxGeometry x="1100" y="530" width="45" height="45" as="geometry" />
        </mxCell>
        <mxCell id="qqDaEJq4rcLlo0jyx4f3-8" value="t" style="ellipse;whiteSpace=wrap;html=1;aspect=fixed;" vertex="1" parent="1">
          <mxGeometry x="1210" y="475" width="45" height="45" as="geometry" />
        </mxCell>
        <mxCell id="qqDaEJq4rcLlo0jyx4f3-9" value="" style="endArrow=classic;html=1;exitX=0;exitY=1;exitDx=0;exitDy=0;" edge="1" parent="1" source="qqDaEJq4rcLlo0jyx4f3-2">
          <mxGeometry width="50" height="50" relative="1" as="geometry">
            <mxPoint x="760" y="710" as="sourcePoint" />
            <mxPoint x="1210" y="410" as="targetPoint" />
          </mxGeometry>
        </mxCell>
        <mxCell id="qqDaEJq4rcLlo0jyx4f3-10" value="" style="endArrow=classic;html=1;entryX=0.5;entryY=0;entryDx=0;entryDy=0;" edge="1" parent="1" target="qqDaEJq4rcLlo0jyx4f3-4">
          <mxGeometry width="50" height="50" relative="1" as="geometry">
            <mxPoint x="1260" y="393" as="sourcePoint" />
            <mxPoint x="1220" y="420" as="targetPoint" />
          </mxGeometry>
        </mxCell>
        <mxCell id="qqDaEJq4rcLlo0jyx4f3-11" value="" style="endArrow=classic;html=1;exitX=0;exitY=1;exitDx=0;exitDy=0;entryX=0.5;entryY=0;entryDx=0;entryDy=0;" edge="1" parent="1" source="qqDaEJq4rcLlo0jyx4f3-3" target="qqDaEJq4rcLlo0jyx4f3-6">
          <mxGeometry width="50" height="50" relative="1" as="geometry">
            <mxPoint x="1256.5900974233027" y="393.4099025766973" as="sourcePoint" />
            <mxPoint x="1220" y="420" as="targetPoint" />
          </mxGeometry>
        </mxCell>
        <mxCell id="qqDaEJq4rcLlo0jyx4f3-12" value="" style="endArrow=classic;html=1;exitX=0;exitY=1;exitDx=0;exitDy=0;entryX=0.738;entryY=0.022;entryDx=0;entryDy=0;entryPerimeter=0;" edge="1" parent="1" source="qqDaEJq4rcLlo0jyx4f3-6" target="qqDaEJq4rcLlo0jyx4f3-7">
          <mxGeometry width="50" height="50" relative="1" as="geometry">
            <mxPoint x="1196.5900974233027" y="458.4099025766973" as="sourcePoint" />
            <mxPoint x="1130" y="540" as="targetPoint" />
          </mxGeometry>
        </mxCell>
        <mxCell id="qqDaEJq4rcLlo0jyx4f3-13" value="" style="endArrow=classic;html=1;entryX=1;entryY=0;entryDx=0;entryDy=0;" edge="1" parent="1" target="qqDaEJq4rcLlo0jyx4f3-8">
          <mxGeometry width="50" height="50" relative="1" as="geometry">
            <mxPoint x="1263" y="457" as="sourcePoint" />
            <mxPoint x="1272.5" y="420" as="targetPoint" />
          </mxGeometry>
        </mxCell>
        <mxCell id="qqDaEJq4rcLlo0jyx4f3-14" value="" style="endArrow=classic;html=1;entryX=0;entryY=0;entryDx=0;entryDy=0;exitX=1;exitY=1;exitDx=0;exitDy=0;" edge="1" parent="1" source="qqDaEJq4rcLlo0jyx4f3-2" target="qqDaEJq4rcLlo0jyx4f3-5">
          <mxGeometry width="50" height="50" relative="1" as="geometry">
            <mxPoint x="1270" y="403" as="sourcePoint" />
            <mxPoint x="1272.5" y="420" as="targetPoint" />
          </mxGeometry>
        </mxCell>
        <mxCell id="qqDaEJq4rcLlo0jyx4f3-15" value="n" style="ellipse;whiteSpace=wrap;html=1;aspect=fixed;" vertex="1" parent="1">
          <mxGeometry x="1320" y="482.5" width="45" height="45" as="geometry" />
        </mxCell>
        <mxCell id="qqDaEJq4rcLlo0jyx4f3-16" value="" style="endArrow=classic;html=1;exitX=0.5;exitY=1;exitDx=0;exitDy=0;entryX=0.5;entryY=0;entryDx=0;entryDy=0;" edge="1" parent="1" source="qqDaEJq4rcLlo0jyx4f3-5" target="qqDaEJq4rcLlo0jyx4f3-15">
          <mxGeometry width="50" height="50" relative="1" as="geometry">
            <mxPoint x="1288.4099025766973" y="393.4099025766973" as="sourcePoint" />
            <mxPoint x="1350" y="490" as="targetPoint" />
          </mxGeometry>
        </mxCell>
        <mxCell id="qqDaEJq4rcLlo0jyx4f3-17" value="s" style="ellipse;whiteSpace=wrap;html=1;aspect=fixed;" vertex="1" parent="1">
          <mxGeometry x="1070" y="590" width="45" height="45" as="geometry" />
        </mxCell>
        <mxCell id="qqDaEJq4rcLlo0jyx4f3-18" value="" style="endArrow=classic;html=1;entryX=0.693;entryY=-0.031;entryDx=0;entryDy=0;entryPerimeter=0;exitX=0.364;exitY=0.982;exitDx=0;exitDy=0;exitPerimeter=0;" edge="1" parent="1" source="qqDaEJq4rcLlo0jyx4f3-7" target="qqDaEJq4rcLlo0jyx4f3-17">
          <mxGeometry width="50" height="50" relative="1" as="geometry">
            <mxPoint x="1110" y="580" as="sourcePoint" />
            <mxPoint x="1143.21" y="540.99" as="targetPoint" />
          </mxGeometry>
        </mxCell>
        <mxCell id="qqDaEJq4rcLlo0jyx4f3-19" value="&lt;div&gt;&lt;span style=&quot;font-size: 14px&quot;&gt;&lt;font face=&quot;helvetica&quot;&gt;&lt;b&gt;codes：1&lt;/b&gt;&lt;/font&gt;&lt;/span&gt;&lt;/div&gt;" style="text;whiteSpace=wrap;html=1;align=center;" vertex="1" parent="1">
          <mxGeometry x="1007.5" y="635" width="170" height="30" as="geometry" />
        </mxCell>
        <mxCell id="qqDaEJq4rcLlo0jyx4f3-20" value="&lt;font face=&quot;helvetica&quot;&gt;&lt;span style=&quot;font-size: 14px&quot;&gt;&lt;b&gt;cat:2&lt;/b&gt;&lt;/span&gt;&lt;/font&gt;" style="text;whiteSpace=wrap;html=1;align=center;" vertex="1" parent="1">
          <mxGeometry x="1150" y="520" width="170" height="30" as="geometry" />
        </mxCell>
        <mxCell id="qqDaEJq4rcLlo0jyx4f3-21" value="&lt;font face=&quot;helvetica&quot;&gt;&lt;span style=&quot;font-size: 14px&quot;&gt;&lt;b&gt;can:&lt;/b&gt;&lt;/span&gt;&lt;/font&gt;" style="text;whiteSpace=wrap;html=1;align=center;" vertex="1" parent="1">
          <mxGeometry x="1270" y="530" width="170" height="30" as="geometry" />
        </mxCell>
      </root>
    </mxGraphModel>
  </diagram>
</mxfile>
